<svg xmlns="http://www.w3.org/2000/svg" viewBox="0 0 400 400"><defs><style>.cls-1{fill:#616161;}.cls-2{fill:#1d1d1b;}.cls-3{fill:#575757;}.cls-4{fill:#3b3b3b;}.cls-5{fill:#292929;}.cls-6{fill:#7e7e7d;}</style></defs><g id="Strokes"><path class="cls-1" d="M104.12,393.18c-7.64,0-13.63-4.66-13.63-10.62a9.37,9.37,0,0,1,3.21-6.92c-5.07-4.11-8-9.47-8-15.2a17.22,17.22,0,0,1,.76-5,21,21,0,0,1,6.6-9.64,9.71,9.71,0,0,1-2.17-3.71,8.63,8.63,0,0,1-.39-2.58c0-5.95,6-10.62,13.63-10.62H112c12.07-8.14,44.63-34,48.15-77.45h-2.44c-7,0-12.55-4.35-12.55-9.92,0-4.17,3.12-7.67,7.67-9.15a67.27,67.27,0,0,0-6.65-5.33h-6.82a17.4,17.4,0,0,1-4.69-.63c-5.42-1.49-8.93-5.41-8.93-10,0-5.28,4.62-9.58,11.23-10.46a19.06,19.06,0,0,1,2.39-.16h7.16a68.61,68.61,0,0,0,6.31-5.08c-4.63-1.48-7.67-5-7.67-9.17,0-4.94,4.27-8.95,10.37-9.76a15.65,15.65,0,0,1,2.18-.15h3.56c-20.14-8.77-32.41-23.89-32.41-40.4,0-.86,0-1.73.1-2.6,2-25.5,33.2-45.47,71.06-45.47,18.63,0,36.21,4.77,49.51,13.43,14,9.09,21.65,21.39,21.65,34.64,0,16.52-12.27,31.64-32.41,40.4h3.57c7,0,12.54,4.36,12.54,9.91,0,4.18-3.12,7.68-7.65,9.16a63.49,63.49,0,0,0,6.3,5.09h7.14c7.64,0,13.63,4.67,13.63,10.62s-6,10.62-13.63,10.62h-6.81a65.66,65.66,0,0,0-6.64,5.33c4.54,1.48,7.66,5,7.66,9.15,0,5.56-5.51,9.92-12.54,9.92h-2.45c3.52,43.45,36.08,69.3,48.16,77.45h7.85c7.65,0,13.64,4.67,13.64,10.62a9.13,9.13,0,0,1-2.54,6.27c4.7,4,7.33,9.16,7.33,14.68,0,5.73-2.94,11.09-8,15.2a9.33,9.33,0,0,1,3.22,6.92c0,6-6,10.62-13.64,10.62Z"/><path class="cls-2" d="M200,98.15c36.54,0,66.16,19.29,66.16,43.07,0,16.33-14,30.53-34.51,37.83v7.57h10.67c4.16,0,7.54,2.2,7.54,4.91s-3.38,4.91-7.54,4.91H237.2c3.25,5.84,10.35,11.33,14.73,14.34h8.72c4.77,0,8.63,2.52,8.63,5.62s-3.86,5.62-8.63,5.62h-8.38c-4.34,2.95-11.73,8.59-15.07,14.58h5.12c4.16,0,7.54,2.2,7.54,4.91s-3.38,4.91-7.54,4.91H234.6c1.35,50.51,39.81,79.55,51.92,87.45h9.36c4.78,0,8.64,2.52,8.64,5.62s-3.7,5.49-8.32,5.6c7.87,3.2,13.11,8.87,13.11,15.35,0,7.36-6.75,13.67-16.44,16.51h3c4.78,0,8.64,2.51,8.64,5.61s-3.86,5.62-8.64,5.62H104.12c-4.77,0-8.63-2.51-8.63-5.62s3.86-5.61,8.63-5.61h3c-9.68-2.84-16.44-9.15-16.44-16.51a12.12,12.12,0,0,1,.54-3.55c1.52-5,6.19-9.2,12.56-11.8-4-.1-7.36-2-8.13-4.49a3.78,3.78,0,0,1-.17-1.11c0-3.1,3.86-5.62,8.63-5.62h9.36c12.12-7.9,50.58-36.94,51.92-87.45h-7.71c-4.17,0-7.55-2.2-7.55-4.91s3.38-4.91,7.55-4.91h5.12c-3.34-6-10.74-11.63-15.08-14.58h-8.39a12.8,12.8,0,0,1-3.35-.44c-3.1-.86-5.27-2.85-5.27-5.18h0c0-2.72,3-5,6.89-5.5a12.26,12.26,0,0,1,1.73-.12h8.74c4.37-3,11.47-8.5,14.73-14.34h-5.12a10.78,10.78,0,0,1-1.52-.1c-3.44-.46-6-2.44-6-4.81h0c0-2.37,2.59-4.35,6-4.81a12.52,12.52,0,0,1,1.52-.1h10.67v-7.57c-20.57-7.3-34.52-21.5-34.52-37.83,0-.74,0-1.48.09-2.21C135.7,116.25,164.6,98.15,200,98.15m0-10c-18.92,0-37,4.76-50.92,13.4-15.09,9.36-24,22.39-25.12,36.68-.08,1-.12,2-.12,3,0,14.82,8.55,28.54,23.19,38.35a14.09,14.09,0,0,0-6.89,12h0a13.58,13.58,0,0,0,3.63,9.25h-4.43a23.79,23.79,0,0,0-3.05.2c-9.17,1.23-15.57,7.56-15.57,15.42h0c0,6.89,5,12.71,12.61,14.82a22.69,22.69,0,0,0,6,.8h4.72a13.59,13.59,0,0,0-3.92,9.49c0,7.45,6.13,13.47,14.43,14.69-5.19,36.81-32.32,59.44-44.14,67.67h-6.31c-10.45,0-18.63,6.86-18.63,15.62a14,14,0,0,0,.61,4.06,15.88,15.88,0,0,0,.56,1.5,24.61,24.61,0,0,0-5,8.9,22.11,22.11,0,0,0-1,6.49,23.47,23.47,0,0,0,6.36,15.76,13.63,13.63,0,0,0-1.56,6.36c0,8.76,8.18,15.62,18.63,15.62H295.88c10.45,0,18.64-6.86,18.64-15.62A13.75,13.75,0,0,0,313,376.2a22.79,22.79,0,0,0,.4-31.14,13.85,13.85,0,0,0,1.16-5.57c0-8.76-8.19-15.62-18.64-15.62h-6.31c-11.81-8.24-38.94-30.87-44.14-67.68,8.3-1.21,14.43-7.23,14.43-14.68A13.62,13.62,0,0,0,256,232h4.7c10.45,0,18.63-6.86,18.63-15.62s-8.18-15.62-18.63-15.62h-4.48a13.56,13.56,0,0,0,3.69-9.25,14.16,14.16,0,0,0-6.92-11.94c14.66-9.81,23.22-23.54,23.22-38.37,0-15-8.5-28.79-23.92-38.83-14.1-9.18-32.65-14.24-52.24-14.24Z"/></g><g id="Layer_5" data-name="Layer 5"><path class="cls-3" d="M260.56,157.9a31.88,31.88,0,0,0,4.44-16c0-10.35-5.32-19.89-14.27-27.54l-63.06,22.16Z"/><path class="cls-4" d="M91.13,357.31a12.19,12.19,0,0,0-.44,3.13c0,7.36,6.76,13.67,16.44,16.51h-3c-4.77,0-8.63,2.51-8.63,5.61s3.86,5.62,8.63,5.62h3.33l55.54-27Z"/><path class="cls-3" d="M113.73,333.71l-.25.16h-9.36c-4.77,0-8.63,2.52-8.63,5.62a3.78,3.78,0,0,0,.17,1.11c.77,2.5,4.1,4.39,8.13,4.49-6.37,2.6-11,6.83-12.56,11.8,0,.14-.06.28-.1.42L163,361.2Z"/><polygon class="cls-5" points="162.99 361.2 200 388.18 107.45 388.18 162.99 361.2"/><polygon class="cls-6" points="113.48 333.87 171.85 333.87 162.99 361.2 113.48 333.87"/><polygon class="cls-4" points="162.99 361.2 298.16 387.44 200 388.18 162.99 361.2"/><path class="cls-5" d="M304.52,382.56c0-3.1-3.86-5.61-8.64-5.61h-3c9.69-2.84,16.44-9.15,16.44-16.51a12.16,12.16,0,0,0-.57-3.65l-80.45,17.35,69.87,13.3,1.44.17C302.5,386.71,304.52,384.79,304.52,382.56Z"/><polygon class="cls-3" points="162.99 361.2 308.74 356.79 228.29 374.14 162.99 361.2"/><polygon class="cls-3" points="171.85 333.87 286.52 333.87 162.99 361.2 171.85 333.87"/><path class="cls-6" d="M308.74,356.79h0c-1.55-4.93-6.19-9.12-12.54-11.7,4.62-.11,8.32-2.56,8.32-5.6s-3.86-5.62-8.64-5.62h-9.36L163,361.2Z"/><path class="cls-5" d="M156.72,284.28c-12.39,27.44-34.56,43.94-43.24,49.59h92.77Z"/><path class="cls-4" d="M206.25,333.87h80.27a126.8,126.8,0,0,1-24.9-21.63C242.88,319.59,206.25,333.87,206.25,333.87Z"/><polygon class="cls-3" points="206.25 333.87 200.34 253.08 156.72 284.28 206.25 333.87"/><polygon class="cls-6" points="200.34 253.08 241.73 282.82 206.25 333.87 200.34 253.08"/><path class="cls-3" d="M242.6,282.7l-.87.12-35.48,51.05,55.37-21.63A110.74,110.74,0,0,1,242.6,282.7Z"/><path class="cls-4" d="M147.73,222c4.34,2.95,11.74,8.59,15.08,14.58h-5.12c-4.17,0-7.55,2.2-7.55,4.91s3.38,4.91,7.55,4.91h7.71a97.69,97.69,0,0,1-9,38.57l.68.19s44.21-31.66,43.27-32.1S147.73,222,147.73,222Z"/><path class="cls-5" d="M242.5,282.46a97.38,97.38,0,0,1-7.9-36l-34.26,6.66,41.39,29.74Z"/><path class="cls-4" d="M234.6,246.42h7.72c4.16,0,7.54-2.2,7.54-4.91s-3.38-4.91-7.54-4.91H237.2c3.33-6,10.73-11.63,15.07-14.58l-51.93,31.06,34.26-6.66Z"/><polygon class="cls-5" points="200.34 253.08 201.37 222.03 147.73 222.02 200.34 253.08"/><path class="cls-4" d="M168.36,179.05v7.57H157.69a12.52,12.52,0,0,0-1.52.1c-3.44.46-6,2.44-6,4.81h0c0,2.37,2.59,4.35,6,4.81a10.78,10.78,0,0,0,1.52.1h5.12c-3.26,5.84-10.36,11.33-14.73,14.34h-8.74a12.26,12.26,0,0,0-1.73.12c-3.93.52-6.89,2.78-6.89,5.5h0c0,2.33,2.17,4.32,5.27,5.18a12.8,12.8,0,0,0,3.35.44h62Z"/><path class="cls-3" d="M252.27,222h8.38c4.77,0,8.63-2.52,8.63-5.62s-3.86-5.62-8.63-5.62h-8.72c-4.38-3-11.48-8.5-14.73-14.34h5.12c4.16,0,7.54-2.2,7.54-4.91s-3.38-4.91-7.54-4.91H231.65v-7.57l-30.28,43Z"/><polygon class="cls-6" points="168.36 179.06 231.65 179.05 201.37 222.03 168.36 179.06"/><path class="cls-4" d="M234.6,246.42h7.72c4.16,0,7.54-2.2,7.54-4.91s-3.38-4.91-7.54-4.91H237.2c3.33-6,10.73-11.63,15.07-14.58h-50.9l-1,31.05,34.26-6.66Z"/><path class="cls-5" d="M142.44,120c-4.94,5.66-8,12.12-8.51,19-.06.73-.09,1.47-.09,2.21A29.21,29.21,0,0,0,136,152.11l71.86-11.53Z"/><path class="cls-4" d="M142.38,120.07,193,136.12l6.81-38C175.13,98.21,153.69,107,142.38,120.07Z"/><path class="cls-3" d="M136,152.11c4.65,11.61,16.52,21.32,32.35,26.94h0l39.51-38.47Z"/><polygon points="231.65 179.05 207.87 140.58 168.36 179.06 231.65 179.05"/><path class="cls-6" d="M200,98.15h-.24l-6.81,38,59.7-21C240.56,104.82,221.48,98.15,200,98.15Z"/><path class="cls-4" d="M208.27,140.85,231.84,179c13.7-4.91,24.42-12.89,30-22.51Z"/></g></svg>