<svg xmlns="http://www.w3.org/2000/svg" viewBox="0 0 400 400"><defs><style>.cls-1{fill:#1c1c1c;}.cls-2{fill:#1d1d1b;}.cls-3{fill:#2e2e2e;}.cls-4{fill:#363636;}.cls-5{fill:#292929;}.cls-6{fill:#3d3d3d;}.cls-7{fill:#2b2b2b;}.cls-8{fill:#212121;}.cls-9{fill:#404040;}.cls-10{fill:#454545;}</style></defs><g id="Strokes"><path class="cls-1" d="M101,393.18c-7,0-12.09-3.64-12.09-8.66a7.09,7.09,0,0,1,1.41-4.25C86.92,377.47,85,374,85,370.13c0-3.69,1.79-7.09,5-9.86A6.94,6.94,0,0,1,89,356.51c0-5,5.08-8.66,12.09-8.66h2c1-2.33,2.46-5.32,4.18-9C118.34,315.43,143.8,261.68,146.3,218h-1.21c-6.49,0-11.2-3.45-11.2-8.2a7.41,7.41,0,0,1,3.93-6.38c-.71-.43-1.44-.87-2.21-1.3H130c-7,0-12.09-3.64-12.09-8.65s5.08-8.66,12.09-8.66h5.88c1.36-.77,2.57-1.52,3.62-2.23-5.31-.69-9-3.87-9-8.05,0-4.75,4.71-8.2,11.19-8.2h2.45L126,148.74a5,5,0,0,1-.2-7l29.58-31.95a6.77,6.77,0,0,1-1.33-4c0-4.75,4.71-8.2,11.2-8.2h9.6a8.28,8.28,0,0,1,3.69-3.64l2.9-38.3L162.27,57c-.38,0-.75,0-1.11,0-6.27,0-9.13-3.57-9.13-6.88V36.73c0-3.32,2.86-6.89,9.12-6.89.37,0,.74,0,1.12,0l18.61,1.32-2.4-14.95a6.46,6.46,0,0,1,1.23-5.3A9,9,0,0,1,187,7.79h26A9,9,0,0,1,220.32,11a6.42,6.42,0,0,1,1.2,5.29l-2.4,14.93,18.63-1.32c.37,0,.74,0,1.1,0,6.27,0,9.13,3.57,9.13,6.89V50.12c0,3.31-2.86,6.88-9.13,6.88-.36,0-.73,0-1.1,0l-19.14-1.35,2.89,38.3a8.35,8.35,0,0,1,3.7,3.64h9.6c6.49,0,11.2,3.45,11.2,8.2a6.77,6.77,0,0,1-1.33,4l29.58,32a5,5,0,0,1-.2,7l-18.21,17.57h2.43c6.49,0,11.2,3.45,11.2,8.2,0,4.18-3.66,7.36-9,8.05,1.06.71,2.26,1.46,3.63,2.23H270c7,0,12.08,3.64,12.08,8.66S277,202.1,270,202.1h-5.61c-.76.43-1.5.86-2.2,1.3a7.4,7.4,0,0,1,3.93,6.38c0,4.75-4.71,8.2-11.21,8.2h-1.2c2.49,43.7,28,97.44,39.07,120.9,1.73,3.65,3.15,6.64,4.19,9h2c7,0,12.1,3.64,12.1,8.66a7,7,0,0,1-1.1,3.76c3.25,2.77,5,6.17,5,9.86,0,3.84-1.92,7.34-5.35,10.14a7.07,7.07,0,0,1,1.41,4.25c0,5-5.09,8.66-12.1,8.66Z"/><path class="cls-2" d="M213,12.79c2.38,0,4,1.14,3.62,2.51l-3.43,21.33,24.92-1.76.75,0c2.32,0,4.13.79,4.13,1.89V50.12c0,1.1-1.81,1.88-4.13,1.88q-.37,0-.75,0l-24.92-1.76,3.43,45.33a1.66,1.66,0,0,1-.94,1.86c3,.25,5.21,1.56,5.21,3.15a2.53,2.53,0,0,1-1.41,2H234.8c3.42,0,6.2,1.44,6.2,3.2,0,1.38-1.72,2.55-4.11,3l33.69,36.39-27.13,26.17h14.82c3.42,0,6.2,1.43,6.2,3.2s-2.78,3.19-6.2,3.19h-8.84c1,4.74,8.92,9.66,13.39,12.09H270c3.92,0,7.09,1.64,7.09,3.66s-3.17,3.65-7.09,3.65h-6.88c-3.57,1.92-9.65,5.59-12.4,9.49h4.2c3.43,0,6.21,1.43,6.21,3.19s-2.78,3.2-6.21,3.2h-6.39c.83,55.23,40,126.59,45.15,139.87H299c3.92,0,7.09,1.64,7.09,3.66s-3,3.57-6.84,3.64c6.47,2.08,10.78,5.76,10.78,10,0,4.79-5.55,8.9-13.51,10.74H299c3.92,0,7.09,1.64,7.09,3.65s-3.17,3.66-7.09,3.66H101c-3.92,0-7.09-1.64-7.09-3.66s3.17-3.65,7.09-3.65h2.48C95.55,379,90,374.92,90,370.13c0-4.22,4.32-7.9,10.78-10C97,360.08,94,358.48,94,356.51s3.17-3.66,7.09-3.66h5.3c5.17-13.28,44.31-84.64,45.14-139.87h-6.39c-3.43,0-6.2-1.43-6.2-3.2s2.77-3.19,6.2-3.19h4.21c-2.74-3.9-8.84-7.57-12.41-9.49H130c-3.92,0-7.09-1.64-7.09-3.65s3.17-3.66,7.09-3.66h7.18c4.46-2.43,12.38-7.35,13.39-12.09h-8.85c-3.42,0-6.19-1.43-6.19-3.19s2.77-3.2,6.19-3.2h14.83l-27.13-26.17,33.69-36.39c-2.39-.45-4.11-1.61-4.11-3,0-1.76,2.77-3.2,6.19-3.2h15.34a2.53,2.53,0,0,1-1.41-2c0-1.59,2.25-2.9,5.21-3.15a1.67,1.67,0,0,1-1-1.86l3.43-45.33L161.92,52l-.76,0c-2.33,0-4.13-.78-4.13-1.88V36.73c0-1.1,1.8-1.89,4.13-1.89l.76,0,24.9,1.76L183.39,15.3c-.36-1.37,1.25-2.51,3.61-2.51h26m0-10H187A13.93,13.93,0,0,0,175.75,7.9a11.4,11.4,0,0,0-2.19,9.26L175,25.77l-12.33-.88c-.48,0-1-.05-1.46-.05-9.28,0-14.13,6-14.13,11.89V50.12C147,56,151.89,62,161.16,62c.48,0,1,0,1.46,0L176,61,173.7,91.15a12.3,12.3,0,0,0-1.48,1.4h-7c-9.23,0-16.19,5.68-16.19,13.2a11.62,11.62,0,0,0,.41,3.08l-27.33,29.52a10,10,0,0,0,.4,14L133.55,163c-4.87,2.23-8,6.45-8,11.51A11.58,11.58,0,0,0,126.9,180c-8.27,1.07-14,6.4-14,13.46,0,7.69,6.79,13.33,16.28,13.64a11.86,11.86,0,0,0-.31,2.69c0,6.35,5,11.37,12.05,12.79-3.94,41.8-27.66,91.86-38.24,114.18l-2.89,6.13c-9.26.45-15.86,6-15.86,13.63a11.74,11.74,0,0,0,.26,2.53,16.74,16.74,0,0,0,.13,22.35,12.37,12.37,0,0,0-.39,3.13c0,7.92,7.18,13.66,17.09,13.66H299c9.9,0,17.09-5.74,17.09-13.66a12.31,12.31,0,0,0-.4-3.13A16.76,16.76,0,0,0,315.8,359a12.33,12.33,0,0,0,.26-2.53c0-7.59-6.6-13.18-15.87-13.63-.83-1.8-1.8-3.84-2.89-6.15-10.58-22.31-34.29-72.36-38.23-114.16,7.09-1.42,12.05-6.44,12.05-12.79a11.86,11.86,0,0,0-.31-2.69c9.48-.31,16.27-6,16.27-13.64,0-7.06-5.71-12.39-14-13.46a11.56,11.56,0,0,0,1.36-5.48c0-5.06-3.14-9.28-8-11.5l11.06-10.67a10,10,0,0,0,.4-14l-27.33-29.52a11.67,11.67,0,0,0,.41-3.08c0-7.52-7-13.2-16.2-13.2h-7a13.09,13.09,0,0,0-1.48-1.4L224,61l13.36,1c.49,0,1,0,1.46,0C248.12,62,253,56,253,50.12V36.73c0-5.91-4.85-11.89-14.13-11.89-.48,0-1,0-1.47.05l-12.32.88,1.38-8.59a11.39,11.39,0,0,0-2.15-9.24A14,14,0,0,0,213,2.79Z"/></g><g id="Layer_5" data-name="Layer 5"><polygon class="cls-3" points="153.35 388.18 106.34 352.85 196.66 352.85 153.35 388.18"/><polygon class="cls-4" points="196.66 352.85 221.47 388.18 153.35 388.18 196.66 352.85"/><polygon class="cls-5" points="106.34 352.85 196.66 262.99 253.28 352.85 106.34 352.85"/><polygon class="cls-6" points="221.47 388.18 298.96 352.85 196.66 352.85 221.47 388.18"/><path class="cls-5" d="M306.06,384.52c0-2-3.17-3.65-7.1-3.65h-2.47c8-1.84,13.51-5.95,13.51-10.74,0-4.22-4.31-7.9-10.78-10,3.81-.07,7.35-1.69,6.84-3.64s-3.92-3.52-6.44-3.82l-78.16,35.49H299C302.89,388.18,306.06,386.54,306.06,384.52Z"/><polygon class="cls-3" points="293.67 352.85 196.66 262.99 253.28 352.85 293.67 352.85"/><polygon class="cls-7" points="247.81 310.37 278.3 310.37 293.67 352.85 247.81 310.37"/><polygon class="cls-6" points="196.66 262.99 267.95 278.16 247.81 310.37 196.66 262.99"/><polygon class="cls-4" points="247.81 310.37 267.95 278.16 278.3 310.37 247.81 310.37"/><polygon class="cls-8" points="106.34 352.85 173.12 286.41 136.49 262.99 106.34 352.85"/><polygon class="cls-7" points="136.49 262.99 196.66 262.99 173.12 286.41 136.49 262.99"/><polygon class="cls-3" points="196.66 262.99 200 239.84 151.48 212.98 196.66 262.99"/><polygon class="cls-5" points="136.49 262.99 136.49 262.99 196.66 262.99 151.48 212.98 136.49 262.99"/><polygon class="cls-4" points="267.95 278.16 200 239.84 196.66 262.99 267.95 278.16"/><polygon class="cls-6" points="200 239.84 248.52 212.98 267.95 278.16 200 239.84"/><polygon class="cls-6" points="221.78 227.78 178.22 227.78 200 239.84 221.78 227.78"/><path class="cls-5" d="M156.56,171.31l-15.91,28c3.18,2,6.73,4.59,8.65,7.32h-4.21c-3.43,0-6.2,1.43-6.2,3.19s2.77,3.2,6.2,3.2h6.39l26.75,14.8Z"/><polygon class="cls-6" points="221.78 227.78 216.11 197.1 178.23 227.78 221.78 227.78"/><polygon class="cls-4" points="163.92 193.45 216.11 197.1 178.23 227.78 163.92 193.45"/><polygon class="cls-3" points="156.56 171.31 212.57 171.31 163.92 193.45 156.56 171.31"/><polygon class="cls-9" points="216.11 197.1 212.57 171.31 163.92 193.45 216.11 197.1"/><path class="cls-3" d="M248.52,213h6.39c3.43,0,6.21-1.43,6.21-3.2s-2.78-3.19-6.21-3.19h-4.2c2.75-3.9,8.83-7.57,12.4-9.49h-47l5.67,30.68Z"/><polygon class="cls-10" points="212.57 171.31 273.81 196.53 216.11 197.1 212.57 171.31"/><path class="cls-3" d="M273.8,196.52c2-.65,3.28-1.78,3.28-3.07,0-2-3.17-3.66-7.09-3.66h-7.17c-4.47-2.43-12.39-7.35-13.39-12.09h8.84c3.42,0,6.2-1.43,6.2-3.19s-2.78-3.2-6.2-3.2h-45.7Z"/><path class="cls-3" d="M130,197.1h6.88c1,.55,2.26,1.25,3.56,2.05l16.11-27.84H141.73c-3.42,0-6.19,1.43-6.19,3.2s2.77,3.19,6.19,3.19h8.85c-1,4.74-8.93,9.66-13.39,12.09H130c-3.92,0-7.09,1.64-7.09,3.66S126.09,197.1,130,197.1Z"/><polygon class="cls-7" points="129.43 145.14 225.9 133.9 156.56 171.31 129.43 145.14"/><polygon class="cls-5" points="243.45 171.31 225.9 133.9 156.56 171.31 243.45 171.31"/><polygon class="cls-9" points="236.89 108.75 225.9 133.9 270.58 145.14 236.89 108.75"/><polygon class="cls-3" points="243.45 171.31 270.58 145.14 225.9 133.9 243.45 171.31"/><polygon class="cls-10" points="236.89 108.75 129.43 145.14 225.9 133.9 236.89 108.75"/><path class="cls-7" d="M161.7,103.12c-1.63.57-2.69,1.54-2.69,2.63,0,1.39,1.72,2.55,4.11,3l-33.69,36.39,107.46-36.39Z"/><path class="cls-9" d="M179.13,100.55a2.53,2.53,0,0,0,1.41,2H165.25l-3.55.57h0l75.19,5.63c2.39-.45,4.11-1.62,4.11-3,0-1.76-2.78-3.2-6.2-3.2H219.47a2.53,2.53,0,0,0,1.41-2c0-1.59-2.26-2.9-5.21-3.15a1.66,1.66,0,0,0,.94-1.86l-.29-42.09-37.16,46.9A1.2,1.2,0,0,0,179.13,100.55Z"/><polygon class="cls-7" points="216.32 53.45 185.67 54.53 183.39 95.54 216.32 53.45"/><polygon class="cls-3" points="185.67 54.53 213.18 36.63 213.18 50.21 216.32 53.45 185.67 54.53"/><path class="cls-7" d="M185.67,54.53l27.51-17.9-55,14.82a7.87,7.87,0,0,0,3.71.52l24.9-1.76-1.15,4.32Z"/><path class="cls-5" d="M158.21,51.45l50-13.47-46.26-3.11c-2.69-.19-4.89.64-4.89,1.86V50.12c0,.69.73,1.25,1.84,1.57A5.66,5.66,0,0,1,158.21,51.45Z"/><path class="cls-1" d="M160.51,52h0Z"/><path class="cls-1" d="M159.61,51.86c-.19,0-.38-.07-.56-.12C159.23,51.79,159.42,51.82,159.61,51.86Z"/><path class="cls-5" d="M183.39,95.54a1.67,1.67,0,0,0,1,1.86c-3,.25-5.21,1.56-5.21,3.15l37.19-47.1h0L183.43,95.38Z"/><path class="cls-7" d="M242,51.35,213.18,36.63V50.21L238.1,52A7.5,7.5,0,0,0,242,51.35Z"/><path class="cls-3" d="M184.69,13.24c-1,.46-1.52,1.21-1.3,2.06l3.43,21.33L208.18,38Z"/><path class="cls-5" d="M208.18,38l8.42-23.42c-.27-1-1.68-1.77-3.61-1.77H187a5,5,0,0,0-2.84.75Z"/><path class="cls-1" d="M208.18,38l5-1.48,3.39-21.2a8.15,8.15,0,0,0,0-1.1Z"/></g></svg>