<svg xmlns="http://www.w3.org/2000/svg" xmlns:xlink="http://www.w3.org/1999/xlink" viewBox="0 0 400 400"><defs><style>.cls-1{fill:#c0c0bf;}.cls-2{fill:#b7b7b5;}.cls-3{fill:#1d1d1b;}.cls-4{fill:#dbdbdb;}.cls-5{fill:#dfdfdf;}.cls-6{fill:#f0f0f0;}.cls-7{fill:#bbbbba;}.cls-8{fill:#d1d1d1;}.cls-9{fill:#d5d5d5;}.cls-10{fill:#b9b9b7;}.cls-11{clip-path:url(#clip-path);}.cls-12{fill:#bdbdbc;}</style><clipPath id="clip-path"><polygon class="cls-1" points="154.46 183.35 206.11 152.1 246.15 195.63 154.46 183.35"/></clipPath></defs><g id="Strokes"><path class="cls-2" d="M99.52,393.18c-7.25,0-12.73-4.06-12.73-9.45a8,8,0,0,1,2.12-5.36c-4.1-3.32-6.41-7.54-6.41-12.17,0-4.42,2.14-8.51,6-11.79a7.75,7.75,0,0,1-1.69-4.8c0-5.39,5.48-9.46,12.73-9.46h3c8.52-17.07,44.09-91.7,46.81-151.82H147.5c-6.71,0-11.76-3.82-11.76-8.89,0-3.32,2.17-6.11,5.55-7.63q-1.89-1.41-4.13-2.81h-6.08c-7.26,0-12.73-4.07-12.73-9.46s5.47-9.45,12.73-9.45h6.39a53.6,53.6,0,0,0,6.44-4.72h-.07c-6.7,0-11.75-3.83-11.75-8.89s5-8.89,11.75-8.89h14.34L133.13,89.53a5,5,0,0,1,1.12-6.71l39.33-30.46a7.41,7.41,0,0,1-1.32-4.23,8.13,8.13,0,0,1,4.09-6.85A11.89,11.89,0,0,1,175.12,36c0-9.38,10.69-16.46,24.88-16.46S224.88,26.66,224.88,36a12,12,0,0,1-1.23,5.25,8.1,8.1,0,0,1,4.09,6.84,7.41,7.41,0,0,1-1.32,4.23l10.11,7.83a5,5,0,0,1-.57,8.28L202.6,87.69l7,4L245.47,71a5,5,0,0,1,2.5-.67,5,5,0,0,1,3.06,1l14.72,11.4a5,5,0,0,1,1.12,6.7l-25.05,38.07h14.33c6.71,0,11.76,3.82,11.76,8.89s-5.05,8.89-11.76,8.89h-.06a53.79,53.79,0,0,0,6.45,4.72h6.38c7.26,0,12.73,4.06,12.73,9.45S276.18,169,268.92,169h-6.08c-1.49.93-2.88,1.87-4.13,2.81,3.38,1.52,5.55,4.31,5.55,7.63,0,5.07-5.05,8.89-11.75,8.89h-1.82c2.72,60,38.29,134.73,46.81,151.82h3c7.26,0,12.73,4.07,12.73,9.46a7.83,7.83,0,0,1-1.66,4.83c3.83,3.28,5.95,7.36,5.95,11.76,0,4.63-2.31,8.85-6.41,12.17a7.93,7.93,0,0,1,2.12,5.36c0,5.39-5.47,9.45-12.73,9.45Z"/><path class="cls-3" d="M200,24.58c11,0,19.88,5.13,19.88,11.46,0,3.22-2.31,6.12-6,8.2H216c3.72,0,6.75,1.75,6.75,3.9,0,1.81-2.18,3.32-5.1,3.75l15.83,12.25L192.58,87.68l17,9.8L248,75.37l14.72,11.41-30.14,45.81h23.6c3.74,0,6.76,1.74,6.76,3.89s-3,3.89-6.76,3.89h-9.62c1.09,5.77,9.71,11.76,14.58,14.72h7.81c4.27,0,7.73,2,7.73,4.45s-3.46,4.46-7.73,4.46h-7.49c-3.89,2.33-10.52,6.8-13.5,11.55h4.58c3.72,0,6.75,1.74,6.75,3.89s-3,3.89-6.75,3.89h-7c.89,65.37,42.2,148.77,48.88,161.82h6.06c4.27,0,7.73,2,7.73,4.46S304.9,354,300.75,354c7.05,2.54,11.75,7,11.75,12.16,0,5.83-6.05,10.83-14.72,13.08h2.7c4.27,0,7.73,2,7.73,4.45s-3.46,4.45-7.73,4.45h-201c-4.27,0-7.73-2-7.73-4.45s3.46-4.45,7.73-4.45h2.7C93.55,377,87.5,372,87.5,366.2c0-5.14,4.7-9.62,11.74-12.16-4.13-.09-7.45-2-7.45-4.43s3.46-4.46,7.73-4.46h6.06c6.68-13,48-96.45,48.88-161.82h-7c-3.74,0-6.76-1.74-6.76-3.89s3-3.89,6.76-3.89h4.58c-3-4.75-9.63-9.22-13.51-11.55h-7.5c-4.26,0-7.72-2-7.72-4.46s3.46-4.45,7.72-4.45h7.82c4.87-3,13.49-9,14.58-14.72h-9.63c-3.73,0-6.75-1.74-6.75-3.89s3-3.89,6.75-3.89h23.62L137.31,86.78l45.05-34.89c-2.93-.43-5.1-1.94-5.1-3.75,0-2.15,3-3.9,6.75-3.9h2.14c-3.72-2.08-6-5-6-8.2,0-6.33,8.9-11.46,19.88-11.46m0-10c-17,0-29.88,9.23-29.88,21.46a16.46,16.46,0,0,0,.4,3.65,12.51,12.51,0,0,0-3.26,8.45,12.21,12.21,0,0,0,.27,2.58L131.19,78.87A10,10,0,0,0,129,92.27l19.95,30.32h-5.07c-9.55,0-16.75,6-16.75,13.89a12.53,12.53,0,0,0,3.43,8.62c-9.83.22-17.17,6.36-17.17,14.44,0,8.24,7.62,14.46,17.72,14.46H132a12.41,12.41,0,0,0-1.24,5.44c0,6.92,5.51,12.36,13.28,13.61-4.09,55.39-34.62,121.67-44.63,142.1-10,.06-17.6,6.25-17.6,14.46a12.83,12.83,0,0,0,.59,3.83,19.17,19.17,0,0,0,.22,25.8,12.64,12.64,0,0,0-.81,4.49c0,8.24,7.63,14.45,17.73,14.45h201c10.11,0,17.73-6.21,17.73-14.45a12.64,12.64,0,0,0-.81-4.49,19.17,19.17,0,0,0,.22-25.8,12.83,12.83,0,0,0,.59-3.83c0-8.21-7.56-14.4-17.61-14.46-10-20.45-40.53-86.79-44.62-142.1,7.77-1.25,13.28-6.69,13.28-13.61A12.41,12.41,0,0,0,268,174h.9c10.11,0,17.73-6.22,17.73-14.46,0-8.08-7.34-14.22-17.17-14.44a12.53,12.53,0,0,0,3.43-8.62c0-7.92-7.2-13.89-16.76-13.89h-5L271,92.27a10,10,0,0,0-2.23-13.4l-14.72-11.4a10,10,0,0,0-10.93-.86,9.68,9.68,0,0,0,.28-1.79,10,10,0,0,0-3.85-8.59l-7.12-5.51a12.28,12.28,0,0,0,.27-2.58,12.53,12.53,0,0,0-3.26-8.44,16.55,16.55,0,0,0,.4-3.66c0-12.23-12.84-21.46-29.88-21.46Z"/></g><g id="Layer_5" data-name="Layer 5"><path class="cls-2" d="M188.58,26.66c-.78.33-1.53.68-2.22,1.05A20.74,20.74,0,0,1,188.58,26.66Z"/><path class="cls-2" d="M191.07,25.81c-.87.25-1.69.54-2.49.85A22,22,0,0,1,191.07,25.81Z"/><path class="cls-4" d="M180.06,53.67l2.3-1.78c-2.93-.43-5.1-1.94-5.1-3.75,0-2.16,3-3.9,6.75-3.9h2.13l17.09-6.09Z"/><path class="cls-5" d="M192.4,25.45c-7.21,1.72-12.28,5.81-12.28,10.59,0,3.22,2.31,6.12,6,8.2l17.08-6.1Z"/><path class="cls-6" d="M200,24.58a32.62,32.62,0,0,0-7.92,1l11.15,12.61,13.84-8C213.59,26.83,207.26,24.58,200,24.58Z"/><polygon class="cls-1" points="192.58 87.68 203.23 38.14 180.06 53.67 137.48 86.64 192.58 87.68"/><polygon class="cls-1" points="155.51 72.68 137.49 86.64 137.48 86.64 155.51 72.68"/><polygon class="cls-6" points="203.23 38.14 233.47 64.14 192.58 87.68 203.23 38.14"/><polygon class="cls-7" points="137.48 86.64 192.58 87.68 167.46 132.58 137.48 86.64"/><polygon class="cls-8" points="247.96 75.37 209.58 97.48 192.58 87.68 192.58 87.68 232.56 132.58 262.69 86.78 247.96 75.37"/><polygon class="cls-1" points="167.46 132.58 232.56 132.58 192.58 87.68 167.46 132.58"/><path class="cls-6" d="M131.08,164h7.48a69.15,69.15,0,0,1,6.27,4.22l61.28-16.12L167.4,132.58H143.85c-3.73,0-6.76,1.75-6.76,3.9s3,3.89,6.76,3.89h9.61c-1.08,5.77-9.7,11.76-14.57,14.72h-7.81c-4.28,0-7.73,2-7.73,4.46S126.8,164,131.08,164Z"/><polygon class="cls-8" points="232.56 132.58 169.38 132.58 206.11 152.1 236.56 132.58 232.56 132.58"/><path class="cls-9" d="M261.53,164h7.39c4.27,0,7.74-2,7.74-4.45s-3.47-4.46-7.74-4.46H261.1c-4.86-3-13.48-9-14.57-14.72h9.62c3.74,0,6.76-1.74,6.76-3.89s-3-3.9-6.76-3.9H236.56L206.11,152.1Z"/><path class="cls-10" d="M206.11,152.1l-61.28,16.12h0a30.67,30.67,0,0,1,7.25,7.33H147.5c-3.74,0-6.76,1.74-6.76,3.89s3,3.88,6.76,3.88h7v0Z"/><path class="cls-10" d="M246.15,195.63q-.53-6.24-.61-12.31h7c3.73,0,6.75-1.73,6.75-3.88s-3-3.89-6.75-3.89h-4.58c3-4.75,9.61-9.22,13.51-11.55h.09l-55.42-11.9Z"/><polygon class="cls-1" points="154.46 183.35 206.11 152.1 246.15 195.63 154.46 183.35"/><g class="cls-11"><path class="cls-1" d="M308.21,383.72c0,2.47-3.47,4.46-7.74,4.46H99.53c-4.28,0-7.73-2-7.73-4.46s3.45-4.44,7.73-4.44h2.68C93.55,377,87.5,372,87.5,366.2c0-5.14,4.7-9.62,11.74-12.16-4.13-.09-7.44-2-7.44-4.43s3.45-4.46,7.73-4.46h6c6.68-13.06,48-96.45,48.88-161.83h-7c-3.74,0-6.76-1.73-6.76-3.88s3-3.89,6.76-3.89h4.58c-3-4.75-9.62-9.22-13.52-11.55h-7.48c-4.28,0-7.73-2-7.73-4.45s3.45-4.46,7.73-4.46h7.81c4.87-3,13.49-9,14.57-14.72h-9.61c-3.73,0-6.76-1.74-6.76-3.89s3-3.9,6.76-3.9h23.61l-30.14-45.8.17-.14,55.09,1,17,9.8L248,75.37l14.73,11.41-30.13,45.8h23.59c3.74,0,6.76,1.75,6.76,3.9s-3,3.89-6.76,3.89h-9.62c1.09,5.77,9.71,11.76,14.57,14.72h7.82c4.27,0,7.74,2,7.74,4.46s-3.47,4.45-7.74,4.45h-7.48c-3.9,2.33-10.53,6.8-13.51,11.55h4.58c3.73,0,6.75,1.74,6.75,3.89s-3,3.88-6.75,3.88h-7c.89,65.38,42.21,148.77,48.88,161.83h6.05c4.27,0,7.74,2,7.74,4.46s-3.32,4.34-7.45,4.43c7.05,2.54,11.74,7,11.74,12.16,0,5.83-6.05,10.84-14.72,13.08h2.69C304.74,379.28,308.21,381.27,308.21,383.72Z"/></g><path class="cls-6" d="M154.46,183.35h0c-.47,33.61-11.61,72-23.23,103.09l74.88-95.11Z"/><path class="cls-6" d="M256.23,248.29c-4.81-17.19-8.56-35-10-52.08l-40.09-4.87Z"/><polygon class="cls-1" points="256.24 248.29 191.07 268.19 131.23 286.45 206.11 191.34 256.24 248.29"/><polygon class="cls-8" points="192.58 339.71 191.82 303.96 191.07 268.19 131.23 286.45 192.58 339.71"/><polygon class="cls-12" points="256.24 248.29 191.82 303.96 191.07 268.19 256.24 248.29"/><polygon class="cls-1" points="192.58 339.71 283.52 322.3 191.82 303.96 192.58 339.71"/><path class="cls-10" d="M283.53,322.3c-8.29-18.44-19.27-45.32-27.29-74h0L191.82,304Z"/><path class="cls-8" d="M131.23,286.45a588.17,588.17,0,0,1-25.65,58.7H99.52c-4.27,0-7.73,2-7.73,4.46S95.11,354,99.24,354c-7,2.54-11.74,7-11.74,12.16a8.74,8.74,0,0,0,.37,2.44l104.71-28.93Z"/><path class="cls-6" d="M91.79,349.61c0,2.4,3.32,4.34,7.45,4.43-7,2.54-11.74,7-11.74,12.16a8.74,8.74,0,0,0,.37,2.44l50.7-14h0l-33-9.48H99.52C95.25,345.15,91.79,347.15,91.79,349.61Z"/><polygon class="cls-12" points="138.57 354.63 131.23 286.45 192.58 339.71 138.57 354.63"/><polygon class="cls-1" points="138.57 354.63 87.87 368.64 161.15 388.18 138.57 354.63"/><polygon class="cls-8" points="192.58 339.71 207.77 374.84 138.57 354.63 192.58 339.71"/><polygon class="cls-12" points="283.52 322.3 207.77 374.84 192.58 339.71 283.52 322.3"/><polygon class="cls-12" points="161.15 388.18 207.77 374.84 138.57 354.63 161.15 388.18"/><polygon class="cls-6" points="290.35 387.75 207.77 374.84 161.15 388.18 290.35 387.75"/><polygon class="cls-8" points="207.77 374.84 241.47 351.47 290.35 387.75 207.77 374.84"/><path class="cls-12" d="M308.21,383.73c0-2.46-3.46-4.45-7.73-4.45h-2.7a26.48,26.48,0,0,0,10.47-5.08l-39.92-2.79,22,16.35,13.81-.14C306.56,386.86,308.21,385.41,308.21,383.73Z"/><polygon class="cls-1" points="283.52 322.3 268.33 371.41 241.47 351.47 283.52 322.3"/><polygon class="cls-6" points="308.25 374.2 293.39 343.01 283.52 322.3 268.33 371.41 308.25 374.2"/><path class="cls-12" d="M300.75,354c4.15-.09,7.46-2,7.46-4.43s-3.46-4.46-7.73-4.46h-6.06c-.68-1.32,12.75,28.57,12.75,28.57l1.8-.18a10.22,10.22,0,0,0,3.53-7.34C312.5,361.06,307.8,356.58,300.75,354Z"/></g></svg>