<svg xmlns="http://www.w3.org/2000/svg" viewBox="0 0 400 400"><defs><style>.cls-1{fill:#fff;}.cls-2{fill:#1d1d1b;}.cls-3{fill:#cfcfcf;}.cls-4{fill:#d9d9d9;}.cls-5{fill:#bfbfbf;}.cls-6{fill:#e6e6e6;}.cls-7{fill:#ccc;}.cls-8{fill:#e8e8e8;}.cls-9{fill:#f2f2f2;}</style></defs><g id="Layer_5" data-name="Layer 5"><path class="cls-1" d="M101,393C94,393,89,389.36,89,384.34a7.09,7.09,0,0,1,1.41-4.25C86.92,377.29,85,373.79,85,370c0-3.69,1.79-7.09,5-9.86A7,7,0,0,1,89,356.33c0-5,5.08-8.66,12.09-8.66h1.88c20.33-52.4,34.9-97.07,42.35-129.87h-.18c-6.49,0-11.2-3.45-11.2-8.2a7.41,7.41,0,0,1,3.93-6.38c-.71-.43-1.44-.87-2.21-1.3H130c-7,0-12.09-3.64-12.09-8.65s5.08-8.66,12.09-8.66h5.88c1.36-.77,2.57-1.52,3.62-2.23-5.31-.69-9-3.87-9-8,0-4.75,4.71-8.2,11.19-8.2h2.44L126,148.56a5,5,0,0,1-.2-7l29.58-31.95a6.77,6.77,0,0,1-1.33-4c0-4.75,4.71-8.2,11.2-8.2h9.6a8.28,8.28,0,0,1,3.69-3.64l2.9-38.3-19.13,1.35c-.38,0-.75,0-1.11,0-6.27,0-9.13-3.57-9.13-6.88V36.55c0-3.32,2.86-6.89,9.12-6.89.37,0,.74,0,1.12,0L180.88,31l-2.4-14.95a6.46,6.46,0,0,1,1.23-5.3A9,9,0,0,1,187,7.61h26a9,9,0,0,1,7.33,3.19,6.42,6.42,0,0,1,1.2,5.29L219.12,31l18.63-1.32c.37,0,.74,0,1.1,0,6.27,0,9.13,3.57,9.13,6.89V49.94c0,3.31-2.86,6.88-9.13,6.88-.36,0-.73,0-1.1,0l-19.14-1.35,2.89,38.3a8.35,8.35,0,0,1,3.7,3.64h9.6c6.49,0,11.2,3.45,11.2,8.2a6.77,6.77,0,0,1-1.33,4l29.58,32a5,5,0,0,1-.2,7l-18.21,17.57h2.43c6.49,0,11.2,3.45,11.2,8.2,0,4.18-3.66,7.36-9,8,1.06.71,2.26,1.46,3.63,2.23H270c7,0,12.08,3.64,12.08,8.66S277,201.92,270,201.92h-5.61c-.76.43-1.5.86-2.2,1.3a7.4,7.4,0,0,1,3.93,6.38c0,4.75-4.71,8.2-11.21,8.2h-.45c8.62,46.67,31.91,103.69,40.9,125.7.63,1.56,1.2,3,1.7,4.17H299c7,0,12.1,3.64,12.1,8.66a7,7,0,0,1-1.1,3.76c3.25,2.77,5,6.17,5,9.86,0,3.84-1.92,7.34-5.35,10.14a7.09,7.09,0,0,1,1.41,4.25c0,5-5.09,8.66-12.1,8.66Z"/><path class="cls-2" d="M213,12.61c2.38,0,4,1.14,3.62,2.51l-3.43,21.33,24.92-1.76.75,0c2.32,0,4.13.79,4.13,1.89V49.94c0,1.1-1.81,1.88-4.13,1.88q-.37,0-.75,0L213.18,50l3.43,45.33a1.66,1.66,0,0,1-.94,1.86c3,.25,5.21,1.56,5.21,3.15a2.53,2.53,0,0,1-1.41,2H234.8c3.42,0,6.2,1.44,6.2,3.2,0,1.38-1.72,2.55-4.11,3L270.58,145l-27.13,26.17h14.82c3.42,0,6.2,1.43,6.2,3.2s-2.78,3.19-6.2,3.19h-8.84c1,4.74,8.92,9.66,13.39,12.09H270c3.92,0,7.09,1.64,7.09,3.66s-3.17,3.65-7.09,3.65h-6.88c-3.57,1.92-9.65,5.59-12.4,9.49h4.2c3.43,0,6.21,1.43,6.21,3.19s-2.78,3.2-6.21,3.2h-6.39c8.81,54.87,40,126.59,45.15,139.87H299c3.93,0,7.1,1.64,7.1,3.66s-3,3.57-6.84,3.64c6.47,2.08,10.78,5.76,10.78,10,0,4.79-5.55,8.9-13.51,10.74H299c3.93,0,7.1,1.64,7.1,3.65S302.89,388,299,388H101c-3.92,0-7.1-1.64-7.1-3.66s3.18-3.65,7.1-3.65h2.48C95.55,378.85,90,374.74,90,370c0-4.22,4.32-7.9,10.78-10-3.79-.07-6.84-1.67-6.84-3.64s3.18-3.66,7.1-3.66h5.3c5.16-13.28,34-86.67,45.14-139.87h-6.39c-3.43,0-6.2-1.43-6.2-3.2s2.77-3.19,6.2-3.19h4.21c-2.74-3.9-8.84-7.57-12.41-9.49H130c-3.92,0-7.09-1.64-7.09-3.65s3.17-3.66,7.09-3.66h7.18c4.46-2.43,12.38-7.35,13.39-12.09h-8.85c-3.42,0-6.19-1.43-6.19-3.19s2.77-3.2,6.19-3.2h14.83L129.43,145l33.69-36.39c-2.39-.45-4.11-1.61-4.11-3,0-1.76,2.77-3.2,6.2-3.2h15.33a2.53,2.53,0,0,1-1.41-2c0-1.59,2.25-2.9,5.21-3.15a1.67,1.67,0,0,1-1-1.86L186.82,50l-24.9,1.76-.76,0c-2.33,0-4.13-.78-4.13-1.88V36.55c0-1.1,1.8-1.89,4.13-1.89l.76,0,24.9,1.76-3.43-21.33c-.36-1.37,1.25-2.51,3.61-2.51h26m0-10H187a13.93,13.93,0,0,0-11.25,5.11A11.4,11.4,0,0,0,173.56,17L175,25.59l-12.33-.88c-.48,0-1-.05-1.46-.05-9.28,0-14.13,6-14.13,11.89V49.94c0,5.9,4.86,11.88,14.13,11.88.48,0,1,0,1.46,0l13.36-1L173.7,91a12.3,12.3,0,0,0-1.48,1.4h-7c-9.24,0-16.2,5.68-16.2,13.2a11.62,11.62,0,0,0,.41,3.08l-27.33,29.52a10,10,0,0,0,.4,14l11.06,10.66c-4.87,2.23-8,6.45-8,11.51a11.58,11.58,0,0,0,1.36,5.48c-8.27,1.07-14,6.4-14,13.46,0,7.69,6.79,13.33,16.28,13.64a11.86,11.86,0,0,0-.31,2.69c0,5.8,4.14,10.5,10.27,12.35-7.55,31.19-21.4,73.36-39.69,120.77-9.09.57-15.53,6.12-15.53,13.61a11.74,11.74,0,0,0,.27,2.53,16.74,16.74,0,0,0,.13,22.35,12.37,12.37,0,0,0-.4,3.13c0,7.92,7.19,13.66,17.1,13.66H299c9.91,0,17.1-5.74,17.1-13.66a12.31,12.31,0,0,0-.4-3.13,16.76,16.76,0,0,0,.14-22.35,12.33,12.33,0,0,0,.26-2.53c0-7.52-6.49-13.08-15.62-13.62-.15-.36-.3-.73-.46-1.1-8.6-21.07-30.38-74.4-39.59-119.53,6.38-1.75,10.73-6.53,10.73-12.48a11.86,11.86,0,0,0-.31-2.69c9.48-.31,16.27-5.95,16.27-13.64,0-7.06-5.71-12.39-14-13.46a11.56,11.56,0,0,0,1.36-5.48c0-5.06-3.14-9.28-8-11.5l11.06-10.67a10,10,0,0,0,.4-14l-27.33-29.52a11.67,11.67,0,0,0,.41-3.08c0-7.52-7-13.2-16.2-13.2h-7a13.09,13.09,0,0,0-1.48-1.4L224,60.82l13.36,1c.49,0,1,0,1.46,0,9.27,0,14.13-6,14.13-11.88V36.55c0-5.91-4.85-11.89-14.13-11.89-.48,0-1,0-1.47.05l-12.32.88L226.44,17a11.39,11.39,0,0,0-2.15-9.24A14,14,0,0,0,213,2.61Z"/><polygon class="cls-3" points="153.35 388 106.34 352.67 196.66 352.67 153.35 388"/><polygon class="cls-4" points="196.66 352.67 221.47 388 153.35 388 196.66 352.67"/><polygon class="cls-5" points="106.34 352.67 196.66 262.81 253.28 352.67 106.34 352.67"/><polygon class="cls-6" points="221.47 388 298.96 352.67 196.66 352.67 221.47 388"/><path class="cls-5" d="M306.06,384.34c0-2-3.17-3.65-7.1-3.65h-2.47c8-1.84,13.51-5.95,13.51-10.74,0-4.22-4.31-7.9-10.78-10,3.81-.07,7.35-1.69,6.84-3.64s-3.92-3.52-6.44-3.82L221.46,388H299C302.89,388,306.06,386.36,306.06,384.34Z"/><polygon class="cls-3" points="293.67 352.67 196.66 262.81 253.28 352.67 293.67 352.67"/><polygon class="cls-7" points="247.81 310.19 278.3 310.19 293.67 352.67 247.81 310.19"/><polygon class="cls-6" points="196.66 262.81 267.95 277.98 247.81 310.19 196.66 262.81"/><polygon class="cls-4" points="247.81 310.19 267.95 277.98 278.3 310.19 247.81 310.19"/><polygon class="cls-1" points="106.34 352.67 173.12 286.23 136.49 262.81 106.34 352.67"/><polygon class="cls-7" points="136.49 262.81 196.66 262.81 173.12 286.23 136.49 262.81"/><polygon class="cls-3" points="196.66 262.81 200 239.66 151.48 212.8 196.66 262.81"/><polygon class="cls-5" points="136.49 262.81 136.49 262.81 196.66 262.81 151.48 212.8 136.49 262.81"/><polygon class="cls-4" points="267.95 277.98 200 239.66 196.66 262.81 267.95 277.98"/><polygon class="cls-6" points="200 239.66 248.52 212.8 267.95 277.98 200 239.66"/><polygon class="cls-6" points="221.78 227.6 178.22 227.6 200 239.66 221.78 227.6"/><path class="cls-5" d="M156.56,171.13l-15.91,28c3.18,2,6.73,4.59,8.65,7.32h-4.21c-3.43,0-6.2,1.43-6.2,3.19s2.77,3.2,6.2,3.2h6.39l26.75,14.8Z"/><polygon class="cls-6" points="221.78 227.6 216.11 196.92 178.23 227.6 221.78 227.6"/><polygon class="cls-4" points="163.92 193.27 216.11 196.92 178.23 227.6 163.92 193.27"/><polygon class="cls-3" points="156.56 171.13 212.57 171.13 163.92 193.27 156.56 171.13"/><polygon class="cls-8" points="216.11 196.92 212.57 171.13 163.92 193.27 216.11 196.92"/><path class="cls-3" d="M248.52,212.8h6.39c3.43,0,6.21-1.43,6.21-3.2s-2.78-3.19-6.21-3.19h-4.2c2.75-3.9,8.83-7.57,12.4-9.49h-47l5.67,30.68Z"/><polygon class="cls-9" points="212.57 171.13 273.81 196.34 216.11 196.92 212.57 171.13"/><path class="cls-3" d="M273.8,196.34c2-.65,3.28-1.78,3.28-3.07,0-2-3.17-3.66-7.09-3.66h-7.17c-4.47-2.43-12.39-7.35-13.39-12.09h8.84c3.42,0,6.2-1.43,6.2-3.19s-2.78-3.2-6.2-3.2h-45.7Z"/><path class="cls-3" d="M130,196.92h6.88c1,.55,2.26,1.25,3.56,2.05l16.11-27.84H141.73c-3.42,0-6.19,1.43-6.19,3.2s2.77,3.19,6.19,3.19h8.85c-1,4.74-8.93,9.66-13.39,12.09H130c-3.92,0-7.09,1.64-7.09,3.66S126.09,196.92,130,196.92Z"/><polygon class="cls-7" points="129.43 144.96 225.9 133.72 156.56 171.13 129.43 144.96"/><polygon class="cls-5" points="243.45 171.13 225.9 133.72 156.56 171.13 243.45 171.13"/><polygon class="cls-8" points="236.89 108.56 225.9 133.72 270.58 144.96 236.89 108.56"/><polygon class="cls-3" points="243.45 171.13 270.58 144.96 225.9 133.72 243.45 171.13"/><polygon class="cls-9" points="236.89 108.56 129.43 144.96 225.9 133.72 236.89 108.56"/><path class="cls-7" d="M161.7,102.94c-1.63.57-2.69,1.54-2.69,2.63,0,1.39,1.72,2.55,4.11,3L129.43,145l107.46-36.39Z"/><path class="cls-8" d="M179.13,100.37a2.53,2.53,0,0,0,1.41,2H165.25l-3.55.57h0l75.19,5.63c2.39-.45,4.11-1.62,4.11-3,0-1.76-2.78-3.2-6.2-3.2H219.47a2.53,2.53,0,0,0,1.41-2c0-1.59-2.26-2.9-5.21-3.15a1.66,1.66,0,0,0,.94-1.86l-.29-42.09-37.16,46.9A1.2,1.2,0,0,0,179.13,100.37Z"/><polygon class="cls-7" points="216.32 53.27 185.67 54.35 183.39 95.36 216.32 53.27"/><polygon class="cls-3" points="185.67 54.35 213.18 36.45 213.18 50.03 216.32 53.27 185.67 54.35"/><path class="cls-7" d="M185.67,54.35l27.51-17.9-55,14.82a7.87,7.87,0,0,0,3.71.52L186.82,50l-1.15,4.32Z"/><path class="cls-5" d="M158.21,51.27l50-13.47-46.26-3.11c-2.69-.19-4.89.64-4.89,1.86V49.94c0,.69.73,1.25,1.84,1.57A5.66,5.66,0,0,1,158.21,51.27Z"/><path class="cls-1" d="M160.51,51.79h0Z"/><path class="cls-1" d="M159.61,51.68c-.19,0-.38-.07-.56-.12C159.23,51.61,159.42,51.64,159.61,51.68Z"/><path class="cls-5" d="M183.39,95.36a1.67,1.67,0,0,0,1,1.86c-3,.25-5.21,1.56-5.21,3.15l37.19-47.1h0L183.43,95.2Z"/><path class="cls-7" d="M242,51.17,213.18,36.45V50l24.92,1.76A7.5,7.5,0,0,0,242,51.17Z"/><path class="cls-3" d="M184.69,13.06c-1,.46-1.52,1.21-1.3,2.06l3.43,21.33,21.36,1.35Z"/><path class="cls-5" d="M208.18,37.8l8.42-23.42c-.27-1-1.68-1.77-3.61-1.77H187a5,5,0,0,0-2.84.75Z"/><path class="cls-1" d="M208.18,37.8l5-1.48,3.39-21.2a8.15,8.15,0,0,0,0-1.1Z"/></g></svg>