<svg xmlns="http://www.w3.org/2000/svg" viewBox="0 0 400 400"><defs><style>.cls-1{fill:#1f1f1f;}.cls-2{fill:#1d1d1b;}.cls-3{fill:#333;}.cls-4{fill:#242424;}.cls-5{fill:#666;}.cls-6{fill:#2e2e2e;}.cls-7{fill:#383838;}.cls-8{fill:#212121;}.cls-9{fill:#1c1c1c;}.cls-10{fill:#4d4d4d;}</style></defs><g id="Strokes"><path class="cls-1" d="M96.08,393.18c-6.66,0-12.08-5-12.08-11.09a10.48,10.48,0,0,1,2.67-6.94,23,23,0,0,1-6.61-15.88,22.74,22.74,0,0,1,6.51-15.82A10.44,10.44,0,0,1,84,336.59c0-6.11,5.42-11.08,12.08-11.08h9.35a40.2,40.2,0,0,1-5.31-34.21c8.55-30.37,47.77-78,82.66-103.53-15.05-1.14-26.32-8.34-34-13.23-3.18-2-7.13-4.55-8.6-4.61-2.44.87-4,4.77-5.74,8.9-2.4,5.8-5.11,12.38-11.83,15.46a17.51,17.51,0,0,1-7.3,1.57c-6.21,0-11.67-3.1-15.07-5.61l-5.09,4.31a5,5,0,0,1-6.7-.22c-.46-.44-11.33-11-17.25-19.27-7-9.87-6.45-38.85,19.74-59.07,2.73-2.11,5.61-4.38,8.63-6.77,22.19-17.5,52.25-41.22,88-51.17A88.92,88.92,0,0,0,184.06,45a5,5,0,0,1,4.33-6.83c.21,0,5.28-.33,12.54-.33,13.76,0,31.94,1.13,43,6.29,3.15-1.47,6.08-2.94,8.73-4.27,7.34-3.67,12.19-6.1,16.18-6.1A7.33,7.33,0,0,1,275.26,37C278,41,277,47.35,270.73,63.07,292.5,79.89,308.18,96.84,314,109.89a5,5,0,0,1-.52,5c-1.11,1.52-2.43,3.25-3.75,4.94l5.59.18a5,5,0,0,1,4.19,2.54c.56,1,13.67,24.66,13.13,58.26a5,5,0,0,1-1.19,3.15,29.22,29.22,0,0,1-6.65,5.58l4.88,2.19a5,5,0,0,1,3,4.56c0,.81-.05,19.94-3.84,33-3.38,11.64-13.45,20.35-17.19,23.26-1.88,5.64-8.69,25.57-16.4,41.76-5.89,12.39-10.55,22.17-10.22,30.81,0,.13,0,.27,0,.4h15.46c6.66,0,12.09,5,12.09,11.08a10.48,10.48,0,0,1-2.57,6.85,22.43,22.43,0,0,1-.11,31.71,10.44,10.44,0,0,1,2.68,6.94c0,6.12-5.43,11.09-12.09,11.09Z"/><path class="cls-2" d="M268.89,38.74c4.54,0,3.83,6.32-4.22,26,26,19.57,40.05,36.64,44.74,47.18-3.64,5-9.88,12.55-9.88,12.55l15.61.51s13,23.09,12.48,55.72c-4.68,5.52-14.56,9-14.56,9l14.56,6.52s0,19.08-3.64,31.63-16.65,21.59-16.65,21.59-7.81,24.1-16.65,42.67c-6.36,13.37-11.08,23.36-10.7,33.15a27.87,27.87,0,0,0,.54,4.52c.05.23.12.46.18.69h19.75c3.92,0,7.09,2.72,7.09,6.08s-3,6-6.84,6.07c6.46,3.46,10.78,9.59,10.78,16.61s-4.43,13.31-11,16.75h0c3.92,0,7.09,2.72,7.09,6.07s-3.17,6.09-7.09,6.09H96.08c-3.91,0-7.08-2.72-7.08-6.09S92.17,376,96.08,376h0c-6.61-3.44-11-9.64-11-16.75s4.31-13.15,10.78-16.61c-3.8-.11-6.84-2.78-6.84-6.07s3.17-6.08,7.08-6.08H116c-7.26-7.62-16.09-19.81-11-37.86,9.89-35.14,64.11-96.11,101-113.17a57.37,57.37,0,0,1-19.1,3.45c-24.58,0-38.77-18-46.74-18a4.59,4.59,0,0,0-1.39.21c-9.36,3-8.32,20.08-18.21,24.6a12.35,12.35,0,0,1-5.22,1.12c-8,0-15.07-7.15-15.07-7.15l-8.32,7S81,180.2,75.28,172.17,70.6,138,94,120s57.76-48.19,99.37-58.23c-2.07-12-4.67-18.58-4.67-18.58s5-.32,12.21-.32c13,0,32.89,1,42.94,6.85,11.84-5.35,20.76-10.93,25-10.93m0-10c-5.17,0-10.44,2.64-18.42,6.63-2,1-4.25,2.13-6.59,3.26-9.69-3.86-24.1-5.81-43-5.81-7.41,0-12.63.33-12.85.34a10,10,0,0,0-8.65,13.68,73.78,73.78,0,0,1,2.28,7.75C147,65.46,118.08,88.27,96.49,105.31Q91.95,108.9,87.9,112C72.55,123.89,66.44,137.8,64,147.38,61,159.32,62.2,171,67.13,178c6.19,8.68,17.38,19.51,17.86,20a10,10,0,0,0,13.39.44l2.26-1.91a29.21,29.21,0,0,0,14.68,4.39,22.36,22.36,0,0,0,9.38-2c8.51-3.89,11.9-12.1,14.37-18.1.59-1.43,1.46-3.54,2.22-4.94,1.45.82,3.3,2,4.8,3,6,3.86,14.21,9.07,24.7,12a296.52,296.52,0,0,0-32.94,31.9c-21.92,24.58-37.42,49.11-42.54,67.31a44.78,44.78,0,0,0,1.21,29.24c.18.45.36.89.55,1.33h-1c-9.42,0-17.08,7.21-17.08,16.08A15.38,15.38,0,0,0,80.4,343a27.26,27.26,0,0,0,.08,32.52A15.23,15.23,0,0,0,79,382.09c0,8.87,7.66,16.09,17.08,16.09H300.45c9.42,0,17.09-7.22,17.09-16.09a15.09,15.09,0,0,0-1.49-6.55,27.22,27.22,0,0,0,.08-32.52,15.26,15.26,0,0,0,1.41-6.43c0-8.87-7.67-16.08-17.09-16.08H290.29c1.11-6.61,4.88-14.52,9.42-24.06,7.27-15.27,13.74-33.77,16.15-40.91,4.83-3.95,14.24-12.87,17.72-24.86,4-13.76,4-33.58,4-34.42a10,10,0,0,0-3.64-7.71c.44-.45.87-.91,1.27-1.39a10,10,0,0,0,2.37-6.3c.56-34.93-13.19-59.75-13.77-60.79a10,10,0,0,0-5.16-4.44,10,10,0,0,0-.14-7.77C312.7,94.69,297.63,78,276.74,61.43c5.23-13.71,6.6-21.42,2.68-27.26a12.43,12.43,0,0,0-10.53-5.43Z"/></g><g id="Layer_5" data-name="Layer 5"><path class="cls-3" d="M89,382.09s0,.07,0,.11l6.46-6.13C91.85,376.34,89,378.92,89,382.09Z"/><path class="cls-3" d="M115.43,330c.18.18.35.37.52.55H96.08c-3.91,0-7.08,2.72-7.08,6.08s3,6,6.84,6.07c-6.47,3.46-10.78,9.59-10.78,16.61s4.27,13.08,10.67,16.55l48-45.31Z"/><path class="cls-4" d="M143.7,330.51,93,374.06a23.48,23.48,0,0,0,3.12,2h0c-3.91,0-7.08,2.72-7.08,6.07s3.17,6.09,7.08,6.09H198.41Z"/><polygon class="cls-5" points="143.71 330.51 280.53 330.95 198.41 388.18 143.71 330.51"/><path class="cls-6" d="M311.49,359.27c0-7-4.33-13.15-10.79-16.61,3.8-.12,6.84-2.78,6.84-6.07s-3.17-6.08-7.09-6.08H280.73L298,388.18h2.42c3.92,0,7.09-2.72,7.09-6.09s-3.17-6.07-7.09-6.07h0C307.05,372.58,311.49,366.38,311.49,359.27Z"/><polygon class="cls-7" points="198.41 388.18 280.74 330.51 298.03 388.18 198.41 388.18"/><path class="cls-8" d="M110.38,278.87a83,83,0,0,0-5.44,13.78c-5.08,18.05,3.75,30.24,11,37.86H143.7Z"/><polygon class="cls-7" points="143.71 330.51 212.12 250.96 221.28 330.51 143.71 330.51"/><polygon class="cls-5" points="110.38 278.87 212.12 250.96 143.71 330.51 110.38 278.87"/><polygon class="cls-8" points="307.34 249.48 221.28 330.51 212.12 250.96 307.34 249.48"/><polygon class="cls-7" points="280.74 330.51 244.42 308.72 221.28 330.51 280.74 330.51"/><path class="cls-5" d="M280.53,329.82a27.89,27.89,0,0,1-.55-4.52c-.37-9.79,4.34-19.78,10.7-33.15,8.85-18.57,16.66-42.67,16.66-42.67l-62.92,59.24,36.27,21.76C280.64,330.26,280.57,330,280.53,329.82Z"/><path class="cls-8" d="M139.7,235.78c-12.54,14.86-23.19,30.34-29.66,43.82l72.45-20.51Z"/><path class="cls-7" d="M202.29,181.3c-19.63,10.27-43.31,31.63-62.59,54.48l42.79,23.31Z"/><polygon class="cls-8" points="212.12 250.96 202.28 181.3 182.49 259.09 212.12 250.96"/><polygon class="cls-9" points="307.34 249.48 254.81 215.39 202.28 181.3 212.12 250.96 307.34 249.48"/><path class="cls-8" d="M324,227.89c2.6-9,3.34-21.27,3.56-27.56l-72.73,15.06,52.53,34.09S320.34,240.44,324,227.89Z"/><polygon class="cls-7" points="202.28 181.3 327.54 200.33 254.81 215.39 202.28 181.3"/><path class="cls-5" d="M197.3,122.55,185,64.06c-23.16,7.21-43.87,20.23-61.45,33.11l38.34,13.18Z"/><path class="cls-10" d="M161.84,110.35,124,96.77c-11.36,8.29-21.43,16.55-30,23.18a61.76,61.76,0,0,0-8.74,8.22l29.11-6.77Z"/><path class="cls-8" d="M75.28,172.17c5.17,7.25,14.55,16.52,16.33,18.26l22.77-69-30.3,8.18C70.46,146.26,70.51,165.48,75.28,172.17Z"/><path class="cls-7" d="M91.93,190.74l8.32-7s10.42,10.55,20.3,6,8.84-21.59,18.21-24.6c3.06-1,7.2,1.66,12.72,5.18l-37.1-48.92L91.26,190.09Z"/><polygon class="cls-8" points="161.84 110.35 146.26 167.11 114.38 121.39 161.84 110.35"/><polygon class="cls-7" points="197.3 122.55 146.26 167.11 161.84 110.35 197.3 122.55"/><path class="cls-9" d="M146.26,167.11c11.07,6.23,29.51,23,59.72,12.37l-8.68-56.93Z"/><path class="cls-10" d="M197.3,122.55l41.83-75c-17.66-6.44-50.42-4.37-50.42-4.37s2.6,6.53,4.68,18.58c-2.85.69-5.66,1.48-8.44,2.34Z"/><path class="cls-8" d="M292.92,89.46a230.23,230.23,0,0,0-28.25-24.72c15.62-38.16,3.64-26.11-20.81-15.07a28.1,28.1,0,0,0-4.16-1.93L219.52,82.69Z"/><polygon class="cls-7" points="197.3 122.55 292.92 89.47 219.52 82.69 197.3 122.55"/><polygon class="cls-1" points="205.98 179.48 299.53 124.47 197.3 122.55 205.98 179.48"/><path class="cls-9" d="M291.22,87.7,197.3,122.55l102.23,1.92s6.24-7.53,9.88-12.55C306.69,105.79,300.78,97.45,291.22,87.7Z"/><polygon class="cls-5" points="202.28 181.3 299.53 124.47 292.92 195.07 202.28 181.3"/><path class="cls-9" d="M315.14,125l-15.61-.51-6.61,70.6,33.13-35.87C322.68,138.39,315.14,125,315.14,125Z"/></g></svg>