<svg xmlns="http://www.w3.org/2000/svg" xmlns:xlink="http://www.w3.org/1999/xlink" viewBox="0 0 400 400"><defs><style>.cls-1{fill:#454545;}.cls-2{fill:#9b9b9b;}.cls-3{fill:#1d1d1b;}.cls-4{fill:#292929;}.cls-5{fill:#1c1c1c;}.cls-6{fill:#1f1f1f;}.cls-7{fill:#363636;}.cls-8{fill:#4a4a4a;}.cls-9{fill:#595959;}.cls-10{fill:#2e2e2e;}.cls-11{clip-path:url(#clip-path);}.cls-12{fill:#3d3d3d;}</style><clipPath id="clip-path"><polygon class="cls-1" points="154.46 183.35 206.12 152.1 246.15 195.63 154.46 183.35"/></clipPath></defs><g id="Strokes"><path class="cls-2" d="M99.52,391.18c-6.11,0-10.73-3.2-10.73-7.45a6.58,6.58,0,0,1,3.33-5.49c-4.84-3.13-7.62-7.37-7.62-12,0-4.41,2.52-8.48,7-11.58a6.36,6.36,0,0,1-2.7-5c0-4.25,4.62-7.46,10.73-7.46h4.22c7.51-14.92,45.61-93.55,47.65-155.82H147.5c-5.57,0-9.76-3-9.76-6.89,0-3.45,3.23-6.16,7.79-6.77a57,57,0,0,0-7.8-5.67h-6.65c-6.12,0-10.73-3.21-10.73-7.46s4.61-7.45,10.73-7.45h7c4.85-3,8.54-6.07,10.63-8.72h-4.83c-5.56,0-9.75-3-9.75-6.89s4.19-6.89,9.75-6.89h18L134.81,88.43a3,3,0,0,1,.67-4l41-31.78a5.8,5.8,0,0,1-2.25-4.49c0-2.65,1.91-4.87,4.87-6a10.37,10.37,0,0,1-2-6.07c0-8.11,10-14.46,22.88-14.46S222.88,27.93,222.88,36a10.37,10.37,0,0,1-2,6.07c3,1.16,4.87,3.37,4.87,6a5.8,5.8,0,0,1-2.25,4.49l11.81,9.15a3,3,0,0,1-.34,5l-36.37,21,11,6.33,36.89-21.25a3,3,0,0,1,3.34.23l14.72,11.4a3,3,0,0,1,.67,4l-27.09,41.16h18c5.56,0,9.76,3,9.76,6.89s-4.2,6.89-9.76,6.89h-4.82c2.09,2.65,5.78,5.7,10.63,8.72h7c6.12,0,10.73,3.2,10.73,7.45S275,167,268.92,167h-6.65a57.26,57.26,0,0,0-7.8,5.67c4.55.61,7.79,3.32,7.79,6.77,0,3.93-4.19,6.89-9.75,6.89h-3.9c2,61.55,38.25,137.2,47.65,155.82h4.22c6.12,0,10.73,3.21,10.73,7.46a6.36,6.36,0,0,1-2.7,5c4.47,3.1,7,7.17,7,11.58,0,4.67-2.78,8.91-7.62,12a6.58,6.58,0,0,1,3.33,5.49c0,4.25-4.61,7.45-10.73,7.45Z"/><path class="cls-3" d="M200,24.58c11,0,19.88,5.13,19.88,11.46,0,3.22-2.31,6.12-6,8.2H216c3.72,0,6.75,1.75,6.75,3.9,0,1.81-2.17,3.32-5.1,3.75l15.83,12.25L192.58,87.68l17,9.8L248,75.37l14.72,11.41-30.14,45.81h23.6c3.74,0,6.76,1.74,6.76,3.89s-3,3.89-6.76,3.89h-9.62c1.09,5.77,9.71,11.76,14.58,14.72h7.81c4.27,0,7.73,2,7.73,4.45s-3.46,4.46-7.73,4.46h-7.49c-3.89,2.33-10.52,6.8-13.5,11.55h4.58c3.72,0,6.75,1.74,6.75,3.89s-3,3.89-6.75,3.89h-7c.89,65.37,42.21,148.77,48.88,161.82h6.06c4.27,0,7.73,2,7.73,4.46S304.9,354,300.75,354c7.05,2.54,11.75,7,11.75,12.16,0,5.83-6.05,10.83-14.72,13.08h2.7c4.27,0,7.73,2,7.73,4.45s-3.46,4.45-7.73,4.45h-201c-4.27,0-7.73-2-7.73-4.45s3.46-4.45,7.73-4.45h2.7C93.55,377,87.5,372,87.5,366.2c0-5.14,4.7-9.62,11.74-12.16-4.13-.09-7.45-2-7.45-4.43s3.46-4.46,7.73-4.46h6.06c6.68-13,48-96.45,48.88-161.82h-7c-3.74,0-6.76-1.74-6.76-3.89s3-3.89,6.76-3.89h4.58c-3-4.75-9.63-9.22-13.51-11.55h-7.5c-4.26,0-7.72-2-7.72-4.46s3.46-4.45,7.72-4.45h7.82c4.87-3,13.49-9,14.58-14.72h-9.63c-3.73,0-6.75-1.74-6.75-3.89s3-3.89,6.75-3.89h23.62L137.31,86.78l45.05-34.89c-2.93-.43-5.1-1.94-5.1-3.75,0-2.15,3-3.9,6.75-3.9h2.14c-3.72-2.08-6-5-6-8.2,0-6.33,8.9-11.46,19.88-11.46m0-6c-14.76,0-25.88,7.51-25.88,17.46a12.85,12.85,0,0,0,1,4.89,8.92,8.92,0,0,0-3.83,7.21,8.33,8.33,0,0,0,1,4L133.64,82a6,6,0,0,0-1.34,8l24,36.52H143.84c-7.27,0-12.75,4.25-12.75,9.89,0,5,4.26,8.86,10.24,9.71q-1.76,1.37-4.15,2.9h-6.11c-7.82,0-13.72,4.49-13.72,10.45S123.25,170,131.07,170h5.8c.88.55,1.72,1.12,2.53,1.68a9.12,9.12,0,0,0-4.66,7.76c0,5.64,5.48,9.89,12.76,9.89h.76c-3,59.11-37.47,131.89-46.38,149.82H99.52c-7.82,0-13.73,4.5-13.73,10.46a8.68,8.68,0,0,0,1.36,4.64A16.21,16.21,0,0,0,81.5,366.2c0,4.65,2.16,8.9,6,12.31a8.78,8.78,0,0,0-1.72,5.22c0,6,5.91,10.45,13.73,10.45h201c7.83,0,13.73-4.49,13.73-10.45a8.83,8.83,0,0,0-1.72-5.23c3.85-3.41,6-7.66,6-12.3a16.21,16.21,0,0,0-5.65-11.95,8.65,8.65,0,0,0,1.36-4.64c0-6-5.9-10.46-13.73-10.46h-2.36c-8.91-17.95-43.34-90.81-46.38-149.82h.77c7.27,0,12.75-4.25,12.75-9.89a9.12,9.12,0,0,0-4.66-7.76c.8-.56,1.65-1.13,2.53-1.68h5.79c7.83,0,13.73-4.5,13.73-10.46s-5.9-10.45-13.73-10.45h-6.09c-1.61-1-3-2-4.16-2.9,6-.85,10.24-4.75,10.24-9.71,0-5.64-5.48-9.89-12.76-9.89H243.68l24-36.52a6,6,0,0,0-1.33-8l-14.73-11.4A6,6,0,0,0,248,69.37a6.1,6.1,0,0,0-3,.8L209.58,90.55l-5-2.86,31.86-18.35a6,6,0,0,0,.68-9.94l-9.4-7.28a8.33,8.33,0,0,0,1-4,8.92,8.92,0,0,0-3.83-7.2,12.9,12.9,0,0,0,1-4.9c0-9.95-11.12-17.46-25.88-17.46Z"/></g><g id="Layer_5" data-name="Layer 5"><path class="cls-4" d="M188.58,26.66c-.78.33-1.53.68-2.22,1.05A20.74,20.74,0,0,1,188.58,26.66Z"/><path class="cls-4" d="M191.07,25.81c-.87.25-1.69.54-2.49.85A22,22,0,0,1,191.07,25.81Z"/><path d="M180.06,53.67l2.3-1.78c-2.93-.43-5.1-1.94-5.1-3.75,0-2.16,3-3.9,6.75-3.9h2.13l17.09-6.09Z"/><path class="cls-5" d="M192.4,25.45c-7.21,1.72-12.28,5.81-12.28,10.59,0,3.22,2.31,6.12,6,8.2l17.08-6.1Z"/><path class="cls-6" d="M200,24.58a32.62,32.62,0,0,0-7.92,1l11.15,12.61,13.84-8C213.6,26.83,207.26,24.58,200,24.58Z"/><polygon class="cls-1" points="192.58 87.68 203.23 38.14 180.06 53.67 137.48 86.64 192.58 87.68"/><polygon class="cls-1" points="155.51 72.68 137.49 86.64 137.48 86.64 155.51 72.68"/><polygon class="cls-6" points="203.23 38.14 233.47 64.14 192.58 87.68 203.23 38.14"/><polygon class="cls-7" points="137.48 86.64 192.58 87.68 167.46 132.58 137.48 86.64"/><polygon class="cls-8" points="247.96 75.37 209.58 97.48 192.58 87.68 192.58 87.68 232.56 132.58 262.69 86.78 247.96 75.37"/><polygon class="cls-1" points="167.46 132.58 232.56 132.58 192.58 87.68 167.46 132.58"/><path class="cls-6" d="M131.08,164h7.48a69.15,69.15,0,0,1,6.27,4.22l61.28-16.12L167.4,132.58H143.85c-3.73,0-6.76,1.75-6.76,3.9s3,3.89,6.76,3.89h9.61c-1.08,5.77-9.7,11.76-14.57,14.72h-7.81c-4.27,0-7.73,2-7.73,4.46S126.81,164,131.08,164Z"/><polygon class="cls-8" points="232.56 132.58 169.38 132.58 206.12 152.1 236.56 132.58 232.56 132.58"/><path class="cls-9" d="M261.53,164h7.39c4.27,0,7.74-2,7.74-4.45s-3.47-4.46-7.74-4.46h-7.81c-4.87-3-13.49-9-14.58-14.72h9.62c3.74,0,6.76-1.74,6.76-3.89s-3-3.9-6.76-3.9H236.56L206.11,152.1Z"/><path class="cls-10" d="M206.11,152.1l-61.28,16.12h0a30.67,30.67,0,0,1,7.25,7.33H147.5c-3.74,0-6.76,1.74-6.76,3.89s3,3.88,6.76,3.88h7v0Z"/><path class="cls-10" d="M246.15,195.63q-.53-6.24-.61-12.31h7c3.73,0,6.75-1.73,6.75-3.88s-3-3.89-6.75-3.89h-4.57c3-4.75,9.6-9.22,13.5-11.55h.09l-55.42-11.9Z"/><polygon class="cls-1" points="154.46 183.35 206.12 152.1 246.15 195.63 154.46 183.35"/><g class="cls-11"><path class="cls-1" d="M308.21,383.72c0,2.47-3.46,4.46-7.74,4.46H99.53c-4.28,0-7.73-2-7.73-4.46s3.45-4.44,7.73-4.44h2.68C93.55,377,87.5,372,87.5,366.2c0-5.14,4.7-9.62,11.74-12.16-4.13-.09-7.44-2-7.44-4.43s3.45-4.46,7.73-4.46h6c6.68-13.06,48-96.45,48.88-161.83h-7c-3.74,0-6.76-1.73-6.76-3.88s3-3.89,6.76-3.89h4.58c-3-4.75-9.62-9.22-13.52-11.55h-7.48c-4.27,0-7.73-2-7.73-4.45s3.46-4.46,7.73-4.46h7.81c4.87-3,13.49-9,14.57-14.72h-9.61c-3.73,0-6.76-1.74-6.76-3.89s3-3.9,6.76-3.9h23.61l-30.14-45.8.17-.14,55.09,1,17,9.8L248,75.37l14.73,11.41-30.13,45.8h23.59c3.74,0,6.76,1.75,6.76,3.9s-3,3.89-6.76,3.89h-9.62c1.09,5.77,9.71,11.76,14.58,14.72h7.81c4.27,0,7.74,2,7.74,4.46s-3.47,4.45-7.74,4.45h-7.48c-3.9,2.33-10.53,6.8-13.5,11.55h4.57c3.73,0,6.75,1.74,6.75,3.89s-3,3.88-6.75,3.88h-7c.89,65.38,42.21,148.77,48.88,161.83h6.05c4.28,0,7.74,2,7.74,4.46s-3.32,4.34-7.45,4.43c7.05,2.54,11.74,7,11.74,12.16,0,5.83-6.05,10.84-14.72,13.08h2.69C304.75,379.28,308.21,381.27,308.21,383.72Z"/></g><path class="cls-6" d="M154.46,183.35h0c-.47,33.61-11.61,72-23.23,103.09l74.88-95.11Z"/><path class="cls-6" d="M256.24,248.29c-4.82-17.19-8.57-35-10-52.08l-40.09-4.87Z"/><polygon class="cls-1" points="256.24 248.29 191.07 268.19 131.23 286.45 206.12 191.34 256.24 248.29"/><polygon class="cls-8" points="192.58 339.71 191.82 303.96 191.07 268.19 131.23 286.45 192.58 339.71"/><polygon class="cls-12" points="256.24 248.29 191.82 303.96 191.07 268.19 256.24 248.29"/><polygon class="cls-1" points="192.58 339.71 283.52 322.3 191.82 303.96 192.58 339.71"/><path class="cls-10" d="M283.53,322.3c-8.29-18.44-19.27-45.32-27.29-74h0L191.82,304Z"/><path class="cls-8" d="M131.23,286.45a588.17,588.17,0,0,1-25.65,58.7H99.52c-4.27,0-7.73,2-7.73,4.46S95.11,354,99.24,354c-7,2.54-11.74,7-11.74,12.16a8.74,8.74,0,0,0,.37,2.44l104.71-28.93Z"/><path class="cls-6" d="M91.79,349.61c0,2.4,3.32,4.34,7.45,4.43-7,2.54-11.74,7-11.74,12.16a8.74,8.74,0,0,0,.37,2.44l50.7-14h0l-33-9.48H99.52C95.25,345.15,91.79,347.15,91.79,349.61Z"/><polygon class="cls-12" points="138.57 354.63 131.23 286.45 192.58 339.71 138.57 354.63"/><polygon class="cls-1" points="138.57 354.63 87.87 368.64 161.15 388.18 138.57 354.63"/><polygon class="cls-8" points="192.58 339.71 207.77 374.84 138.57 354.63 192.58 339.71"/><polygon class="cls-12" points="283.52 322.3 207.77 374.84 192.58 339.71 283.52 322.3"/><polygon class="cls-12" points="161.15 388.18 207.77 374.84 138.57 354.63 161.15 388.18"/><polygon class="cls-6" points="290.35 387.75 207.77 374.84 161.15 388.18 290.35 387.75"/><polygon class="cls-8" points="207.77 374.84 241.47 351.47 290.35 387.75 207.77 374.84"/><path class="cls-12" d="M308.21,383.73c0-2.46-3.46-4.45-7.73-4.45h-2.7a26.48,26.48,0,0,0,10.47-5.08l-39.92-2.79,22,16.35,13.81-.14C306.56,386.86,308.21,385.41,308.21,383.73Z"/><polygon class="cls-1" points="283.52 322.3 268.33 371.41 241.47 351.47 283.52 322.3"/><polygon class="cls-6" points="308.25 374.2 293.39 343.01 283.52 322.3 268.33 371.41 308.25 374.2"/><path class="cls-12" d="M300.75,354c4.15-.09,7.46-2,7.46-4.43s-3.46-4.46-7.73-4.46h-6.06c-.68-1.32,12.75,28.57,12.75,28.57l1.81-.18a10.25,10.25,0,0,0,3.52-7.34C312.5,361.06,307.8,356.58,300.75,354Z"/></g></svg>