<svg xmlns="http://www.w3.org/2000/svg" viewBox="0 0 400 400"><defs><style>.cls-1{fill:#3d3d3d;}.cls-2{fill:#1d1d1b;}.cls-3{fill:#1f1f1f;}.cls-4{fill:#141414;}.cls-5{fill:#404040;}</style></defs><g id="Strokes"><path class="cls-1" d="M91.14,393.18c-7.3,0-12.8-3.95-12.8-9.18a7.48,7.48,0,0,1,1.91-4.95c-4-3.15-6.25-7.12-6.25-11.49,0-4.16,2.08-8,5.82-11.11A7.46,7.46,0,0,1,78.34,352c0-5.23,5.5-9.18,12.8-9.18H93.5c8.31-22.56,45.13-125.38,48-185.2h-1.88c-6.74,0-11.82-3.71-11.82-8.64,0-3.09,2-5.7,5.12-7.22-1.13-.76-2.34-1.52-3.64-2.27H123c-7.42,0-12.8-3.86-12.8-9.18s5.38-9.17,12.8-9.17h6.55a55.58,55.58,0,0,0,5.75-3.82c-6.44-.22-11.23-3.86-11.23-8.64,0-4.94,5.09-8.65,11.83-8.65h10l-28.1-60.19a5,5,0,0,1,4.53-7.12h7.87c1.32-5.87,8.59-10.09,17.94-10.09s16.61,4.22,17.92,10.09h6.31A8.29,8.29,0,0,1,176,28.41a11.12,11.12,0,0,1-1.07-4.73c0-9,10.78-15.74,25.08-15.74s25.08,6.77,25.08,15.74A11,11,0,0,1,224,28.45a8.52,8.52,0,0,1,3.59,4.27h6.32c1.32-5.87,8.58-10.09,17.92-10.09s16.62,4.22,17.94,10.09h7.87a5,5,0,0,1,4.53,7.12L254.06,100h10c6.74,0,11.82,3.71,11.82,8.65,0,4.78-4.78,8.42-11.22,8.64a58.17,58.17,0,0,0,5.74,3.82H277c7.43,0,12.81,3.86,12.81,9.17s-5.38,9.18-12.81,9.18h-6.24c-1.3.75-2.52,1.51-3.65,2.27,3.14,1.52,5.13,4.13,5.13,7.22,0,5-5,8.64-11.82,8.64h-1.87c2.84,59.82,39.65,162.64,48,185.2h2.35c7.3,0,12.81,3.95,12.81,9.18a7.46,7.46,0,0,1-1.48,4.45c3.74,3.1,5.82,6.95,5.82,11.11,0,4.35-2.23,8.32-6.21,11.46a7.61,7.61,0,0,1,1.87,5c0,5.32-5.39,9.18-12.81,9.18Z"/><path class="cls-2" d="M200,12.94c11.09,0,20.08,4.81,20.08,10.74,0,3-2.34,5.75-6.09,7.7h2.16C219.91,31.38,223,33,223,35c0,1.07-.88,2-2.26,2.69H240a4.56,4.56,0,0,1-1.35-3.06c0-3.88,5.88-7,13.13-7s13.15,3.15,13.15,7a4.58,4.58,0,0,1-1.36,3.06h14L246.21,105h17.88c3.77,0,6.82,1.63,6.82,3.65s-3.05,3.64-6.82,3.64h-9.72c1.1,5.42,9.82,11,14.72,13.82H277c4.32,0,7.81,1.86,7.81,4.17s-3.49,4.18-7.81,4.18h-7.57c-3.92,2.19-10.62,6.38-13.64,10.83h4.63c3.76,0,6.82,1.64,6.82,3.66s-3.06,3.64-6.82,3.64h-7c.91,63.1,44,180,49.66,195.2h5.82c4.31,0,7.81,1.87,7.81,4.18s-3.35,4.08-7.52,4.16c7.11,2.38,11.86,6.58,11.86,11.4,0,5.47-6.12,10.17-14.87,12.27h2.72c4.31,0,7.81,1.87,7.81,4.17s-3.5,4.18-7.81,4.18H91.14c-4.3,0-7.8-1.87-7.8-4.18s3.5-4.17,7.8-4.17h2.73C85.11,377.73,79,373,79,367.56c0-4.82,4.75-9,11.86-11.4-4.17-.08-7.52-1.91-7.52-4.16s3.5-4.18,7.8-4.18H97c5.68-15.17,48.75-132.1,49.66-195.2h-7c-3.76,0-6.82-1.63-6.82-3.64s3.06-3.66,6.82-3.66h4.63c-3-4.45-9.72-8.64-13.64-10.83H123c-4.31,0-7.8-1.87-7.8-4.18s3.49-4.17,7.8-4.17h7.89c4.92-2.78,13.62-8.4,14.73-13.82h-9.72c-3.77,0-6.83-1.63-6.83-3.64s3.06-3.65,6.83-3.65h17.88L122.37,37.72h14A4.53,4.53,0,0,1,135,34.66c0-3.88,5.88-7,13.15-7s13.14,3.15,13.14,7A4.54,4.54,0,0,1,160,37.72h19.33C177.91,37.06,177,36.1,177,35c0-2,3.05-3.65,6.82-3.65H186c-3.76-1.95-6.1-4.67-6.1-7.7,0-5.93,9-10.74,20.08-10.74m0-10a40.86,40.86,0,0,0-18.92,4.33c-7.09,3.79-11.16,9.78-11.16,16.41a15.72,15.72,0,0,0,.31,3.15c-.26.29-.51.59-.74.89h0c-3.48-6-11.49-10.09-21.28-10.09-10,0-18,4-21.36,10.09h-4.45A10,10,0,0,0,113.31,42L138.08,95h-2.17c-9.59,0-16.83,5.86-16.83,13.65a12,12,0,0,0,2.61,7.49c-9.49.51-16.48,6.42-16.48,14.14,0,8.08,7.65,14.18,17.8,14.18h.62a12,12,0,0,0-.86,4.49c0,6.82,5.56,12.17,13.4,13.38C131.89,219.42,99.8,310.93,90,337.85c-9.57.44-16.65,6.37-16.65,14.15a12.24,12.24,0,0,0,.45,3.34A18,18,0,0,0,74,380a12.42,12.42,0,0,0-.65,4c0,8.09,7.65,14.18,17.8,14.18H308.85c10.15,0,17.81-6.09,17.81-14.18a12.42,12.42,0,0,0-.65-4,18,18,0,0,0,.2-24.69,12.24,12.24,0,0,0,.45-3.34c0-7.78-7.08-13.71-16.65-14.15-9.82-26.92-41.9-118.44-46.18-175.49,7.83-1.21,13.39-6.56,13.39-13.38a12,12,0,0,0-.86-4.49H277c10.16,0,17.81-6.1,17.81-14.18,0-7.72-7-13.63-16.48-14.14a12,12,0,0,0,2.6-7.49c0-7.79-7.23-13.65-16.82-13.65h-2.18L286.69,42a10,10,0,0,0-9.06-14.23h-4.45c-3.41-6.11-11.36-10.09-21.36-10.09-9.8,0-17.8,4-21.27,10.09h0c-.23-.3-.48-.6-.74-.89a15.72,15.72,0,0,0,.31-3.15c0-6.63-4.07-12.61-11.16-16.41A40.86,40.86,0,0,0,200,2.94Z"/></g><g id="Layer_5" data-name="Layer 5"><polygon class="cls-3" points="129.37 52.71 246.21 105.03 153.79 105.03 129.37 52.71"/><polygon class="cls-4" points="129.37 52.71 173.26 37.73 122.37 37.73 129.37 52.71"/><polygon class="cls-1" points="173.26 37.73 187.79 78.87 129.37 52.71 173.26 37.73"/><path class="cls-5" d="M187.79,78.87,246.21,105l-57-90.38c-5.56,1.91-9.25,5.24-9.25,9,0,3,2.34,5.75,6.1,7.7h-2.17C180.08,31.38,177,33,177,35c0,1.07.88,2,2.25,2.69h-6Z"/><path class="cls-1" d="M263.61,37.72A4.58,4.58,0,0,0,265,34.66c0-3.88-5.88-7-13.15-7s-13.13,3.15-13.13,7A4.56,4.56,0,0,0,240,37.72H220.71C222.09,37.06,223,36.1,223,35c0-2-3.06-3.65-6.82-3.65H214c3.75-1.95,6.09-4.67,6.09-7.7,0-5.93-9-10.74-20.08-10.74a31.18,31.18,0,0,0-13.79,3l60,89.14,31.42-67.31Z"/><polygon class="cls-3" points="220.01 66.1 277.63 37.73 246.21 103.92 220.01 66.1"/><path class="cls-3" d="M153.12,105H135.91c-3.77,0-6.83,1.63-6.83,3.65s3.06,3.64,6.83,3.64h9.72c-1.11,5.42-9.81,11-14.73,13.82H123c-4.31,0-7.8,1.86-7.8,4.17H200Z"/><path class="cls-1" d="M253.37,152.62h7c3.76,0,6.82-1.63,6.82-3.64s-3.06-3.66-6.82-3.66h-4.63c3-4.45,9.72-8.64,13.64-10.83H277c4.32,0,7.81-1.87,7.81-4.18s-3.49-4.17-7.81-4.17h-7.89c-4.9-2.78-13.62-8.4-14.72-13.82h9.72c3.77,0,6.82-1.63,6.82-3.64s-3.05-3.65-6.82-3.65H246.21L200,130.31Z"/><polygon class="cls-1" points="153.12 105.03 205.83 105.03 200 130.31 153.12 105.03"/><polygon class="cls-5" points="246.21 105.03 200 130.31 205.83 105.03 246.21 105.03"/><path class="cls-1" d="M200,130.31H115.21c0,2.31,3.49,4.18,7.8,4.18h7.57c3.92,2.19,10.63,6.38,13.64,10.83h-4.63c-3.76,0-6.82,1.64-6.82,3.66s3.06,3.64,6.82,3.64h7c0,.28,0,.58,0,.86Z"/><polygon class="cls-3" points="200 130.31 216.77 179.98 253.37 152.62 200 130.31"/><polygon class="cls-4" points="146.61 153.48 209.73 159.15 200 130.31 146.61 153.48"/><polygon class="cls-1" points="146.61 153.48 216.77 179.98 209.73 159.15 146.61 153.48"/><path class="cls-3" d="M136.76,218.94l80-39-70.16-26.5C146.23,172.06,142.29,195.17,136.76,218.94Z"/><path class="cls-5" d="M260.7,207.56h0c-4.24-20.05-7.1-39.18-7.33-54.94L216.77,180Z"/><polygon class="cls-5" points="216.77 272.23 216.77 179.98 136.76 218.94 216.77 272.23"/><path class="cls-3" d="M83.34,352l6.9-4.13C86.37,348.11,83.34,349.86,83.34,352Z"/><path class="cls-3" d="M216.77,272.23l-80-53.29h0C124.88,270,105.68,324.12,98.86,342.72Z"/><polygon class="cls-5" points="216.77 272.23 260.7 323.56 157.6 307.6 216.77 272.23"/><polygon class="cls-3" points="282.28 287.32 260.7 323.56 216.77 272.23 282.28 287.32"/><path class="cls-3" d="M282.28,287.32c-7.63-24.16-15.74-52.38-21.42-79L216.77,180Z"/><polygon class="cls-4" points="260.7 323.56 303.03 347.82 282.28 287.32 260.7 323.56"/><polygon class="cls-1" points="99.64 340.59 226.69 318.29 157.6 307.6 99.64 340.59"/><polygon class="cls-3" points="303.03 347.82 226.69 318.29 260.7 323.56 303.03 347.82"/><polygon class="cls-4" points="99.64 340.59 303.03 347.82 226.69 318.29 99.64 340.59"/><path class="cls-4" d="M99.64,340.59c-1.2,3.28-2.11,5.75-2.67,7.23H91.14c-4.3,0-7.8,1.87-7.8,4.18s3.35,4.08,7.53,4.16C83.75,358.54,79,362.74,79,367.56c0,5.47,6.11,10.17,14.87,12.27H91.14c-4.3,0-7.8,1.87-7.8,4.17s3.5,4.18,7.8,4.18h96.65L99.64,340.59Z"/><polygon class="cls-3" points="186.21 343.67 163.16 374.88 99.64 340.59 186.21 343.67"/><polygon class="cls-5" points="186.21 343.67 187.79 388.18 163.16 374.88 186.21 343.67"/><polygon class="cls-3" points="187.79 388.18 277.63 346.92 186.21 343.67 187.79 388.18"/><polygon class="cls-4" points="284.8 388.18 236.29 365.9 187.79 388.18 284.8 388.18"/><path class="cls-4" d="M321,367.56c0-4.82-4.75-9-11.86-11.4,4.17-.08,7.52-1.91,7.52-4.16s-3.5-4.18-7.81-4.18h-4.18l-17.86,40.36h22c4.31,0,7.81-1.87,7.81-4.18s-3.5-4.17-7.81-4.17h-2.72C314.88,377.73,321,373,321,367.56Z"/><polygon class="cls-3" points="277.63 346.92 286.81 388.18 304.67 347.82 277.63 346.92"/><polygon class="cls-5" points="236.29 365.9 277.63 346.92 286.81 388.18 236.29 365.9"/></g></svg>