<svg xmlns="http://www.w3.org/2000/svg" viewBox="0 0 400 400"><defs><style>.cls-1{fill:#ddd;}.cls-2{fill:#1d1d1b;}.cls-3{fill:#dbdbdb;}.cls-4{fill:#b9b9b7;}.cls-5{fill:#f0f0f0;}</style></defs><g id="Strokes"><path class="cls-1" d="M86,393.09c-7.11,0-12.89-5-12.89-11.09a10.23,10.23,0,0,1,3.4-7.49A22.21,22.21,0,0,1,68.72,358a21.83,21.83,0,0,1,7.12-15.85,10.06,10.06,0,0,1-2.72-6.83c0-6.11,5.78-11.08,12.89-11.08H90.7c10.13-13.78,44.13-65.56,46.37-142.2h-2c-6.57,0-11.91-4.63-11.91-10.32,0-4.47,3.13-8.19,7.63-9.65a60.32,60.32,0,0,0-6.64-6.45h-5.87c-7.12,0-12.9-5-12.9-11.09s5.78-11.08,12.9-11.08h6.18a48.8,48.8,0,0,0,9.33-10.13h-9.92c-6.67,0-11.9-4.53-11.9-10.31s5.23-10.32,11.9-10.32H124V45.88a5,5,0,0,1,5-5h22.65a5,5,0,0,1,5,5V64c0,1.13,2.07,2.83,5.18,2.83S167,65.16,167,64V45.88a5,5,0,0,1,5-5h54.05a5,5,0,0,1,5,5V64c0,1.13,2.06,2.83,5.17,2.83s5.18-1.7,5.18-2.83V45.88a5,5,0,0,1,5-5h22.65a5,5,0,0,1,5,5v56.85h2c6.67,0,11.9,4.53,11.9,10.32s-5.23,10.31-11.9,10.31h-9.92a49.31,49.31,0,0,0,9.33,10.13h6.18c7.24,0,12.9,4.86,12.9,11.08s-5.66,11.09-12.9,11.09h-5.88a60.18,60.18,0,0,0-6.63,6.45c4.5,1.46,7.62,5.18,7.62,9.65,0,5.69-5.33,10.32-11.9,10.32h-2c2.23,76.64,36.23,128.42,46.36,142.2h4.68c7.24,0,12.9,4.87,12.9,11.08a10.06,10.06,0,0,1-2.72,6.83A21.83,21.83,0,0,1,331.2,358a22.17,22.17,0,0,1-7.76,16.43A10.23,10.23,0,0,1,326.8,382c0,6.22-5.66,11.09-12.9,11.09Z"/><path class="cls-2" d="M269.09,45.88v61.85h7c3.82,0,6.9,2.38,6.9,5.32s-3.08,5.31-6.9,5.31H258.74c1.11,7.89,9.93,16.08,14.91,20.13h8c4.37,0,7.9,2.72,7.9,6.08s-3.53,6.09-7.9,6.09H274c-4,3.19-10.76,9.3-13.81,15.79h4.69c3.81,0,6.91,2.37,6.91,5.31s-3.1,5.32-6.91,5.32h-7.09c.89,84.65,39.86,140.34,49,152.2h7.17c4.37,0,7.91,2.72,7.91,6.08s-3.39,5.95-7.62,6.06c7.2,3.47,12,9.6,12,16.62,0,8-6.19,14.81-15.05,17.88h2.75c4.37,0,7.91,2.72,7.91,6.08s-3.54,6.09-7.91,6.09H86c-4.35,0-7.89-2.73-7.89-6.09s3.54-6.08,7.89-6.08h2.77C79.91,372.85,73.72,366,73.72,358c0-7,4.81-13.15,12-16.62-4.23-.11-7.61-2.77-7.61-6.06s3.54-6.08,7.89-6.08h7.18c9.11-11.86,48.08-67.55,49-152.2h-7.1c-3.81,0-6.91-2.38-6.91-5.32s3.1-5.31,6.91-5.31h4.68c-3.05-6.49-9.83-12.6-13.8-15.79h-7.67c-4.36,0-7.9-2.73-7.9-6.09s3.54-6.08,7.9-6.08h8c5-4.05,13.79-12.24,14.91-20.13H123.87c-3.82,0-6.9-2.38-6.9-5.31s3.08-5.32,6.9-5.32H129V45.88h22.65V64c0,4.33,4.56,7.83,10.18,7.83S172,68.36,172,64V45.88h54.05V64c0,4.33,4.55,7.83,10.17,7.83s10.18-3.5,10.18-7.83V45.88h22.65m0-10H246.44a10,10,0,0,0-10,10v16h-.35v-16a10,10,0,0,0-10-10H172a10,10,0,0,0-10,10v16h-.35v-16a10,10,0,0,0-10-10H129a10,10,0,0,0-10,10V98.34C112,100.18,107,106,107,113.05c0,8.25,6.85,14.78,15.78,15.28l-.17.16h-4.3c-9.87,0-17.9,7.21-17.9,16.08s8,16.09,17.9,16.09h4l.51.46a14.59,14.59,0,0,0-4.64,10.64c0,7.46,5.92,13.7,13.72,15.05C128.6,256,99.22,303.65,88.14,319.28H86c-9.87,0-17.89,7.21-17.89,16.08a14.64,14.64,0,0,0,1.45,6.39,25.71,25.71,0,0,0,.4,33.13A14.64,14.64,0,0,0,68.12,382c0,8.87,8,16.09,17.89,16.09H313.9c10,0,17.91-7.07,17.91-16.09a14.85,14.85,0,0,0-1.82-7.16,25.72,25.72,0,0,0,.36-33.09,14.65,14.65,0,0,0,1.46-6.39c0-9-7.87-16.08-17.91-16.08h-2.12C300.7,303.65,271.32,256,268,186.81c7.8-1.36,13.72-7.59,13.72-15.05a14.56,14.56,0,0,0-4.65-10.64l.52-.46h4c10,0,17.9-7.07,17.9-16.09s-7.86-16.08-17.9-16.08h-4.3l-.17-.16c8.93-.5,15.78-7,15.78-15.28,0-7.65-5.88-13.82-13.86-15.08V45.88a10,10,0,0,0-10-10Z"/></g><g id="Layer_5" data-name="Layer 5"><path class="cls-3" d="M314.3,388.18c4.26,0,7.69-3.75,7.69-7s-3.43-5.83-7.69-5.83l-2.18.36c8.62-3,13.41-6.73,14.15-16.38a12.17,12.17,0,0,0-.91-5c-15.57,9-46.25,26.85-58.41,33.86Z"/><path class="cls-3" d="M325.7,354.22c-1.39-5.39-5.67-10-11.52-12.8,4.23-.11,7.61-2.77,7.61-6.06s-3.53-6.08-7.9-6.08h-7.17L267.44,388Z"/><polygon class="cls-4" points="306.72 329.28 208.39 329.28 267.44 387.95 306.72 329.28"/><polygon class="cls-3" points="208.76 329.31 135.91 388.09 267.44 387.95 208.76 329.31"/><path class="cls-4" d="M93.64,328.68l-.46.6H86c-4.35,0-7.89,2.72-7.89,6.08s3.38,5.95,7.61,6.06c-6.37,3.07-10.86,8.23-11.81,14.24l36.69,32.43h6.8C111.28,373.11,99.45,344,93.64,328.68Z"/><path class="cls-3" d="M73.9,355.75a14.54,14.54,0,0,0-.19,2.29c0,8,6.19,14.81,15.06,17.88H86c-4.35,0-7.89,2.72-7.89,6.08s3.54,6.09,7.89,6.09h24.91Z"/><polygon class="cls-3" points="93.18 329.28 208.76 329.28 107.98 365.69 93.18 329.28"/><polygon class="cls-5" points="135.91 388.09 107.98 365.69 208.76 329.28 135.91 388.09"/><polygon class="cls-3" points="135.91 388.09 107.98 365.69 117.4 388.09 135.91 388.09"/><path class="cls-4" d="M208.76,329.31,132.34,247.1c-12.4,45-32.88,74-39.16,82.18Z"/><path class="cls-3" d="M280,282.31l-71.31,46.93,98.08,0C302.27,323.49,290.72,307.25,280,282.31Z"/><polygon class="cls-5" points="132.67 247.17 208.71 329.35 279.81 282.31 132.67 247.17"/><path class="cls-3" d="M194.24,262l-54.32-52.69a272.11,272.11,0,0,1-7.31,36.81l.06,1.09Z"/><path class="cls-3" d="M279.89,282.18a269.61,269.61,0,0,1-11.48-32.11L194.24,262l85.57,20.35Z"/><polygon class="cls-5" points="170.61 239.51 244.81 254 194.24 261.96 170.61 239.51"/><polygon class="cls-4" points="139.92 209.27 210.48 196.74 170.61 239.51 139.92 209.27"/><polygon class="cls-3" points="208.27 247.04 210.48 196.74 170.61 239.51 208.27 247.04"/><path class="cls-4" d="M268.41,250.07h0c-1.61-5.6-3.1-11.46-4.43-17.57L244.81,254Z"/><polygon class="cls-3" points="208.27 247.04 263.98 232.5 244.81 254 208.27 247.04"/><polygon class="cls-4" points="210.48 196.74 263.98 232.5 208.27 247.04 210.48 196.74"/><path class="cls-5" d="M264,232.5a273,273,0,0,1-5.73-41.72l-47.77,6L264,232.5Z"/><path class="cls-5" d="M210.48,196.74l-68.32-19.66a275.39,275.39,0,0,1-2.24,32.19h0Z"/><polygon class="cls-3" points="257.75 177.08 210.48 196.74 258.25 190.78 257.75 177.08"/><polygon class="cls-4" points="142.16 177.08 257.75 177.08 210.48 196.74 142.16 177.08"/><polygon class="cls-4" points="178.35 107.73 129.11 45.88 129.03 45.88 129.03 107.73 178.35 107.73"/><path class="cls-5" d="M178.35,107.73l47.73-61.67v-.18H172V64c0,4.33-4.55,7.83-10.17,7.83s-10.18-3.5-10.18-7.83V45.88H129V47Z"/><path class="cls-3" d="M242.84,70a12,12,0,0,1-6.59,1.87c-5.62,0-10.17-3.5-10.17-7.83V45.88h0l-47.73,61.85h90.73Z"/><path class="cls-4" d="M269.08,107.73V45.88H246.43V64a7.24,7.24,0,0,1-3.59,6Z"/><path class="cls-4" d="M129,107.73h-5.17c-3.82,0-6.9,2.38-6.9,5.32s3.08,5.31,6.9,5.31h17.31c-1.12,7.89-9.93,16.08-14.91,20.13h-8c-4.36,0-7.9,2.72-7.9,6.08s3.54,6.09,7.9,6.09h7.67a72.68,72.68,0,0,1,6.85,6.25l52.59-14.31Z"/><polygon class="cls-5" points="269.08 107.73 185.38 142.6 129.03 107.73 269.08 107.73"/><path class="cls-4" d="M274,150.66h7.67c4.37,0,7.9-2.73,7.9-6.09s-3.53-6.08-7.9-6.08h-8c-5-4.05-13.8-12.24-14.91-20.13H276c3.82,0,6.9-2.38,6.9-5.31s-3.08-5.32-6.9-5.32h-7l-83.7,34.87,87,9.33C273,151.47,273.48,151,274,150.66Z"/><path class="cls-3" d="M264.84,177.08c3.81,0,6.9-2.38,6.9-5.32s-3.09-5.31-6.9-5.31h-4.69c2.69-5.72,8.26-11.13,12.27-14.52l-87-9.33,72.37,34.48Z"/><path class="cls-3" d="M132.79,156.91a37.48,37.48,0,0,1,7,9.54h-4.68c-3.81,0-6.91,2.37-6.91,5.31s3.1,5.32,6.91,5.32h7.1l43.22-34.48Z"/><polygon class="cls-3" points="142.16 177.08 257.75 177.08 185.38 142.6 142.16 177.08"/></g></svg>