<svg xmlns="http://www.w3.org/2000/svg" viewBox="0 0 1200 1200"><path d="M909.581 527.018l29.9-15.196a6.513 6.513 0 003.547-6.217c-1.745-27.411-2.298-47.137-2.705-61.542-.366-13.009-.585-20.86-1.434-26.14a6.308 6.308 0 00-.203-.877l-29.07-94.878a6.51 6.51 0 00-5.979-4.599l-29.754-1.122c5.753-8.28 13.906-20.221 19.729-29.579a6.515 6.515 0 00-.057-6.967l-48.624-75.403a6.517 6.517 0 00-2.18-2.088c-6.363-5.429-56.933-57.085-67.419-68.096 1.783-10.75 9.612-50.996 14.665-76.547a6.51 6.51 0 00-1.863-5.944 6.534 6.534 0 00-6.007-1.656l-93.361 21.865c-7.972-.397-76.852-5.661-122.743-9.221-2.044-.172-4.053.661-5.407 2.209a6.523 6.523 0 00-1.459 5.658l11.423 52.868c-9.011 3.69-30.275 11.306-34.153 12.269a6.493 6.493 0 00-2.937 1.008c-44.27 28.425-111.924 71.49-118.961 74.974a6.453 6.453 0 00-2.438 1.465l-138.81 132.313c-2.905 2.301-5.184 10.031-17.37 124.723a6.535 6.535 0 00.922 4.084c15.416 25.205 43.984 57.397 45.192 58.754a6.508 6.508 0 004.647 2.18c1.745.083 3.509-.617 4.78-1.866l19.357-19.045 50.417 17.437a6.509 6.509 0 007.622-2.664l45.627-71.799c5.162 2.454 14.611 7.161 29.426 15.288a6.6 6.6 0 001.945.693l133.8 24.774-79.249 80.357-87.489 85.889c-.416.41-.779.874-1.071 1.379l-79.201 136.7a6.522 6.522 0 00-.833 4.018l7.748 66.53 8.415 84.422h-68.01a6.51 6.51 0 00-5.893 9.275c5.178 11.036 13.133 28.114 16.048 34.636l-26.69 47.928c-3.163 3.134-1.395 6.277 3.865 15.648a3087.145 3087.145 0 0010.181 17.949c5.89 10.327 11.805 20.635 13.995 24.449v36.174a6.51 6.51 0 006.51 6.51h546.171a6.51 6.51 0 006.509-6.509l-.003-36.158 28.651-50.627a6.508 6.508 0 00.022-6.376l-27.011-48.488c2.543-4.841 6.818-14.364 14.901-33.771.826-1.983.62-4.246-.553-6.049s-3.156-2.911-5.305-2.959l-61.542-1.437c9.377-33.74 47.639-168.866 68.932-243.951l54.997-152.557a6.517 6.517 0 00-1.952-7.206l-32.208-26.892zm-50.845 476.838l-39.755 34.948-4.639-68.283 2.242.052 41.956 29.735a6.404 6.404 0 00.196 3.548zm-269.447 133.125L450.396 966.402l353.653 1.348-208.465 169.232h-6.295zM382.959 961.5l-14.988-128.725 73.08 128.725h-58.092zm43.563-515.883l-3.735 5.879-89.163 50.106-.919-.317 35.16-180.645 59.345 124.079a6.767 6.767 0 00-.688.898zm156.322-314.163l74.651 26.651-11.892 33.353-55.212 115.396-9.596-173.705a8.253 8.253 0 002.049-1.695zm100.823-46.739l-24.532 68.794-74.503-26.601 96.713-42.341c.841.055 1.631.105 2.322.148zm46.454-8.996l32.527 55.611c-.342 2.126-.552 3.789-.606 5.098h-.035c-.002.147.01.279.011.416l-109.91 50.903 9.682-27.151a2.405 2.405 0 001.09-.788l65.628-83.712 1.613-.377zM445.51 959.469l-78.988-139.136-1.538-13.215 1.624-2.803 254.963-83.324-137.628 186.422-38.433 52.056zm180.754-236.614L649.852 961.5H450.081l90.445-122.512 85.738-116.133zm-24.781-205.72l23.92 197.455-73.223 23.397 13.772-63.04 34.188-156.495 1.343-1.317zm-58.254 223.763l-172.917 57.024 70.638-121.919 102.279 64.895zm75.718-240.91l1.008-.988c2.328-2.285 2.551-5.879.693-8.444l237.445-162.638c.213.141.453.226.68.341L841.8 539.423l-222.853-39.435zm-4.51-12.114a6.557 6.557 0 00-1.12-.4l-22.044-168.468 262.738 5.765-239.574 163.103zm34.896-292.899l180.185 14.691-236.021 102.01 55.836-116.701zm-64.825 122.566L470.69 458.544l25.002-176.58 88.816 35.577zM465.719 458.833c-.551-.299-1.098-.594-1.634-.883l-93.33-143.548 120.021-32.537-25.057 176.968zM586.8 322.475l21.463 164.014-133.852-24.783L586.8 322.475zm-39.547 415.194L443.74 671.992l150.037-147.293-46.524 212.97zM446.702 969.602l136.288 167.379H416.456l30.246-167.379zm362.305.408c.133.052.278.082.416.125l11.336 166.846H603.331L809.007 970.01zm-150.931-8.51l56.685-62.173 88.935 62.173h-145.62zm54.53-67.055c-.003.004-.008.005-.011.009l-58.157 63.79-23.68-239.551 55.14-1.002 189.146-3.435-.831 2.932-161.607 177.257zm70.44-183.402l-152.818 2.776-24.35-200.999 4.167-4.091 7.735 5.848 122.917 92.927.01.005 134.729 101.856-92.39 1.678zM673.359 550.474l-59.79-45.204 1.1-1.081 116.038 20.533 193.886 34.31-181.874 43.879-69.36-52.437zm181.024-8.824l38.437-11.861c.257.315.516.631.836.897l27.222 22.73-66.495-11.766zm40.497-21.764a6.509 6.509 0 00-3.519 5.073c-.006.058.006.114.002.172l-41.134 12.692 76.649-106.89c.154 3.758.283 8.214.432 13.497.385 13.741.909 32.297 2.457 57.724l-34.887 17.732zm3.643-189.479l27.576 90.002c.119.81.219 1.766.313 2.792l-79.255 110.525 16.449-204.639 34.917 1.32zm-18.159-46.94c-9.643 15.082-23.829 35.043-23.985 35.259-.267.375-.45.787-.629 1.201l-256.039-5.619 235.033-101.584 45.62 70.743zM798.56 176.791c13.431 13.649 21.973 22.245 27.526 27.697l-168.795-13.76 106.581-49.36c.319.23.656.453 1.066.669 3.881 4.53 12.863 13.662 33.622 34.754zm-29.144-81.623c-1.932 10.006-3.846 20.021-5.235 27.554l-.218 1.183-28.865-49.352 40.176-9.409a12023.69 12023.69 0 00-5.858 30.024zM720.91 77.875l-54.336 69.308 22.181-62.206c1.607.05 1.885-.011 2.169-.079l29.986-7.023zm-50.087 5.966l-87.246 38.2-9.85-45.575c52.575 4.073 81.27 6.244 97.096 7.375zm-94.803 51.41l9.048 163.74-43.89-151.095c9.659-2.262 26.726-9.213 34.842-12.645zm-39.26 14.943l46.995 161.787-88.815-35.578-70.538-55.393c10.832-6.164 38.331-23.3 112.358-70.816zm-116.789 73.541l68.407 53.722-122.136 33.11c-.075.021-.148.048-.221.075-.006.003-.014.002-.021.005l-.019.01-.048.016-66.605 28.061 120.643-114.999zM283.074 354.227l6.292-5.998 74.243-31.278-21.124 108.537a2.397 2.397 0 00-1.105.267l-71.735 38.557c4.399-40.909 11.171-100.016 13.429-110.085zM269.429 469.97l68.703-36.927-30.267 85.675-.609.598c-8.347-9.719-26.415-31.353-37.827-49.346zm46.372 40.939l22.397-63.396-10.327 53.058a6.467 6.467 0 00-3.315 1.721l-8.755 8.617zm64.817 6.946l-40.824-14.119 77.456-43.528-36.632 57.647zm51.009-75.222l-46.406-97.026 69.965 107.614c-14.316-7.484-20.376-10.004-20.695-10.133a6.447 6.447 0 00-2.864-.455zm-56.542 527.818c.041 0 .079-.011.121-.013a6.42 6.42 0 001.497.197c.254 0 .505-.013.763-.044 2.511-.293 4.496-1.991 5.324-4.208h59.533l-30.545 169.025-96.753-154.569-.369-.795a5019.953 5019.953 0 00-4.469-9.593h64.898zm-52.642 35.504a4.997 4.997 0 001.139-1.879l29.209 47.106-55.476-.107 25.128-45.12zm-25.256 50.001l59.171.115 50.646 80.91h-.361l-82.208-31.507c-.024-1.07-.246-2.138-.796-3.1-8.383-14.578-20.93-36.523-26.452-46.418zm27.293 54.763l68.522 26.262H324.48v-26.262zm501.173 26.262l-5.472-80.532 37.45 79.008v1.524h-31.978zm31.979-31.362v18.44l-27.306-57.605 27.484 37.791c-.099.451-.178.908-.178 1.374zm2.613-6.33l-38.034-52.296 63.139 7.926-25.105 44.37zm23.903-49.442l-61.546-7.728 38.426-33.778 23.12 41.506zm-23.373-53.94l-35.459-25.13 46.177 1.076c-4.364 10.261-8.649 19.959-10.718 24.054zm-54.296-38.416l-88.401-61.801 153.153-167.983c-46.741 164.843-60.722 214.26-64.752 229.784zm71.49-252.33l-130.213-98.442 181.488-43.787-51.275 142.229z"/></svg>