<svg xmlns="http://www.w3.org/2000/svg" viewBox="0 0 400 400"><defs><style>.cls-1{fill:#5a554d;}.cls-2{fill:#78736c;}.cls-3{fill:none;stroke:#26221f;stroke-linecap:round;stroke-linejoin:round;stroke-width:13px;}</style></defs><g id="Layer_7" data-name="Layer 7"><path class="cls-1" d="M291.88,367.91H108.12c5.2,2.67,14.07,7.78,18.06,13.2H273.83C277.82,375.69,286.69,370.58,291.88,367.91Z"/><path class="cls-1" d="M272,340.92H128c-1.46,6.6-13,13.44-19.49,16.82H291.46C285,354.36,273.43,347.52,272,340.92Z"/><path class="cls-1" d="M280,390c5,0,9-2,9-4.44s-4-4.45-9-4.45H120.05c-5,0-9,2-9,4.45s4,4.44,9,4.44H280Z"/><path class="cls-1" d="M301.91,367.91c5.7,0,10.33-2.27,10.33-5.08s-4.63-5.09-10.33-5.09H98.1c-5.7,0-10.33,2.28-10.33,5.09s4.63,5.08,10.33,5.08H301.91Z"/><path class="cls-1" d="M289.31,332.64H110.7c-2.71.76-4.56,2.19-4.56,3.84,0,2.45,4,4.44,9,4.44H284.83c5,0,9-2,9-4.44C293.87,334.83,292,333.4,289.31,332.64Z"/><path class="cls-2" d="M200,332.64H110.7c-2.71.76-4.56,2.19-4.56,3.84,0,2.45,4,4.44,9,4.44H128c-1.46,6.6-13,13.44-19.49,16.82H98.1c-5.7,0-10.33,2.28-10.33,5.09s4.63,5.08,10.33,5.08h10c5.2,2.67,14.07,7.78,18.06,13.2h-6.13c-5,0-9,2-9,4.45s4,4.44,9,4.44h9.31"/><path class="cls-3" d="M270.65,390H129.36"/><path class="cls-3" d="M291.88,367.91H108.12c5.2,2.67,14.07,7.78,18.06,13.2H273.83C277.82,375.69,286.69,370.58,291.88,367.91Z"/><path class="cls-3" d="M272,340.92H128c-1.46,6.6-13,13.44-19.49,16.82H291.46C285,354.36,273.43,347.52,272,340.92Z"/><path class="cls-3" d="M280,390c5,0,9-2,9-4.44s-4-4.45-9-4.45H120.05c-5,0-9,2-9,4.45s4,4.44,9,4.44H280Z"/><path class="cls-3" d="M301.91,367.91c5.7,0,10.33-2.27,10.33-5.08s-4.63-5.09-10.33-5.09H98.1c-5.7,0-10.33,2.28-10.33,5.09s4.63,5.08,10.33,5.08H301.91Z"/><path class="cls-3" d="M289.31,332.64H110.7c-2.71.76-4.56,2.19-4.56,3.84,0,2.45,4,4.44,9,4.44H284.83c5,0,9-2,9-4.44C293.87,334.83,292,333.4,289.31,332.64Z"/><path class="cls-1" d="M255.61,331.05l45.45-112.73-23.74-30-61.88,58.17L188,220.71l65.92-62-25.51-32.24a11.23,11.23,0,0,1-2.67.35H174.2a11.23,11.23,0,0,1-2.67-.35L98.91,218.32l45.45,112.73Z"/><path class="cls-1" d="M232.05,84.79c0-16.65-14.35-30.15-32.06-30.15s-32.07,13.5-32.07,30.15a29.2,29.2,0,0,0,9.73,21.6h44.67A29.17,29.17,0,0,0,232.05,84.79Z"/><path class="cls-1" d="M225.76,126.86a11.23,11.23,0,0,0,2.67-.35,10.35,10.35,0,0,0,8.22-9.88c0-5.66-4.88-10.24-10.89-10.24H174.2c-6,0-10.88,4.58-10.88,10.24a10.34,10.34,0,0,0,8.21,9.88,11.23,11.23,0,0,0,2.67.35Z"/><path class="cls-3" d="M255.61,331.05l45.45-112.73-23.74-30-61.88,58.17L188,220.71l65.92-62-25.51-32.24a11.23,11.23,0,0,1-2.67.35H174.2a11.23,11.23,0,0,1-2.67-.35L98.91,218.32l45.45,112.73Z"/><path class="cls-3" d="M232.05,84.79c0-16.65-14.35-30.15-32.06-30.15s-32.07,13.5-32.07,30.15a29.2,29.2,0,0,0,9.73,21.6h44.67A29.17,29.17,0,0,0,232.05,84.79Z"/><path class="cls-3" d="M225.76,126.86a11.23,11.23,0,0,0,2.67-.35,10.35,10.35,0,0,0,8.22-9.88c0-5.66-4.88-10.24-10.89-10.24H174.2c-6,0-10.88,4.58-10.88,10.24a10.34,10.34,0,0,0,8.21,9.88,11.23,11.23,0,0,0,2.67.35Z"/></g></svg>