<svg xmlns="http://www.w3.org/2000/svg" viewBox="0 0 400 400"><defs><style>.cls-1{fill:#5a554d;}.cls-2{fill:none;stroke:#26221f;stroke-linecap:round;stroke-linejoin:round;stroke-width:10px;}</style></defs><g id="Layer_7" data-name="Layer 7"><rect class="cls-1" x="164.98" y="166.12" width="70.05" height="0.87"/><path class="cls-1" d="M238.29,233.15H161.71c-1.49,55.88-44.06,88-57.47,96.76H295.76C282.35,321.17,239.78,289,238.29,233.15Z"/><path class="cls-1" d="M257.86,206.15H142.14c4.8,3.27,13,9.5,16.69,16.13h82.35C244.86,215.65,253.06,209.42,257.86,206.15Z"/><path class="cls-1" d="M241.18,177.85H158.83c-3.6,6.46-11.46,12.53-16.3,15.87h115C252.63,190.38,244.77,184.31,241.18,177.85Z"/><path class="cls-1" d="M321,359.3c0-7.17-5.81-13.44-14.52-17l-.34,0H93.87l-.34,0c-8.71,3.54-14.52,9.81-14.52,17,0,8.14,7.48,15.13,18.19,18.27H302.79C313.52,374.43,321,367.44,321,359.3Z"/><path class="cls-1" d="M306.13,377.57H93.87c-5.28,0-9.55,2.78-9.55,6.21S88.59,390,93.87,390H306.13c5.28,0,9.55-2.78,9.55-6.22S311.41,377.57,306.13,377.57Z"/><path class="cls-1" d="M306.13,342.34l.34,0c5.12-.12,9.21-2.83,9.21-6.19s-4.27-6.22-9.55-6.22H93.87c-5.28,0-9.55,2.79-9.55,6.22s4.09,6.07,9.21,6.19l.34,0Z"/><path class="cls-1" d="M246.84,233.15c4.61,0,8.34-2.44,8.34-5.44s-3.73-5.43-8.34-5.43H153.16c-4.61,0-8.34,2.43-8.34,5.43s3.73,5.44,8.34,5.44h93.68Z"/><path class="cls-1" d="M267.13,206.15c5.28,0,9.55-2.79,9.55-6.22s-4.27-6.21-9.55-6.21H132.87c-5.28,0-9.55,2.78-9.55,6.21s4.27,6.22,9.55,6.22H267.13Z"/><path class="cls-1" d="M246.84,177.85c4.61,0,8.34-2.43,8.34-5.43s-3.73-5.44-8.34-5.44H153.16c-4.61,0-8.34,2.44-8.34,5.44s3.73,5.43,8.34,5.43h93.68Z"/><path class="cls-2" d="M238.29,233.15H161.71c-1.49,55.88-44.06,88-57.47,96.76H295.76C282.35,321.17,239.78,289,238.29,233.15Z"/><path class="cls-2" d="M257.86,206.15H142.14c4.8,3.27,13,9.5,16.69,16.13h82.35C244.86,215.65,253.06,209.42,257.86,206.15Z"/><path class="cls-2" d="M241.18,177.85H158.83c-3.6,6.46-11.46,12.53-16.3,15.87h115C252.63,190.38,244.77,184.31,241.18,177.85Z"/><path class="cls-2" d="M321,359.3c0-7.17-5.81-13.44-14.52-17l-.34,0H93.87l-.34,0c-8.71,3.54-14.52,9.81-14.52,17,0,8.14,7.48,15.13,18.19,18.27H302.79C313.52,374.43,321,367.44,321,359.3Z"/><path class="cls-2" d="M306.13,377.57H93.87c-5.28,0-9.55,2.78-9.55,6.21S88.59,390,93.87,390H306.13c5.28,0,9.55-2.78,9.55-6.22S311.41,377.57,306.13,377.57Z"/><path class="cls-2" d="M306.13,342.34l.34,0c5.12-.12,9.21-2.83,9.21-6.19s-4.27-6.22-9.55-6.22H93.87c-5.28,0-9.55,2.79-9.55,6.22s4.09,6.07,9.21,6.19l.34,0Z"/><path class="cls-2" d="M246.84,233.15c4.61,0,8.34-2.44,8.34-5.44s-3.73-5.43-8.34-5.43H153.16c-4.61,0-8.34,2.43-8.34,5.43s3.73,5.44,8.34,5.44h93.68Z"/><path class="cls-2" d="M267.13,206.15c5.28,0,9.55-2.79,9.55-6.22s-4.27-6.21-9.55-6.21H132.87c-5.28,0-9.55,2.78-9.55,6.21s4.27,6.22,9.55,6.22H267.13Z"/><path class="cls-2" d="M246.84,177.85c4.61,0,8.34-2.43,8.34-5.43s-3.73-5.44-8.34-5.44H153.16c-4.61,0-8.34,2.44-8.34,5.44s3.73,5.43,8.34,5.43h93.68Z"/><path class="cls-1" d="M227.48,160.43v0c17.87-6.35,30-18.68,30-32.87,0-20.66-25.74-37.41-57.49-37.41s-57.49,16.75-57.49,37.41c0,14.19,12.12,26.52,30,32.87v0Z"/><rect class="cls-1" x="172.48" y="160.43" width="54.99" height="6"/><path class="cls-2" d="M227.48,160.43v0c17.87-6.35,30-18.68,30-32.87,0-20.66-25.74-37.41-57.49-37.41s-57.49,16.75-57.49,37.41c0,14.19,12.12,26.52,30,32.87v0Z"/><rect class="cls-2" x="172.48" y="160.43" width="54.99" height="6"/></g></svg>