<svg xmlns="http://www.w3.org/2000/svg" viewBox="0 0 400 400"><defs><style>.cls-1{fill:#5a554d;}.cls-2{fill:#78736c;}.cls-3{fill:none;stroke:#26221f;stroke-linecap:round;stroke-linejoin:round;stroke-width:13px;}</style></defs><g id="Layer_7" data-name="Layer 7"><path class="cls-1" d="M281.05,372H222.18A240.77,240.77,0,0,1,172,372H113.47"/><path class="cls-1" d="M175.77,372a263.25,263.25,0,0,0,40.5,0Z"/><path class="cls-2" d="M197.44,375.55a230,230,0,0,1-36.56-3.6H113.46"/><path class="cls-3" d="M281.05,372H222.18A240.77,240.77,0,0,1,172,372H113.47"/><path class="cls-3" d="M175.77,372a263.25,263.25,0,0,0,40.5,0Z"/><path class="cls-1" d="M279.54,390c0-1.5-.07-3-.08-4.52H115.21c0,1.48,0,3-.08,4.52Z"/><path class="cls-1" d="M304.15,340.37H90.52c6,5.45,16.35,15.88,21,27H283.16C287.8,356.25,298.11,345.82,304.15,340.37Z"/><path class="cls-1" d="M281,285.24H113.68C112,298.71,98.58,312.69,91,319.6H303.66C296.1,312.69,282.69,298.71,281,285.24Z"/><path class="cls-1" d="M137.82,92c0-9.66-9.06-17.49-20.23-17.49S97.36,82.38,97.36,92a15.45,15.45,0,0,0,2.1,7.62h36.26A15.45,15.45,0,0,0,137.82,92Z"/><path class="cls-1" d="M297.31,92c0-9.66-9.06-17.49-20.23-17.49S256.85,82.38,256.85,92a15.45,15.45,0,0,0,2.1,7.62h36.26A15.45,15.45,0,0,0,297.31,92Z"/><path class="cls-1" d="M228.24,64.73C228.24,50,214.41,38,197.34,38s-30.9,12-30.9,26.72a25,25,0,0,0,9.38,19.16h43.05A25.06,25.06,0,0,0,228.24,64.73Z"/><path class="cls-1" d="M228.7,99.66h.51a8.56,8.56,0,0,0,3.46-6.7c0-5-4.69-9.07-10.49-9.07H172.49C166.69,83.89,162,88,162,93a8.56,8.56,0,0,0,3.46,6.7H228.7Z"/><polygon class="cls-1" points="295.21 99.66 258.95 99.66 229.21 99.66 228.7 99.66 165.97 99.66 165.46 99.66 135.72 99.66 99.46 99.66 77.89 99.66 126.23 267.09 268.44 267.09 316.78 99.66 295.21 99.66"/><path class="cls-1" d="M290.28,385.48c5.79,0,10.49-4.06,10.49-9.07s-4.7-9.08-10.49-9.08H104.4c-5.8,0-10.5,4.07-10.5,9.08s4.7,9.07,10.5,9.07H290.28Z"/><path class="cls-1" d="M315.79,340.37c6.64,0,12-4.65,12-10.39s-5.37-10.38-12-10.38H78.88c-6.64,0-12,4.64-12,10.38s5.37,10.39,12,10.39H315.79Z"/><path class="cls-1" d="M296,285.24c5.8,0,10.5-4.07,10.5-9.08s-4.7-9.07-10.5-9.07H98.72c-5.8,0-10.5,4.06-10.5,9.07s4.7,9.08,10.5,9.08H296Z"/><path class="cls-3" d="M304.15,340.37H90.52c6,5.45,16.35,15.88,21,27H283.16C287.8,356.25,298.11,345.82,304.15,340.37Z"/><path class="cls-3" d="M281,285.24H113.68C112,298.71,98.58,312.69,91,319.6H303.66C296.1,312.69,282.69,298.71,281,285.24Z"/><path class="cls-3" d="M137.82,92c0-9.66-9.06-17.49-20.23-17.49S97.36,82.38,97.36,92a15.45,15.45,0,0,0,2.1,7.62h36.26A15.45,15.45,0,0,0,137.82,92Z"/><path class="cls-3" d="M297.31,92c0-9.66-9.06-17.49-20.23-17.49S256.85,82.38,256.85,92a15.45,15.45,0,0,0,2.1,7.62h36.26A15.45,15.45,0,0,0,297.31,92Z"/><path class="cls-3" d="M228.24,64.73C228.24,50,214.41,38,197.34,38s-30.9,12-30.9,26.72a25,25,0,0,0,9.38,19.16h43.05A25.06,25.06,0,0,0,228.24,64.73Z"/><path class="cls-3" d="M228.7,99.66h.51a8.56,8.56,0,0,0,3.46-6.7c0-5-4.69-9.07-10.49-9.07H172.49C166.69,83.89,162,88,162,93a8.56,8.56,0,0,0,3.46,6.7H228.7Z"/><polygon class="cls-3" points="295.21 99.66 258.95 99.66 229.21 99.66 228.7 99.66 165.97 99.66 165.46 99.66 135.72 99.66 99.46 99.66 77.89 99.66 126.23 267.09 268.44 267.09 316.78 99.66 295.21 99.66"/><path class="cls-3" d="M290.28,385.48c5.79,0,10.49-4.06,10.49-9.07s-4.7-9.08-10.49-9.08H104.4c-5.8,0-10.5,4.07-10.5,9.08s4.7,9.07,10.5,9.07H290.28Z"/><path class="cls-3" d="M315.79,340.37c6.64,0,12-4.65,12-10.39s-5.37-10.38-12-10.38H78.88c-6.64,0-12,4.64-12,10.38s5.37,10.39,12,10.39H315.79Z"/><path class="cls-3" d="M296,285.24c5.8,0,10.5-4.07,10.5-9.08s-4.7-9.07-10.5-9.07H98.72c-5.8,0-10.5,4.06-10.5,9.07s4.7,9.08,10.5,9.08H296Z"/></g></svg>