<svg xmlns="http://www.w3.org/2000/svg" viewBox="0 0 400 400"><defs><style>.cls-1{fill:#5a554d;stroke:#26221f;stroke-linejoin:round;stroke-width:10px;}</style></defs><g id="Layer_7" data-name="Layer 7"><path class="cls-1" d="M329.7,328.3H64.11a4,4,0,0,1-2.42-.67.78.78,0,0,1,0-1.33c12.5-10.63,41.1-68.06,42.51-155,0-.74,1.26-1.33,2.8-1.33H288c1.54,0,2.79.59,2.8,1.33,1.41,86.94,28.82,144.38,41.33,155a.78.78,0,0,1,0,1.33A4,4,0,0,1,329.7,328.3ZM66.81,325.61H328c-16.48-14.63-40.83-70.56-42.76-153H109.76C107.84,255.06,83.3,311,66.81,325.61Z"/><path class="cls-1" d="M315.91,144.26H84.08c6.23,3.28,16.85,9.52,21.63,16.15H294.29C299.07,153.78,309.69,147.54,315.91,144.26Z"/><path class="cls-1" d="M302.82,120.93H93.68c-1.25,8.08-7.36,16.45-12.93,20.59H319.5C313.93,137.38,304.07,129,302.82,120.93Z"/><path class="cls-1" d="M341.22,356.38c0-7.18-5.38-13.46-13.43-17l-.32,0H72.53l-.32,0c-8,3.54-13.43,9.82-13.43,17,0,8.15,6.92,15.15,16.84,18.28H324.38C334.3,371.53,341.22,364.53,341.22,356.38Z"/><path class="cls-1" d="M324.38,376H75.62a2.91,2.91,0,0,1-.85-.13c-10.93-3.46-18-11.11-18-19.5,0-7.4,5.36-14.18,14.34-18.13a2.77,2.77,0,0,1,1.19-.21l.36,0h254.8s.1,0,.22,0a2.63,2.63,0,0,1,1.19.21c9,3.95,14.34,10.73,14.34,18.13,0,8.39-7.06,16-18,19.5A2.91,2.91,0,0,1,324.38,376Zm-248.3-2.69H323.92c9.31-3.07,15.3-9.69,15.3-16.94,0-6.34-4.47-12.15-12-15.63H72.77c-7.52,3.48-12,9.29-12,15.63C60.78,363.63,66.77,370.25,76.08,373.32Z"/><path class="cls-1" d="M327.47,374.66H72.53c-4.88,0-8.84,2.79-8.84,6.23s4,6.22,8.84,6.22H327.47c4.88,0,8.84-2.79,8.84-6.22S332.35,374.66,327.47,374.66Z"/><path class="cls-1" d="M327.47,388.45H72.53c-6,0-10.84-3.39-10.84-7.56s4.86-7.57,10.84-7.57H327.47c6,0,10.84,3.39,10.84,7.57S333.45,388.45,327.47,388.45ZM72.53,376c-3.77,0-6.84,2.19-6.84,4.88s3.07,4.87,6.84,4.87H327.47c3.77,0,6.83-2.18,6.83-4.87s-3.06-4.88-6.83-4.88Z"/><path class="cls-1" d="M327.47,339.4l.32,0c4.73-.12,8.52-2.84,8.52-6.2s-4-6.22-8.84-6.22H72.53c-4.88,0-8.84,2.78-8.84,6.22s3.79,6.08,8.52,6.2l.32,0Z"/><path class="cls-1" d="M327.47,340.75H72.53l-.48,0c-5.77-.15-10.36-3.46-10.36-7.54s4.86-7.57,10.84-7.57H327.47c6,0,10.84,3.4,10.84,7.57s-4.59,7.4-10.45,7.54A1.85,1.85,0,0,1,327.47,340.75ZM72.53,328.3c-3.77,0-6.84,2.19-6.84,4.88s2.9,4.76,6.6,4.86l.38,0H327.38l.31,0c3.72-.1,6.61-2.23,6.61-4.86s-3.06-4.88-6.83-4.88Z"/><path class="cls-1" d="M301.63,171.29c6,0,10.81-2.43,10.81-5.44s-4.84-5.44-10.81-5.44H98.38c-6,0-10.82,2.44-10.82,5.44s4.84,5.44,10.82,5.44H301.63Z"/><path class="cls-1" d="M285.12,111.23c4.27,0,7.73-2.43,7.73-5.43s-3.46-5.44-7.73-5.44H114.88c-4.27,0-7.73,2.43-7.73,5.44s3.46,5.43,7.73,5.43H285.12Z"/><path class="cls-1" d="M285.12,112.58H114.88c-5.36,0-9.73-3-9.73-6.78S109.52,99,114.88,99H285.12c5.36,0,9.73,3,9.73,6.79S290.48,112.58,285.12,112.58ZM114.88,101.7c-3.16,0-5.72,1.84-5.72,4.1s2.56,4.09,5.72,4.09H285.12c3.16,0,5.72-1.84,5.72-4.09s-2.56-4.1-5.72-4.1Z"/><path class="cls-1" d="M327.47,389H72.53c-6.42,0-11.64-3.64-11.64-8.1s5.22-8.11,11.64-8.11H327.47c6.42,0,11.64,3.64,11.64,8.11S333.89,389,327.47,389ZM72.53,376.54c-3.33,0-6,1.95-6,4.35s2.71,4.34,6,4.34H327.47c3.33,0,6-2,6-4.34s-2.71-4.35-6-4.35Z"/><path class="cls-1" d="M327.47,341.28H72.53l-.61,0c-6.1-.15-11-3.7-11-8.07s5.22-8.1,11.64-8.1H327.47c6.42,0,11.64,3.63,11.64,8.1s-4.93,7.92-11.22,8.08ZM72.53,328.84c-3.33,0-6,2-6,4.34s2.56,4.24,5.83,4.32l.47,0H327.33l.31,0c3.31-.08,5.87-2,5.87-4.32s-2.71-4.34-6-4.34Z"/><path class="cls-1" d="M285.12,113.11H114.88c-5.8,0-10.53-3.28-10.53-7.31s4.73-7.32,10.53-7.32H285.12c5.8,0,10.53,3.28,10.53,7.32S290.92,113.11,285.12,113.11ZM114.88,102.24c-2.72,0-4.93,1.59-4.93,3.56s2.21,3.55,4.93,3.55H285.12c2.72,0,4.93-1.59,4.93-3.55s-2.21-3.56-4.93-3.56Z"/><path class="cls-1" d="M75.09,373.9H322.91c9.31-3.18,15.31-10,15.31-17.56,0-6.58-4.48-12.6-12-16.21H71.79c-7.53,3.61-12,9.63-12,16.21C59.78,363.86,65.77,370.72,75.09,373.9Z"/><path class="cls-1" d="M326.47,375.25H71.53c-4.88,0-8.84,2.88-8.84,6.43s4,6.44,8.84,6.44H326.47c4.88,0,8.84-2.88,8.84-6.44S331.35,375.25,326.47,375.25Z"/><path class="cls-1" d="M326.47,389.46H71.53c-6,0-10.84-3.49-10.84-7.78s4.86-7.78,10.84-7.78H326.47c6,0,10.84,3.49,10.84,7.78S332.44,389.46,326.47,389.46ZM71.53,376.59c-3.77,0-6.84,2.29-6.84,5.09s3.07,5.1,6.84,5.1H326.47c3.77,0,6.83-2.29,6.83-5.1s-3.06-5.09-6.83-5.09Z"/><path class="cls-1" d="M326.47,338.78l.32,0c4.73-.12,8.52-2.94,8.52-6.41s-4-6.44-8.84-6.44H71.53c-4.88,0-8.84,2.89-8.84,6.44s3.79,6.29,8.52,6.41l.32,0Z"/><path class="cls-1" d="M326.47,340.13H71.53l-.51,0c-5.74-.15-10.33-3.56-10.33-7.75s4.86-7.78,10.84-7.78H326.47c6,0,10.84,3.49,10.84,7.78s-4.59,7.6-10.45,7.75A1.67,1.67,0,0,1,326.47,340.13ZM71.53,327.26c-3.77,0-6.84,2.28-6.84,5.09s2.9,5,6.6,5.07l.39,0h254.7l.25,0c3.78-.1,6.67-2.32,6.67-5.07s-3.06-5.09-6.83-5.09Z"/><path class="cls-1" d="M326.47,390H71.53c-6.42,0-11.64-3.73-11.64-8.32s5.22-8.31,11.64-8.31H326.47c6.42,0,11.64,3.73,11.64,8.31S332.89,390,326.47,390Z"/><path class="cls-1" d="M326.47,340.66H71.53l-.64,0c-6.07-.16-11-3.8-11-8.28S65.11,324,71.53,324H326.47c6.42,0,11.64,3.74,11.64,8.32s-4.93,8.13-11.22,8.29A2.35,2.35,0,0,1,326.47,340.66Z"/><path class="cls-1" d="M249.62,100a10.16,10.16,0,0,1-.4-1.58H148.78a10.16,10.16,0,0,1-.4,1.58Z"/><path class="cls-1" d="M249.62,101.37H148.38a2.47,2.47,0,0,1-1.56-.5,1,1,0,0,1-.39-1.13,11,11,0,0,0,.36-1.42c.1-.69,1-1.21,2-1.21H249.22c1,0,1.89.52,2,1.21a11,11,0,0,0,.36,1.42,1,1,0,0,1-.39,1.13A2.47,2.47,0,0,1,249.62,101.37Z"/><path class="cls-1" d="M301.16,55.19h-33.3V73.62c0,4.39-6.7,7.95-15,7.95S238,78,238,73.62V55.19H158.52V73.62c0,4.39-6.7,7.95-15,7.95s-15-3.56-15-7.95V55.19H95.32V118H301.16Z"/></g></svg>