<svg xmlns="http://www.w3.org/2000/svg" viewBox="0 0 400 400"><defs><style>.cls-1{fill:#5a554d;}.cls-2{fill:none;stroke:#26221f;stroke-linecap:round;stroke-linejoin:round;stroke-width:13px;}</style></defs><g id="Layer_7" data-name="Layer 7"><path class="cls-1" d="M317,365.59H83c6.61,3,17.91,8.59,23,14.59H294C299.12,374.18,310.41,368.54,317,365.59Z"/><path class="cls-1" d="M291.66,335.75H108.35c-1.87,7.29-16.55,14.86-24.83,18.6h233C308.21,350.61,293.52,343,291.66,335.75Z"/><path class="cls-1" d="M330.87,270.31l-62.47-56a26.2,26.2,0,0,1-3.87.3H135.47a26.17,26.17,0,0,1-3.86-.3l-62.47,56,50.3,55.62H280.57Z"/><path class="cls-1" d="M264.53,214.64a26.2,26.2,0,0,0,3.87-.3c4.44-.69,7.63-2.48,7.63-4.61,0-2.71-5.15-4.91-11.5-4.91H135.47c-6.34,0-11.49,2.2-11.49,4.91,0,2.13,3.19,3.93,7.63,4.61a26.17,26.17,0,0,0,3.86.3Z"/><path class="cls-1" d="M172.78,194.71c-.62,0-1.23,0-1.83.08-5.48.38-9.66,2.39-9.66,4.84,0,2.71,5.14,4.91,11.49,4.91h54.44c6.36,0,11.5-2.2,11.5-4.91,0-2.45-4.19-4.46-9.66-4.84-.6,0-1.21-.08-1.84-.08Z"/><path class="cls-1" d="M301.83,390c6.35,0,11.5-2.2,11.5-4.91s-5.15-4.91-11.5-4.91H98.17c-6.35,0-11.5,2.2-11.5,4.91S91.82,390,98.17,390H301.83Z"/><path class="cls-1" d="M329.8,365.59c7.26,0,13.15-2.52,13.15-5.62s-5.89-5.62-13.15-5.62H70.22c-7.28,0-13.16,2.51-13.16,5.62s5.88,5.62,13.16,5.62H329.8Z"/><path class="cls-1" d="M308.05,335.75c6.36,0,11.5-2.2,11.5-4.91s-5.14-4.91-11.5-4.91H92c-6.35,0-11.49,2.2-11.49,4.91s5.14,4.91,11.49,4.91h216.1Z"/><path class="cls-2" d="M290,390H110"/><path class="cls-2" d="M317,365.59H83c6.61,3,17.91,8.59,23,14.59H294C299.12,374.18,310.41,368.54,317,365.59Z"/><path class="cls-2" d="M291.66,335.75H108.35c-1.87,7.29-16.55,14.86-24.83,18.6h233C308.21,350.61,293.52,343,291.66,335.75Z"/><path class="cls-2" d="M330.87,270.31l-62.47-56a26.2,26.2,0,0,1-3.87.3H135.47a26.17,26.17,0,0,1-3.86-.3l-62.47,56,50.3,55.62H280.57Z"/><path class="cls-2" d="M264.53,214.64a26.2,26.2,0,0,0,3.87-.3c4.44-.69,7.63-2.48,7.63-4.61,0-2.71-5.15-4.91-11.5-4.91H135.47c-6.34,0-11.49,2.2-11.49,4.91,0,2.13,3.19,3.93,7.63,4.61a26.17,26.17,0,0,0,3.86.3Z"/><path class="cls-2" d="M172.78,194.71c-.62,0-1.23,0-1.83.08-5.48.38-9.66,2.39-9.66,4.84,0,2.71,5.14,4.91,11.49,4.91h54.44c6.36,0,11.5-2.2,11.5-4.91,0-2.45-4.19-4.46-9.66-4.84-.6,0-1.21-.08-1.84-.08Z"/><path class="cls-2" d="M301.83,390c6.35,0,11.5-2.2,11.5-4.91s-5.15-4.91-11.5-4.91H98.17c-6.35,0-11.5,2.2-11.5,4.91S91.82,390,98.17,390H301.83Z"/><path class="cls-2" d="M329.8,365.59c7.26,0,13.15-2.52,13.15-5.62s-5.89-5.62-13.15-5.62H70.22c-7.28,0-13.16,2.51-13.16,5.62s5.88,5.62,13.16,5.62H329.8Z"/><path class="cls-2" d="M308.05,335.75c6.36,0,11.5-2.2,11.5-4.91s-5.14-4.91-11.5-4.91H92c-6.35,0-11.49,2.2-11.49,4.91s5.14,4.91,11.49,4.91h216.1Z"/><line class="cls-2" x1="69.14" y1="270.31" x2="286.35" y2="270.31"/><path class="cls-1" d="M110.56,133.24l58.56-6-8.06,43.58a6.66,6.66,0,0,0,2.22,6.31,19.63,19.63,0,0,1,2.32-.17h69a20,20,0,0,1,2.33.17,6.61,6.61,0,0,0,2.21-6.31l-8.06-43.58,58.57,6c6.28.64,11.46-2.18,11.46-6.32V81.46c0-4.14-5.18-7-11.46-6.31l-58.57,6,8.06-43.57c.87-4.66-2.94-8.52-8.5-8.52h-61.1c-5.57,0-9.35,3.86-8.5,8.52l8.06,43.57-58.56-6c-6.29-.65-11.47,2.17-11.47,6.31v45.46C99.09,131.06,104.27,133.88,110.56,133.24Z"/><path class="cls-1" d="M281.91,221a19,19,0,0,0,4.92-.67c5.62-1.51,9.66-5.48,9.66-10.17,0-6-6.53-10.85-14.58-10.85H118.3c-8,0-14.58,4.86-14.58,10.85,0,4.7,4,8.66,9.68,10.17a18.89,18.89,0,0,0,4.9.67Z"/><path class="cls-1" d="M165.6,177a19.63,19.63,0,0,0-2.32.17c-6.94.84-12.25,5.28-12.25,10.68,0,6,6.51,10.85,14.57,10.85h69c8,0,14.58-4.87,14.58-10.85,0-5.4-5.31-9.84-12.25-10.68a20,20,0,0,0-2.33-.17Z"/><path class="cls-2" d="M110.56,133.24l58.56-6-8.06,43.58a6.66,6.66,0,0,0,2.22,6.31,19.63,19.63,0,0,1,2.32-.17h69a20,20,0,0,1,2.33.17,6.61,6.61,0,0,0,2.21-6.31l-8.06-43.58,58.57,6c6.28.64,11.46-2.18,11.46-6.32V81.46c0-4.14-5.18-7-11.46-6.31l-58.57,6,8.06-43.57c.87-4.66-2.94-8.52-8.5-8.52h-61.1c-5.57,0-9.35,3.86-8.5,8.52l8.06,43.57-58.56-6c-6.29-.65-11.47,2.17-11.47,6.31v45.46C99.09,131.06,104.27,133.88,110.56,133.24Z"/><path class="cls-2" d="M281.91,221a19,19,0,0,0,4.92-.67c5.62-1.51,9.66-5.48,9.66-10.17,0-6-6.53-10.85-14.58-10.85H118.3c-8,0-14.58,4.86-14.58,10.85,0,4.7,4,8.66,9.68,10.17a18.89,18.89,0,0,0,4.9.67Z"/><path class="cls-2" d="M165.6,177a19.63,19.63,0,0,0-2.32.17c-6.94.84-12.25,5.28-12.25,10.68,0,6,6.51,10.85,14.57,10.85h69c8,0,14.58-4.87,14.58-10.85,0-5.4-5.31-9.84-12.25-10.68a20,20,0,0,0-2.33-.17Z"/></g></svg>