<svg xmlns="http://www.w3.org/2000/svg" viewBox="0 0 400 400"><defs><style>.cls-1{fill:#5a554d;}.cls-2{fill:none;stroke:#26221f;stroke-linecap:round;stroke-linejoin:round;stroke-width:13px;}</style></defs><g id="Layer_7" data-name="Layer 7"><path class="cls-1" d="M82.92,191.44l9-6.95s11.28,10.43,22,6,9.58-21.34,19.72-24.32,31.15,27.56,72.83,14.17c-40,16.88-98.75,77.15-109.46,111.89-5.9,19.13,5.52,31.61,13.59,39H287.85c-3.88-12,1.9-23.21,10.38-39.48,9.58-18.36,18-42.18,18-42.18s14.09-8.94,18-21.34,3.95-31.27,3.95-31.27l-15.79-6.45s10.71-3.48,15.79-8.94c.56-32.25-13.53-55.09-13.53-55.09l-16.91-.49s6.76-7.45,10.7-12.41c-5.07-10.42-20.29-27.3-48.47-46.65C287,29.15,274,41.06,247.5,52c-16.91-8.93-59.74-6.45-59.74-6.45s2.82,6.45,5.07,18.36c-45.09,9.93-82.29,39.7-107.66,57.57s-26.49,43.68-20.29,51.62S82.92,191.44,82.92,191.44Z"/><path class="cls-1" d="M89.6,377.79h217c8.35-3.12,14.14-9.77,14.14-17.49,0-7.19-5-13.45-12.44-16.8H87.91c-7.43,3.35-12.44,9.61-12.44,16.8C75.47,368,81.25,374.67,89.6,377.79Z"/><path class="cls-1" d="M316.5,384c0,3.32-3.44,6-7.68,6H87.41c-4.24,0-7.67-2.69-7.67-6h0c0-3.33,3.43-6,7.67-6H308.82c4.24,0,7.68,2.69,7.68,6Z"/><path class="cls-1" d="M316.5,337.88c0,3.32-3.44,6-7.68,6H87.41c-4.24,0-7.67-2.69-7.67-6h0c0-3.33,3.43-6,7.67-6H308.82c4.24,0,7.68,2.69,7.68,6Z"/><path class="cls-1" d="M195.69,90.79l22.62,11.56s-15.74,9.24-46.23,3.08"/><path class="cls-1" d="M264.54,142.41s-21.71,31.87-58.07,37.89"/><path class="cls-1" d="M280.71,97.72s48.2,56.25,28.53,137.14"/><path class="cls-1" d="M97.33,296.5s150.49,12.33,150.49-106.32"/><path class="cls-2" d="M82.92,191.44l9-6.95s11.28,10.43,22,6,9.58-21.34,19.72-24.32,31.15,27.56,72.83,14.17c-40,16.88-98.75,77.15-109.46,111.89-5.9,19.13,5.52,31.61,13.59,39H287.85c-3.88-12,1.9-23.21,10.38-39.48,9.58-18.36,18-42.18,18-42.18s14.09-8.94,18-21.34,3.95-31.27,3.95-31.27l-15.79-6.45s10.71-3.48,15.79-8.94c.56-32.25-13.53-55.09-13.53-55.09l-16.91-.49s6.76-7.45,10.7-12.41c-5.07-10.42-20.29-27.3-48.47-46.65C287,29.15,274,41.06,247.5,52c-16.91-8.93-59.74-6.45-59.74-6.45s2.82,6.45,5.07,18.36c-45.09,9.93-82.29,39.7-107.66,57.57s-26.49,43.68-20.29,51.62S82.92,191.44,82.92,191.44Z"/><path class="cls-2" d="M89.6,377.79h217c8.35-3.12,14.14-9.77,14.14-17.49,0-7.19-5-13.45-12.44-16.8H87.91c-7.43,3.35-12.44,9.61-12.44,16.8C75.47,368,81.25,374.67,89.6,377.79Z"/><path class="cls-2" d="M316.5,384c0,3.32-3.44,6-7.68,6H87.41c-4.24,0-7.67-2.69-7.67-6h0c0-3.33,3.43-6,7.67-6H308.82c4.24,0,7.68,2.69,7.68,6Z"/><path class="cls-2" d="M316.5,337.88c0,3.32-3.44,6-7.68,6H87.41c-4.24,0-7.67-2.69-7.67-6h0c0-3.33,3.43-6,7.67-6H308.82c4.24,0,7.68,2.69,7.68,6Z"/><path class="cls-2" d="M195.69,90.79l22.62,11.56s-15.74,9.24-46.23,3.08"/><path class="cls-2" d="M264.54,142.41s-21.71,31.87-58.07,37.89"/><path class="cls-2" d="M280.71,97.72s48.2,56.25,28.53,137.14"/><path class="cls-2" d="M97.33,296.5s150.49,12.33,150.49-106.32"/></g></svg>