<svg xmlns="http://www.w3.org/2000/svg" viewBox="0 0 400 400"><defs><style>.cls-1,.cls-2{fill:#e8e3da;}.cls-1,.cls-2,.cls-3,.cls-4{stroke:#26221f;stroke-width:10px;}.cls-1,.cls-3,.cls-4{stroke-miterlimit:10;}.cls-2{stroke-linejoin:round;}.cls-3{fill:#99948d;}.cls-4{fill:#5a554d;}</style></defs><g id="Layer_7" data-name="Layer 7"><path class="cls-1" d="M330.2,328.3H64.61a4,4,0,0,1-2.42-.67.78.78,0,0,1,0-1.33c12.5-10.63,41.1-68.06,42.51-155,0-.74,1.26-1.33,2.8-1.33h181c1.54,0,2.79.59,2.8,1.33,1.41,86.94,28.83,144.38,41.33,155a.78.78,0,0,1,0,1.33A4,4,0,0,1,330.2,328.3ZM67.31,325.61H328.5c-16.48-14.63-40.83-70.56-42.76-153H110.26C108.34,255.06,83.8,311,67.31,325.61Z"/><path class="cls-2" d="M316.41,144.26H84.59c6.22,3.28,16.84,9.52,21.62,16.15H294.79C299.57,153.78,310.19,147.54,316.41,144.26Z"/><path class="cls-2" d="M303.32,120.93H94.18c-1.25,8.08-7.36,16.45-12.93,20.59H320C314.44,137.38,304.57,129,303.32,120.93Z"/><path class="cls-1" d="M341.72,356.38c0-7.18-5.38-13.46-13.43-17l-.32,0H73l-.32,0c-8,3.54-13.43,9.82-13.43,17,0,8.15,6.92,15.15,16.84,18.28H324.88C334.8,371.53,341.72,364.53,341.72,356.38Z"/><path class="cls-3" d="M324.88,376H76.12a3,3,0,0,1-.85-.13c-10.93-3.46-18-11.11-18-19.5,0-7.4,5.36-14.18,14.34-18.13a2.77,2.77,0,0,1,1.19-.21l.36,0H328s.1,0,.22,0a2.7,2.7,0,0,1,1.2.21c9,3.95,14.33,10.73,14.33,18.13,0,8.39-7.06,16-18,19.5A2.91,2.91,0,0,1,324.88,376Zm-248.3-2.69H324.42c9.31-3.07,15.3-9.69,15.3-16.94,0-6.34-4.47-12.15-12-15.63H73.27c-7.52,3.48-12,9.29-12,15.63C61.28,363.63,67.27,370.25,76.58,373.32Z"/><path class="cls-1" d="M328,374.66H73c-4.88,0-8.84,2.79-8.84,6.23s4,6.22,8.84,6.22H328c4.88,0,8.84-2.79,8.84-6.22S332.85,374.66,328,374.66Z"/><path class="cls-3" d="M328,388.45H73c-6,0-10.84-3.39-10.84-7.56s4.86-7.57,10.84-7.57H328c6,0,10.84,3.39,10.84,7.57S334,388.45,328,388.45ZM73,376c-3.77,0-6.84,2.19-6.84,4.88s3.07,4.87,6.84,4.87H328c3.77,0,6.83-2.18,6.83-4.87S331.74,376,328,376Z"/><path class="cls-1" d="M328,339.4l.32,0c4.73-.12,8.52-2.84,8.52-6.2s-4-6.22-8.84-6.22H73c-4.88,0-8.84,2.78-8.84,6.22s3.79,6.08,8.52,6.2l.32,0Z"/><path class="cls-3" d="M328,340.75H73l-.48,0c-5.77-.15-10.36-3.46-10.36-7.54s4.86-7.57,10.84-7.57H328c6,0,10.84,3.4,10.84,7.57s-4.59,7.4-10.45,7.54A1.85,1.85,0,0,1,328,340.75ZM73,328.3c-3.77,0-6.84,2.19-6.84,4.88s2.9,4.76,6.6,4.86l.38,0H327.88l.31,0c3.72-.1,6.61-2.23,6.61-4.86s-3.06-4.88-6.83-4.88Z"/><path class="cls-1" d="M302.13,171.29c6,0,10.81-2.43,10.81-5.44s-4.84-5.44-10.81-5.44H98.88c-6,0-10.82,2.44-10.82,5.44s4.84,5.44,10.82,5.44H302.13Z"/><path class="cls-1" d="M285.62,111.23c4.27,0,7.73-2.43,7.73-5.43s-3.46-5.44-7.73-5.44H115.38c-4.27,0-7.73,2.43-7.73,5.44s3.46,5.43,7.73,5.43H285.62Z"/><path class="cls-3" d="M285.62,112.58H115.38c-5.36,0-9.73-3-9.73-6.78S110,99,115.38,99H285.62c5.37,0,9.73,3,9.73,6.79S291,112.58,285.62,112.58ZM115.38,101.7c-3.16,0-5.72,1.84-5.72,4.1s2.56,4.09,5.72,4.09H285.62c3.16,0,5.72-1.84,5.72-4.09s-2.56-4.1-5.72-4.1Z"/><path class="cls-4" d="M328,389H73c-6.42,0-11.64-3.64-11.64-8.1s5.22-8.11,11.64-8.11H328c6.42,0,11.64,3.64,11.64,8.11S334.39,389,328,389ZM73,376.54c-3.33,0-6,1.95-6,4.35s2.71,4.34,6,4.34H328c3.33,0,6-2,6-4.34s-2.71-4.35-6-4.35Z"/><path class="cls-4" d="M328,341.28H73l-.61,0c-6.1-.15-11-3.7-11-8.07s5.22-8.1,11.64-8.1H328c6.42,0,11.64,3.63,11.64,8.1s-4.93,7.92-11.22,8.08ZM73,328.84c-3.33,0-6,2-6,4.34s2.56,4.24,5.83,4.32l.47,0H327.83l.31,0c3.31-.08,5.87-2,5.87-4.32s-2.71-4.34-6-4.34Z"/><path class="cls-4" d="M285.62,113.11H115.38c-5.8,0-10.53-3.28-10.53-7.31s4.73-7.32,10.53-7.32H285.62c5.8,0,10.53,3.28,10.53,7.32S291.42,113.11,285.62,113.11ZM115.38,102.24c-2.72,0-4.93,1.59-4.93,3.56s2.21,3.55,4.93,3.55H285.62c2.72,0,4.93-1.59,4.93-3.55s-2.21-3.56-4.93-3.56Z"/><path class="cls-1" d="M75.59,373.9H323.41c9.32-3.18,15.31-10,15.31-17.56,0-6.58-4.48-12.6-12-16.21H72.29c-7.53,3.61-12,9.63-12,16.21C60.28,363.86,66.28,370.72,75.59,373.9Z"/><path class="cls-1" d="M327,375.25H72c-4.88,0-8.84,2.88-8.84,6.43s4,6.44,8.84,6.44H327c4.88,0,8.84-2.88,8.84-6.44S331.85,375.25,327,375.25Z"/><path class="cls-3" d="M327,389.46H72c-6,0-10.84-3.49-10.84-7.78S66.05,373.9,72,373.9H327c6,0,10.84,3.49,10.84,7.78S333,389.46,327,389.46ZM72,376.59c-3.77,0-6.84,2.29-6.84,5.09s3.07,5.1,6.84,5.1H327c3.77,0,6.83-2.29,6.83-5.1s-3.06-5.09-6.83-5.09Z"/><path class="cls-1" d="M327,338.78l.32,0c4.73-.12,8.52-2.94,8.52-6.41s-4-6.44-8.84-6.44H72c-4.88,0-8.84,2.89-8.84,6.44s3.79,6.29,8.52,6.41l.32,0Z"/><path class="cls-3" d="M327,340.13H72l-.51,0c-5.74-.15-10.33-3.56-10.33-7.75s4.86-7.78,10.84-7.78H327c6,0,10.84,3.49,10.84,7.78s-4.59,7.6-10.45,7.75A1.67,1.67,0,0,1,327,340.13ZM72,327.26c-3.77,0-6.84,2.28-6.84,5.09s2.9,5,6.6,5.07l.39,0h254.7l.25,0c3.78-.1,6.67-2.32,6.67-5.07s-3.06-5.09-6.83-5.09Z"/><path class="cls-1" d="M327,390H72c-6.42,0-11.64-3.73-11.64-8.32s5.22-8.31,11.64-8.31H327c6.42,0,11.64,3.73,11.64,8.31S333.39,390,327,390Z"/><path class="cls-1" d="M327,340.66H72l-.64,0c-6.07-.16-11-3.8-11-8.28S65.61,324,72,324H327c6.42,0,11.64,3.74,11.64,8.32s-4.93,8.13-11.22,8.29A2.35,2.35,0,0,1,327,340.66Z"/><path class="cls-1" d="M250.12,100a10.16,10.16,0,0,1-.4-1.58H149.28a10.16,10.16,0,0,1-.4,1.58Z"/><path class="cls-3" d="M250.12,101.37H148.88a2.47,2.47,0,0,1-1.56-.5,1,1,0,0,1-.39-1.13,11,11,0,0,0,.36-1.42c.1-.69,1-1.21,2-1.21H249.72c1,0,1.89.52,2,1.21a11,11,0,0,0,.36,1.42,1,1,0,0,1-.39,1.13A2.47,2.47,0,0,1,250.12,101.37Z"/><path class="cls-1" d="M301.66,55.19h-33.3V73.62c0,4.39-6.7,7.95-15,7.95s-15-3.56-15-7.95V55.19H159V73.62c0,4.39-6.69,7.95-15,7.95s-15-3.56-15-7.95V55.19H95.82V118H301.66Z"/></g></svg>