<svg xmlns="http://www.w3.org/2000/svg" viewBox="0 0 400 400"><defs><style>.cls-1{fill:#e8e3da;}.cls-1,.cls-2,.cls-3,.cls-4{stroke:#26221f;stroke-miterlimit:10;stroke-width:5px;}.cls-2{fill:#99948d;}.cls-3{fill:#f7f4f0;}.cls-4{fill:#5a554d;}</style></defs><g id="Layer_7" data-name="Layer 7"><path class="cls-1" d="M281.05,372H222.18A240.77,240.77,0,0,1,172,372H113.47"/><path class="cls-2" d="M109.91,371.62a3.42,3.42,0,0,1,3.56-2.76H172a240.71,240.71,0,0,0,49.72,0,3,3,0,0,1,.42,0h58.88a3.44,3.44,0,0,1,3.54,2.68m-6.68,3.5H222.39a245.75,245.75,0,0,1-50.74,0l-55,0"/><path class="cls-1" d="M175.77,372a263.25,263.25,0,0,0,40.5,0Z"/><path class="cls-2" d="M196.39,375.82c-6.77,0-13.66-.26-20.91-.79a3.29,3.29,0,0,1-3.28-3.21,3.39,3.39,0,0,1,3.58-3h40.49a3.38,3.38,0,0,1,3.57,2.95,3.28,3.28,0,0,1-3.25,3.22C209.82,375.56,203.16,375.82,196.39,375.82Z"/><path class="cls-3" d="M197.44,375.55a230,230,0,0,1-36.56-3.6H113.46"/><path class="cls-4" d="M108.49,371.5a4.8,4.8,0,0,1,5-3.87H172a5,5,0,0,1,.55,0,235.19,235.19,0,0,0,49,0,5.82,5.82,0,0,1,.59,0h58.88a4.79,4.79,0,0,1,4.95,3.75m-9.33,4.89h-54.2a246.82,246.82,0,0,1-50.71,0H118"/><path class="cls-4" d="M196.39,377.05c-6.81,0-13.74-.27-21-.79-2.67-.19-4.69-2.17-4.58-4.49s2.31-4.14,5-4.14h40.49c2.67,0,4.88,1.82,5,4.12s-1.89,4.3-4.55,4.51C209.9,376.78,203.2,377.05,196.39,377.05Z"/><path class="cls-1" d="M279.54,390c0-1.5-.07-3-.08-4.52H115.21c0,1.48,0,3-.08,4.52Z"/><path class="cls-1" d="M304.15,340.37H90.52c6,5.45,16.35,15.88,21,27H283.16C287.8,356.25,298.11,345.82,304.15,340.37Z"/><path class="cls-2" d="M283.16,370.42H111.51a3.59,3.59,0,0,1-3.36-2c-4.45-10.64-14.57-20.78-20.21-25.88a2.77,2.77,0,0,1-.7-3.35,3.61,3.61,0,0,1,3.28-1.88H304.15a3.64,3.64,0,0,1,3.29,1.88,2.79,2.79,0,0,1-.71,3.35c-5.63,5.09-15.75,15.23-20.21,25.88A3.59,3.59,0,0,1,283.16,370.42ZM114,364.24H280.71c3.8-7.94,10.08-15.35,15.4-20.79H98.55C103.88,348.89,110.16,356.31,114,364.24Z"/><path class="cls-1" d="M281,285.24H113.68C112,298.71,98.58,312.69,91,319.6H303.66C296.09,312.69,282.69,298.71,281,285.24Z"/><path class="cls-2" d="M303.66,322.69H91a3.62,3.62,0,0,1-3.28-1.87,2.79,2.79,0,0,1,.69-3.35c6-5.46,20.06-19.57,21.7-32.56a3.43,3.43,0,0,1,3.56-2.76H281a3.43,3.43,0,0,1,3.56,2.76c1.64,13,15.72,27.1,21.7,32.57a2.77,2.77,0,0,1,.69,3.35A3.63,3.63,0,0,1,303.66,322.69ZM99,316.51H295.68c-7.09-7.29-15.35-17.65-17.75-28.18H116.74C114.34,298.86,106.08,309.22,99,316.51Z"/><path class="cls-1" d="M137.82,92c0-9.66-9.06-17.49-20.23-17.49S97.36,82.38,97.36,92a15.45,15.45,0,0,0,2.1,7.62h36.26A15.45,15.45,0,0,0,137.82,92Z"/><path class="cls-2" d="M135.72,102.75H99.46A3.66,3.66,0,0,1,96.24,101a18.17,18.17,0,0,1-2.45-9c0-11.35,10.67-20.59,23.8-20.59s23.8,9.24,23.8,20.59a18.17,18.17,0,0,1-2.45,9A3.66,3.66,0,0,1,135.72,102.75Zm-33.88-6.19h31.5a12,12,0,0,0,.9-4.52c0-7.94-7.47-14.4-16.65-14.4S100.94,84.1,100.94,92A12,12,0,0,0,101.84,96.56Z"/><path class="cls-1" d="M297.31,92c0-9.66-9.06-17.49-20.23-17.49S256.85,82.38,256.85,92a15.45,15.45,0,0,0,2.1,7.62h36.26A15.45,15.45,0,0,0,297.31,92Z"/><path class="cls-2" d="M295.21,102.75H259a3.66,3.66,0,0,1-3.22-1.74,18.28,18.28,0,0,1-2.45-9c0-11.35,10.68-20.59,23.8-20.59S300.89,80.69,300.89,92a18.19,18.19,0,0,1-2.46,9A3.66,3.66,0,0,1,295.21,102.75Zm-33.88-6.19h31.5a12,12,0,0,0,.9-4.52c0-7.94-7.47-14.4-16.65-14.4S260.43,84.1,260.43,92A12,12,0,0,0,261.33,96.56Z"/><path class="cls-1" d="M228.24,64.73C228.24,50,214.41,38,197.34,38s-30.9,12-30.9,26.72a25,25,0,0,0,9.38,19.16h43A25,25,0,0,0,228.24,64.73Z"/><path class="cls-2" d="M218.86,87h-43a3.84,3.84,0,0,1-2.49-.88c-6.75-5.67-10.47-13.26-10.47-21.37,0-16.44,15.47-29.82,34.48-29.82s34.48,13.38,34.48,29.82c0,8.11-3.72,15.7-10.46,21.37A3.87,3.87,0,0,1,218.86,87ZM177.32,80.8h40a21.82,21.82,0,0,0,7.31-16.07c0-13-12.26-23.63-27.33-23.63S170,51.7,170,64.73A21.82,21.82,0,0,0,177.32,80.8Z"/><path class="cls-1" d="M228.7,99.66h.51a8.56,8.56,0,0,0,3.46-6.7c0-5-4.69-9.07-10.49-9.07H172.49C166.69,83.89,162,88,162,93a8.56,8.56,0,0,0,3.46,6.7H228.7Z"/><path class="cls-2" d="M229.21,102.75H165.46a3.91,3.91,0,0,1-2.4-.8,11.52,11.52,0,0,1-4.64-9c0-6.71,6.31-12.16,14.07-12.16h49.69c7.76,0,14.07,5.45,14.07,12.16a11.52,11.52,0,0,1-4.64,9A3.91,3.91,0,0,1,229.21,102.75ZM167,96.56h60.67A5.33,5.33,0,0,0,229.1,93c0-3.3-3.11-6-6.92-6H172.49c-3.81,0-6.92,2.68-6.92,6A5.33,5.33,0,0,0,167,96.56Z"/><polygon class="cls-1" points="295.21 99.66 258.95 99.66 229.21 99.66 228.7 99.66 165.97 99.66 165.46 99.66 135.72 99.66 99.46 99.66 77.89 99.66 126.23 267.09 268.44 267.09 316.78 99.66 295.21 99.66"/><path class="cls-2" d="M268.44,270.18H126.23a3.53,3.53,0,0,1-3.47-2.34L74.42,100.41a2.82,2.82,0,0,1,.65-2.66,3.81,3.81,0,0,1,2.82-1.19H316.78a3.81,3.81,0,0,1,2.82,1.19,2.82,2.82,0,0,1,.65,2.66L271.91,267.84A3.53,3.53,0,0,1,268.44,270.18ZM129,264H265.65L312.2,102.75H82.47Z"/><path class="cls-1" d="M290.28,385.48c5.79,0,10.49-4.06,10.49-9.07s-4.7-9.08-10.49-9.08H104.39c-5.79,0-10.49,4.07-10.49,9.08s4.7,9.07,10.49,9.07H290.28Z"/><path class="cls-2" d="M290.28,388.57H104.39c-7.76,0-14.07-5.45-14.07-12.16s6.31-12.17,14.07-12.17H290.28c7.76,0,14.07,5.46,14.07,12.17S298,388.57,290.28,388.57ZM104.39,370.42c-3.81,0-6.92,2.69-6.92,6s3.11,6,6.92,6H290.28c3.81,0,6.92-2.68,6.92-6s-3.11-6-6.92-6Z"/><path class="cls-1" d="M315.79,340.37c6.64,0,12-4.65,12-10.39s-5.37-10.38-12-10.38H78.88c-6.64,0-12,4.64-12,10.38s5.37,10.39,12,10.39H315.79Z"/><path class="cls-2" d="M315.79,343.45H78.88c-8.6,0-15.59-6-15.59-13.47s7-13.47,15.59-13.47H315.79c8.6,0,15.59,6,15.59,13.47S324.39,343.45,315.79,343.45ZM78.88,322.69c-4.65,0-8.43,3.27-8.43,7.29s3.78,7.29,8.43,7.29H315.79c4.65,0,8.43-3.27,8.43-7.29s-3.78-7.29-8.43-7.29Z"/><path class="cls-1" d="M296,285.24c5.8,0,10.5-4.07,10.5-9.08s-4.7-9.07-10.5-9.07H98.72c-5.8,0-10.5,4.06-10.5,9.07s4.7,9.08,10.5,9.08H296Z"/><path class="cls-2" d="M296,288.33H98.72c-7.76,0-14.07-5.46-14.07-12.17S91,264,98.72,264H296c7.76,0,14.07,5.46,14.07,12.17S303.71,288.33,296,288.33ZM98.72,270.18c-3.82,0-6.92,2.68-6.92,6s3.1,6,6.92,6H296c3.82,0,6.92-2.69,6.92-6s-3.1-6-6.92-6Z"/><path class="cls-4" d="M283.16,371.65H111.51a5,5,0,0,1-4.7-2.85c-4.36-10.43-14.34-20.42-19.9-25.45a3.88,3.88,0,0,1-1-4.68A5,5,0,0,1,90.52,336H304.15a5,5,0,0,1,4.59,2.63,3.88,3.88,0,0,1-1,4.68c-5.56,5-15.53,15-19.9,25.45A5,5,0,0,1,283.16,371.65ZM114.9,363H279.77c3.42-6.84,8.57-13.25,13.32-18.32H101.58C106.33,349.76,111.48,356.17,114.9,363Z"/><path class="cls-4" d="M303.66,323.92H91a5.07,5.07,0,0,1-4.59-2.61,3.89,3.89,0,0,1,1-4.68c5.89-5.37,19.74-19.23,21.33-31.86a4.79,4.79,0,0,1,5-3.85H281a4.79,4.79,0,0,1,5,3.85c1.6,12.62,15.45,26.49,21.33,31.86a3.89,3.89,0,0,1,1,4.68A5.07,5.07,0,0,1,303.66,323.92ZM102,315.28H292.67c-6.48-7-13.41-16.23-15.89-25.71H117.89C115.41,299.05,108.48,308.28,102,315.28Z"/><path class="cls-4" d="M135.72,104H99.46a5.13,5.13,0,0,1-4.5-2.43A19.33,19.33,0,0,1,92.36,92c0-12,11.32-21.82,25.23-21.82S142.82,80,142.82,92a19.3,19.3,0,0,1-2.6,9.51A5.12,5.12,0,0,1,135.72,104Zm-32.83-8.65h29.4a10.73,10.73,0,0,0,.53-3.29c0-7.26-6.83-13.17-15.23-13.17S102.36,84.78,102.36,92A10.73,10.73,0,0,0,102.89,95.33Z"/><path class="cls-4" d="M295.21,104H259a5.12,5.12,0,0,1-4.5-2.43,19.3,19.3,0,0,1-2.6-9.51c0-12,11.32-21.82,25.23-21.82S302.31,80,302.31,92a19.33,19.33,0,0,1-2.6,9.51A5.12,5.12,0,0,1,295.21,104Zm-32.83-8.65h29.4a10.73,10.73,0,0,0,.53-3.29c0-7.26-6.83-13.17-15.23-13.17S261.85,84.78,261.85,92A10.73,10.73,0,0,0,262.38,95.33Z"/><path class="cls-4" d="M218.86,88.21h-43A5.44,5.44,0,0,1,172.34,87c-7-5.91-10.9-13.81-10.9-22.26,0-17.12,16.1-31.05,35.9-31.05s35.9,13.93,35.9,31.05c0,8.45-3.87,16.35-10.89,22.26A5.49,5.49,0,0,1,218.86,88.21ZM178,79.56h38.78a20.56,20.56,0,0,0,6.51-14.83c0-12.35-11.62-22.4-25.9-22.4s-25.9,10.05-25.9,22.4A20.56,20.56,0,0,0,178,79.56Z"/><path class="cls-4" d="M229.21,104H165.46a5.48,5.48,0,0,1-3.36-1.12A12.69,12.69,0,0,1,157,93c0-7.39,6.95-13.4,15.49-13.4h49.69c8.54,0,15.49,6,15.49,13.4a12.69,12.69,0,0,1-5.1,9.9A5.48,5.48,0,0,1,229.21,104Zm-61.46-8.65h59.17a4.14,4.14,0,0,0,.75-2.37c0-2.62-2.46-4.75-5.49-4.75H172.49c-3,0-5.49,2.13-5.49,4.75A4.14,4.14,0,0,0,167.75,95.33Z"/><path class="cls-4" d="M268.44,271.41H126.23a4.93,4.93,0,0,1-4.85-3.27L73,100.7A3.86,3.86,0,0,1,74,97a5.32,5.32,0,0,1,3.94-1.67H316.78A5.32,5.32,0,0,1,320.72,97a3.86,3.86,0,0,1,.91,3.7L273.29,268.14A4.93,4.93,0,0,1,268.44,271.41Zm-138.3-8.65H264.53L310.38,104H84.29Z"/><path class="cls-4" d="M290.28,389.81H104.39c-8.54,0-15.49-6-15.49-13.4S95.85,363,104.39,363H290.28c8.54,0,15.49,6,15.49,13.4S298.82,389.81,290.28,389.81ZM104.39,371.65c-3,0-5.49,2.14-5.49,4.76s2.46,4.75,5.49,4.75H290.28c3,0,5.49-2.13,5.49-4.75s-2.46-4.76-5.49-4.76Z"/><path class="cls-4" d="M315.79,344.69H78.88c-9.38,0-17-6.6-17-14.71s7.63-14.7,17-14.7H315.79c9.38,0,17,6.59,17,14.7S325.17,344.69,315.79,344.69ZM78.88,323.92c-3.87,0-7,2.72-7,6.06S75,336,78.88,336H315.79c3.87,0,7-2.72,7-6.06s-3.14-6.06-7-6.06Z"/><path class="cls-4" d="M296,289.57H98.72c-8.55,0-15.5-6-15.5-13.41s7-13.4,15.5-13.4H296c8.55,0,15.5,6,15.5,13.4S304.5,289.57,296,289.57ZM98.72,271.41c-3,0-5.5,2.13-5.5,4.75s2.47,4.76,5.5,4.76H296c3,0,5.5-2.14,5.5-4.76s-2.47-4.75-5.5-4.75Z"/></g></svg>