<svg xmlns="http://www.w3.org/2000/svg" viewBox="0 0 400 400"><defs><style>.cls-1{fill:#e8e3da;}.cls-1,.cls-2,.cls-3{stroke:#26221f;stroke-miterlimit:10;stroke-width:5px;}.cls-2{fill:#99948d;}.cls-3{fill:#5a554d;}</style></defs><g id="Layer_7" data-name="Layer 7"><rect class="cls-1" x="164.98" y="164.43" width="70.05" height="0.87"/><path class="cls-2" d="M235,166.5H165c-1,0-1.86-.54-1.86-1.21v-.86c0-.67.83-1.21,1.86-1.21h70c1,0,1.86.54,1.86,1.21v.86C236.88,166,236.05,166.5,235,166.5Z"/><path class="cls-1" d="M238.29,231.45H161.71c-1.49,55.89-44.06,88-57.47,96.77H295.76C282.35,319.48,239.78,287.34,238.29,231.45Z"/><path class="cls-2" d="M295.76,329.43H104.24a2,2,0,0,1-1.72-.75.92.92,0,0,1,.4-1.31c13-8.47,55.45-40.39,56.93-95.94,0-.66.84-1.19,1.86-1.19h76.58c1,0,1.84.53,1.86,1.19,1.48,55.55,44,87.47,56.93,95.94a.92.92,0,0,1,.4,1.31A2,2,0,0,1,295.76,329.43ZM108.61,327H291.39c-15.69-11-53-42.4-54.92-94.35H163.53C161.6,284.61,124.3,316.05,108.61,327Z"/><path class="cls-1" d="M257.86,204.46H142.14c4.8,3.26,13,9.5,16.69,16.13h82.34C244.86,214,253.06,207.72,257.86,204.46Z"/><path class="cls-2" d="M241.17,221.8H158.83a2,2,0,0,1-1.75-.8c-3.61-6.48-11.75-12.62-16.29-15.71a.92.92,0,0,1-.36-1.31,2.06,2.06,0,0,1,1.71-.73H257.86a2.06,2.06,0,0,1,1.71.73.92.92,0,0,1-.36,1.31c-4.54,3.09-12.68,9.23-16.29,15.71A2,2,0,0,1,241.17,221.8Zm-81.06-2.42h79.78c3.27-5.36,9.19-10.36,13.74-13.71H146.37C150.92,209,156.84,214,160.11,219.38Z"/><path class="cls-1" d="M241.17,176.16H158.83c-3.6,6.46-11.46,12.53-16.3,15.86H257.47C252.63,188.69,244.77,182.62,241.17,176.16Z"/><path class="cls-2" d="M257.48,193.23h-115a2,2,0,0,1-1.71-.73.92.92,0,0,1,.36-1.31c4.42-3,12.37-9.09,15.9-15.44a2,2,0,0,1,1.75-.8h82.34a2,2,0,0,1,1.75.8c3.54,6.36,11.49,12.4,15.91,15.44a.91.91,0,0,1,.35,1.31A2,2,0,0,1,257.48,193.23Zm-110.75-2.42H253.27c-4.43-3.29-10.18-8.2-13.38-13.44H160.11C156.91,182.6,151.16,187.51,146.73,190.81Z"/><path class="cls-1" d="M321,357.61c0-7.17-5.81-13.44-14.52-17l-.34,0H93.87l-.34,0c-8.71,3.54-14.52,9.81-14.52,17,0,8.14,7.48,15.13,18.19,18.27H302.79C313.51,372.74,321,365.75,321,357.61Z"/><path class="cls-2" d="M302.79,377.09H97.2a2.74,2.74,0,0,1-.76-.11c-11.72-3.43-19.29-11-19.29-19.37,0-7.36,5.75-14.09,15.39-18a2.7,2.7,0,0,1,1.11-.18l.31,0H306.13l.22,0a2.73,2.73,0,0,1,1.11.18c9.64,3.92,15.39,10.65,15.39,18,0,8.34-7.57,15.94-19.29,19.37A2.76,2.76,0,0,1,302.79,377.09ZM97.61,374.67H302.39c10.18-3.09,16.74-9.76,16.74-17.06,0-6.39-4.9-12.25-13.14-15.75H94c-8.24,3.5-13.14,9.36-13.14,15.75C80.87,364.91,87.43,371.58,97.61,374.67Z"/><path class="cls-1" d="M306.13,375.88H93.87c-5.28,0-9.55,2.78-9.55,6.21s4.27,6.22,9.55,6.22H306.13c5.28,0,9.55-2.79,9.55-6.22S311.41,375.88,306.13,375.88Z"/><path class="cls-2" d="M306.13,389.52H93.87c-6.29,0-11.41-3.33-11.41-7.43s5.12-7.42,11.41-7.42H306.13c6.29,0,11.41,3.33,11.41,7.42S312.42,389.52,306.13,389.52ZM93.87,377.09c-4.24,0-7.69,2.24-7.69,5s3.45,5,7.69,5H306.13c4.24,0,7.69-2.25,7.69-5s-3.45-5-7.69-5Z"/><path class="cls-1" d="M306.13,340.65l.34,0c5.12-.12,9.21-2.84,9.21-6.19s-4.27-6.22-9.55-6.22H93.87c-5.28,0-9.55,2.78-9.55,6.22s4.09,6.07,9.21,6.19l.34,0Z"/><path class="cls-2" d="M306.13,341.86H93.87l-.48,0c-6.1-.14-10.93-3.39-10.93-7.4S87.58,327,93.87,327H306.13c6.29,0,11.41,3.33,11.41,7.43s-4.83,7.25-11,7.4ZM93.87,329.43c-4.24,0-7.69,2.25-7.69,5s3.25,4.88,7.41,5l.37,0h212.1l.29,0c4.21-.1,7.47-2.29,7.47-5s-3.45-5-7.69-5Z"/><path class="cls-1" d="M246.84,231.45c4.61,0,8.34-2.43,8.34-5.43s-3.73-5.43-8.34-5.43H153.16c-4.61,0-8.34,2.43-8.34,5.43s3.73,5.43,8.34,5.43h93.68Z"/><path class="cls-2" d="M246.84,232.66H153.16c-5.62,0-10.2-3-10.2-6.64s4.58-6.64,10.2-6.64h93.68c5.62,0,10.2,3,10.2,6.64S252.46,232.66,246.84,232.66ZM153.16,221.8c-3.57,0-6.48,1.89-6.48,4.22s2.91,4.22,6.48,4.22h93.68c3.57,0,6.48-1.89,6.48-4.22s-2.91-4.22-6.48-4.22Z"/><path class="cls-1" d="M267.13,204.46c5.28,0,9.55-2.79,9.55-6.22s-4.27-6.22-9.55-6.22H132.87c-5.28,0-9.55,2.79-9.55,6.22s4.27,6.22,9.55,6.22H267.13Z"/><path class="cls-2" d="M267.13,205.67H132.87c-6.29,0-11.41-3.33-11.41-7.43s5.12-7.43,11.41-7.43H267.13c6.29,0,11.41,3.34,11.41,7.43S273.42,205.67,267.13,205.67ZM132.87,193.23c-4.24,0-7.69,2.25-7.69,5s3.45,5,7.69,5H267.13c4.24,0,7.69-2.25,7.69-5s-3.45-5-7.69-5Z"/><path class="cls-1" d="M246.84,176.16c4.61,0,8.34-2.43,8.34-5.43s-3.73-5.44-8.34-5.44H153.16c-4.61,0-8.34,2.44-8.34,5.44s3.73,5.43,8.34,5.43h93.68Z"/><path class="cls-2" d="M246.84,177.37H153.16c-5.62,0-10.2-3-10.2-6.64s4.58-6.65,10.2-6.65h93.68c5.62,0,10.2,3,10.2,6.65S252.46,177.37,246.84,177.37ZM153.16,166.5c-3.57,0-6.48,1.9-6.48,4.23s2.91,4.22,6.48,4.22h93.68c3.57,0,6.48-1.9,6.48-4.22s-2.91-4.23-6.48-4.23Z"/><path class="cls-3" d="M295.76,329.91H104.24a2.86,2.86,0,0,1-2.4-1,1.29,1.29,0,0,1,.56-1.84c12.93-8.43,55.23-40.24,56.71-95.61,0-.92,1.18-1.66,2.6-1.66h76.58c1.42,0,2.57.74,2.6,1.66,1.48,55.37,43.78,87.18,56.71,95.61a1.29,1.29,0,0,1,.56,1.84A2.86,2.86,0,0,1,295.76,329.91ZM110.3,326.53H289.7c-16.29-11.66-51.85-42.78-53.95-93.38h-71.5C162.15,283.75,126.59,314.87,110.3,326.53Z"/><path class="cls-3" d="M241.17,222.28H158.83a2.79,2.79,0,0,1-2.45-1.11c-3.56-6.4-11.63-12.49-16.12-15.54a1.29,1.29,0,0,1-.51-1.84,2.89,2.89,0,0,1,2.39-1H257.86a2.89,2.89,0,0,1,2.39,1,1.29,1.29,0,0,1-.51,1.84c-4.49,3.05-12.56,9.13-16.12,15.54A2.79,2.79,0,0,1,241.17,222.28Zm-80.56-3.38h78.78c3.09-4.89,8.29-9.47,12.61-12.75H148C152.32,209.43,157.52,214,160.61,218.9Z"/><path class="cls-3" d="M257.48,193.72h-115a2.89,2.89,0,0,1-2.39-1,1.27,1.27,0,0,1,.5-1.83c4.38-3,12.26-9,15.74-15.28a2.79,2.79,0,0,1,2.45-1.11h82.34a2.79,2.79,0,0,1,2.45,1.11c3.49,6.28,11.36,12.27,15.74,15.28a1.27,1.27,0,0,1,.5,1.83A2.88,2.88,0,0,1,257.48,193.72Zm-109.13-3.39H251.66c-4.2-3.22-9.25-7.7-12.27-12.48H160.61C157.68,182.51,152.86,186.88,148.35,190.33Z"/><path class="cls-3" d="M302.79,377.57H97.2a3.72,3.72,0,0,1-1.06-.15c-12-3.51-19.73-11.28-19.73-19.81,0-7.52,5.88-14.41,15.74-18.42a3.93,3.93,0,0,1,1.54-.25l.38,0H306.13c-.07,0,.05,0,.18,0a3.9,3.9,0,0,1,1.54.25c9.86,4,15.74,10.9,15.74,18.42,0,8.53-7.75,16.3-19.73,19.81A3.79,3.79,0,0,1,302.79,377.57Zm-205-3.39H302.22c9.84-3,16.17-9.49,16.17-16.57,0-6.18-4.7-11.84-12.62-15.27H94.23c-7.92,3.43-12.62,9.09-12.62,15.27C81.61,364.69,87.94,371.16,97.77,374.18Z"/><path class="cls-3" d="M306.13,390H93.87c-6.7,0-12.15-3.55-12.15-7.91s5.45-7.91,12.15-7.91H306.13c6.7,0,12.15,3.55,12.15,7.91S312.83,390,306.13,390ZM93.87,377.57c-3.83,0-7,2-7,4.52s3.12,4.53,7,4.53H306.13c3.83,0,6.95-2,6.95-4.53s-3.12-4.52-6.95-4.52Z"/><path class="cls-3" d="M306.13,342.34H93.87l-.59,0c-6.42-.14-11.56-3.6-11.56-7.87s5.45-7.91,12.15-7.91H306.13c6.7,0,12.15,3.55,12.15,7.91s-5.14,7.73-11.71,7.88ZM93.87,329.91c-3.83,0-7,2-7,4.53s2.94,4.41,6.7,4.5l.45,0H306l.3,0c3.83-.09,6.77-2.07,6.77-4.5s-3.12-4.53-6.95-4.53Z"/><path class="cls-3" d="M246.84,233.15H153.16c-6,0-10.94-3.2-10.94-7.13s4.91-7.12,10.94-7.12h93.68c6,0,10.94,3.19,10.94,7.12S252.87,233.15,246.84,233.15Zm-93.68-10.87c-3.17,0-5.74,1.68-5.74,3.74s2.57,3.74,5.74,3.74h93.68c3.17,0,5.74-1.68,5.74-3.74s-2.57-3.74-5.74-3.74Z"/><path class="cls-3" d="M267.13,206.15H132.87c-6.7,0-12.15-3.55-12.15-7.91s5.45-7.91,12.15-7.91H267.13c6.7,0,12.15,3.55,12.15,7.91S273.83,206.15,267.13,206.15ZM132.87,193.72c-3.83,0-7,2-7,4.52s3.12,4.52,7,4.52H267.13c3.83,0,6.95-2,6.95-4.52s-3.12-4.52-6.95-4.52Z"/><path class="cls-3" d="M246.84,177.85H153.16c-6,0-10.94-3.2-10.94-7.12s4.91-7.13,10.94-7.13h93.68c6,0,10.94,3.2,10.94,7.13S252.87,177.85,246.84,177.85ZM153.16,167c-3.17,0-5.74,1.68-5.74,3.75s2.57,3.74,5.74,3.74h93.68c3.17,0,5.74-1.68,5.74-3.74S250,167,246.84,167Z"/><path class="cls-1" d="M230,160.24v0c17.87-6.34,30-18.68,30-32.86C260,106.74,234.26,90,202.51,90S145,106.74,145,127.4c0,14.18,12.13,26.52,30,32.87v0Z"/><path class="cls-2" d="M227.48,160a2.55,2.55,0,0,1-.39,0H172.81a2.64,2.64,0,0,1-1.22-.12c-19.1-6.78-31-19.78-31-33.93,0-21.29,26.62-38.62,59.35-38.62s59.35,17.33,59.35,38.62c0,14.15-11.86,27.15-31,33.93A2.67,2.67,0,0,1,227.48,160Zm-54.6-2.44h54.19c17.62-6.4,28.54-18.49,28.54-31.63,0-20-25-36.2-55.63-36.2s-55.63,16.24-55.63,36.2C144.35,139,155.27,151.12,172.88,157.53Z"/><rect class="cls-1" x="172.48" y="158.74" width="54.99" height="6"/><path class="cls-2" d="M227.48,166h-55c-1,0-1.86-.54-1.86-1.21v-6c0-.67.84-1.21,1.86-1.21h55c1,0,1.86.54,1.86,1.21v6C229.34,165.41,228.5,166,227.48,166Zm-53.14-2.42h51.28V160H174.34Z"/><path class="cls-3" d="M227.48,160.46a3.44,3.44,0,0,1-.46,0H172.88a3.76,3.76,0,0,1-1.64-.18c-19.34-6.86-31.35-20-31.35-34.35,0-21.56,27-39.1,60.09-39.1s60.09,17.54,60.09,39.1c0,14.32-12,27.49-31.35,34.35A3.67,3.67,0,0,1,227.48,160.46Zm-54.41-3.41h53.81c17.29-6.34,28-18.23,28-31.15,0-19.7-24.62-35.72-54.89-35.72s-54.89,16-54.89,35.72C145.09,138.82,155.79,150.71,173.07,157.05Z"/><path class="cls-3" d="M227.48,166.43h-55c-1.43,0-2.6-.76-2.6-1.69v-6c0-.94,1.17-1.69,2.6-1.69h55c1.43,0,2.6.75,2.6,1.69v6C230.08,165.67,228.91,166.43,227.48,166.43Zm-52.4-3.38h49.8v-2.62h-49.8Z"/></g></svg>