<svg xmlns="http://www.w3.org/2000/svg" viewBox="0 0 400 400"><defs><style>.cls-1,.cls-3{fill:#e8e3da;}.cls-1,.cls-2,.cls-3,.cls-4{stroke:#26221f;stroke-miterlimit:10;}.cls-1{stroke-width:10px;}.cls-2{fill:#99948d;}.cls-2,.cls-3,.cls-4{stroke-width:5px;}.cls-4{fill:#5a554d;}</style></defs><g id="Layer_7" data-name="Layer 7"><path class="cls-1" d="M82.9,189.56l9-6.95s11.28,10.42,22,6,9.58-21.35,19.72-24.32,31.15,27.56,72.83,14.17C166.43,195.3,107.7,255.57,97,290.31c-5.9,19.13,5.52,31.61,13.59,39H287.83c-3.88-12,1.9-23.21,10.38-39.48,9.58-18.36,18-42.18,18-42.18s14.09-8.94,18-21.35S338.24,195,338.24,195l-15.79-6.45s10.71-3.48,15.79-8.94c.56-32.26-13.53-55.09-13.53-55.09l-16.91-.49s6.76-7.45,10.7-12.41C313.43,101.21,298.21,84.34,270,65c16.91-37.72,4-25.81-22.55-14.89-16.91-8.93-59.74-6.45-59.74-6.45s2.82,6.45,5.07,18.36c-45.09,9.92-82.29,39.7-107.66,57.57S58.66,163.25,64.86,171.2,82.9,189.56,82.9,189.56Z"/><path class="cls-2" d="M287.83,330.64H110.58a2,2,0,0,1-1.3-.47c-8.82-8.07-19.87-21-14-40.18,10-32.53,60-85.54,99.54-107.46-22.24,3.21-37.71-5.8-48.48-12.08-5.21-3-9.71-5.66-12.15-4.94-4.34,1.27-6.44,5.92-8.66,10.83-2.43,5.38-4.94,10.94-10.87,13.41-9.71,4.06-19.44-2.51-22.84-5.21l-7.76,6a1.93,1.93,0,0,1-1.26.38,1.88,1.88,0,0,1-1.22-.45c-.49-.43-12-10.6-18.23-18.55-6.63-8.5-5.37-35,20.61-53.32,3-2.09,6.09-4.34,9.38-6.7C117.87,94.24,151.32,70.16,190.89,61a91.28,91.28,0,0,0-4.78-17,1.1,1.1,0,0,1,.19-1.17,1.91,1.91,0,0,1,1.31-.61c1.74-.1,42.25-2.33,60,6.24,4-1.68,7.76-3.39,11.07-4.9,9.69-4.43,15.54-7.1,18.89-4.94,3,2,3,6.7-5.5,25.88,24,16.6,42,34,48.08,46.58a1.09,1.09,0,0,1-.15,1.19c-2.66,3.35-6.64,7.87-8.94,10.44l13.75.41a1.77,1.77,0,0,1,1.48.76c.15.23,14.27,23.49,13.7,55.69a1.12,1.12,0,0,1-.33.77c-3.57,3.84-9.61,6.7-13.32,8.2L339,193.83A1.34,1.34,0,0,1,340,195c0,.77,0,19.17-4,31.59-3.69,11.62-15.71,20.13-18.19,21.78-1.16,3.23-9.13,25-18,41.93-8.17,15.66-14.07,27-10.31,38.64a1.12,1.12,0,0,1-.31,1.16A1.93,1.93,0,0,1,287.83,330.64ZM111.38,328h174.3c-3-11.9,2.9-23.23,10.94-38.65,9.44-18.07,17.9-41.8,18-42a1.45,1.45,0,0,1,.57-.69c.14-.08,13.7-8.81,17.45-20.62,3.4-10.67,3.83-26.4,3.89-30.13l-14.85-6.07a1.33,1.33,0,0,1-.92-1.25,1.4,1.4,0,0,1,1.06-1.18c.1,0,9.88-3.26,14.73-8.15a111.21,111.21,0,0,0-12.94-53.32l-15.86-.47a1.8,1.8,0,0,1-1.47-.75,1.09,1.09,0,0,1,.14-1.37c.07-.08,6.27-6.92,10.19-11.77-6.3-12.32-24-29.26-47.69-45.5a1.17,1.17,0,0,1-.49-1.46C274.93,50,277.26,42,275.34,40.77c-1.5-1-8.66,2.31-15,5.19-3.58,1.64-7.65,3.5-12.09,5.33a2.12,2.12,0,0,1-1.76-.08c-14.1-7.45-47.66-6.67-56.5-6.32a107.48,107.48,0,0,1,4.49,16.92,1.37,1.37,0,0,1-1.23,1.49c-39.42,8.68-73,32.88-97.58,50.56-3.29,2.37-6.43,4.63-9.4,6.72-25.09,17.67-25.38,43-20,49.92,4.91,6.27,13.53,14.26,16.67,17.1l7.72-5.95a2,2,0,0,1,1.28-.38,2,2,0,0,1,1.23.47c.11.1,10.52,9.54,19.87,5.64,4.75-2,7-7,9.24-11.93,2.39-5.29,4.85-10.75,10.69-12.46,4.2-1.22,8.9,1.51,15.41,5.3,12,7,30.22,17.61,57.37,8.89a1.91,1.91,0,0,1,2.2.67,1.22,1.22,0,0,1-.74,1.76c-39.15,16.5-98,76.68-108.61,111C93.28,308.06,102.49,319.71,111.38,328Z"/><path class="cls-3" d="M89.58,375.91h217c8.35-3.12,14.14-9.77,14.14-17.49,0-7.19-5-13.45-12.44-16.8H87.89c-7.43,3.35-12.44,9.61-12.44,16.8C75.45,366.14,81.23,372.79,89.58,375.91Z"/><path class="cls-2" d="M306.61,377.25h-217a2,2,0,0,1-.73-.13c-9.18-3.42-15.12-10.76-15.12-18.7,0-7.39,5.1-14.27,13.3-18a2.07,2.07,0,0,1,.86-.18H308.31a2.07,2.07,0,0,1,.86.18c8.2,3.69,13.29,10.57,13.29,18,0,7.94-5.93,15.28-15.11,18.7A2,2,0,0,1,306.61,377.25ZM90,374.56H306.22c7.79-3,12.81-9.33,12.81-16.14,0-6.31-4.27-12.2-11.19-15.45H88.35c-6.91,3.25-11.18,9.14-11.18,15.45C77.17,365.23,82.18,371.53,90,374.56Z"/><path class="cls-3" d="M316.48,382.1c0,3.33-3.44,6-7.68,6H87.39c-4.24,0-7.67-2.69-7.67-6h0c0-3.32,3.43-6,7.67-6H308.8c4.24,0,7.68,2.69,7.68,6Z"/><path class="cls-2" d="M308.8,389.46H87.39c-5.18,0-9.39-3.3-9.39-7.35s4.21-7.36,9.39-7.36H308.8c5.18,0,9.4,3.3,9.4,7.36S314,389.46,308.8,389.46Zm-221.41-12c-3.28,0-6,2.1-6,4.68s2.68,4.67,6,4.67H308.8c3.29,0,6-2.1,6-4.67s-2.67-4.68-6-4.68Z"/><path class="cls-3" d="M316.48,336c0,3.33-3.44,6-7.68,6H87.39c-4.24,0-7.67-2.69-7.67-6h0c0-3.32,3.43-6,7.67-6H308.8c4.24,0,7.68,2.69,7.68,6Z"/><path class="cls-2" d="M308.8,343.35H87.39c-5.18,0-9.39-3.3-9.39-7.36s4.21-7.35,9.39-7.35H308.8c5.18,0,9.4,3.3,9.4,7.35S314,343.35,308.8,343.35Zm-221.41-12c-3.28,0-6,2.1-6,4.67s2.68,4.67,6,4.67H308.8c3.29,0,6-2.09,6-4.67s-2.67-4.67-6-4.67Z"/><path class="cls-3" d="M195.67,88.91l22.62,11.56s-15.74,9.24-46.23,3.08"/><path class="cls-2" d="M192.25,107a104.32,104.32,0,0,1-20.62-2.18c-.91-.19-1.47-.92-1.23-1.64a1.79,1.79,0,0,1,2.09-1c22.91,4.64,37.32.31,42.56-1.83L194.73,90a1.19,1.19,0,0,1-.5-1.87,2,2,0,0,1,2.38-.39l22.62,11.56a1.31,1.31,0,0,1,.78,1.08,1.28,1.28,0,0,1-.69,1.12C218.82,101.84,209.72,107,192.25,107Z"/><path class="cls-3" d="M264.52,140.53s-21.71,31.87-58.07,37.89"/><path class="cls-2" d="M206.45,179.77a1.69,1.69,0,0,1-1.68-1.07c-.19-.73.4-1.44,1.33-1.6,35.13-5.82,56.69-36.89,56.9-37.2a2,2,0,0,1,2.33-.56,1.21,1.21,0,0,1,.7,1.82c-.9,1.33-22.51,32.49-59.22,38.58Z"/><path class="cls-3" d="M280.69,95.84s48.2,56.25,28.53,137.14"/><path class="cls-2" d="M309.22,234.33a1.73,1.73,0,0,1-.32,0c-.93-.13-1.54-.84-1.37-1.57,19.32-79.43-27.78-135.58-28.26-136.14a1.17,1.17,0,0,1,.47-1.86,2,2,0,0,1,2.38.37c.48.56,48.36,57.63,28.79,138.13A1.67,1.67,0,0,1,309.22,234.33Z"/><path class="cls-3" d="M97.31,294.62S247.8,307,247.8,188.3"/><path class="cls-2" d="M108.61,296.3c-7,0-11.31-.33-11.48-.34-.94-.08-1.62-.74-1.53-1.48a1.66,1.66,0,0,1,1.89-1.2c.66.06,66.63,5,110.11-25.66,25.54-18,38.48-44.71,38.48-79.32a1.76,1.76,0,0,1,3.43,0c0,35.41-13.33,62.77-39.63,81.33C176.33,293.31,129.89,296.3,108.61,296.3Z"/><path class="cls-4" d="M287.83,331.17H110.58a2.71,2.71,0,0,1-1.82-.66c-8.92-8.15-20.09-21.24-14.11-40.64,9.86-32,58.25-83.72,97.5-106.46-21,2.15-35.76-6.46-46.18-12.53-4.84-2.82-9.41-5.48-11.5-4.87-4,1.18-6.09,5.72-8.26,10.51-2.47,5.48-5,11.14-11.19,13.71-9.68,4-19.28-2-23.16-4.94l-7.28,5.61a2.66,2.66,0,0,1-1.76.54,2.78,2.78,0,0,1-1.72-.63c-.49-.43-12-10.64-18.29-18.63-6.73-8.63-5.52-35.51,20.74-54,3-2.08,6.08-4.34,9.36-6.7,24.43-17.59,57.74-41.57,97.21-50.82a91.73,91.73,0,0,0-4.65-16.41,1.53,1.53,0,0,1,.26-1.64,2.59,2.59,0,0,1,1.83-.84c1.74-.1,42-2.32,60,6.16,3.89-1.64,7.49-3.28,10.71-4.75,9.95-4.55,15.95-7.29,19.66-4.89,3.32,2.14,3.44,6.82-5.13,26.12C296.74,81,314.61,98.35,320.75,111a1.52,1.52,0,0,1-.21,1.66c-2.44,3.08-5.9,7-8.24,9.67l12.5.37a2.48,2.48,0,0,1,2.07,1.06c.58.94,14.33,23.6,13.77,55.93a1.64,1.64,0,0,1-.46,1.08c-3.3,3.54-8.64,6.26-12.41,7.88l11.58,4.73a1.9,1.9,0,0,1,1.29,1.67c0,.78-.05,19.23-4,31.72-3.67,11.53-15.42,20-18.26,21.95-1.34,3.73-9.22,25.14-17.93,41.83-8.12,15.57-14,26.82-10.28,38.31a1.59,1.59,0,0,1-.43,1.62A2.7,2.7,0,0,1,287.83,331.17Zm-176.14-3.76H284.86c-2.69-11.81,3.19-23.08,11.13-38.31,9.42-18,17.87-41.74,17.95-42a2,2,0,0,1,.8-1c.14-.09,13.52-8.71,17.22-20.34,3.28-10.32,3.79-25.45,3.86-29.68l-14.48-5.92a1.85,1.85,0,0,1-1.28-1.75,2,2,0,0,1,1.47-1.65c.1,0,9.54-3.14,14.32-7.84a111.1,111.1,0,0,0-12.72-52.61l-15.42-.46a2.5,2.5,0,0,1-2.07-1,1.56,1.56,0,0,1,.2-1.92c.07-.08,6.07-6.69,10-11.52-6.38-12.22-24-29-47.38-45a1.62,1.62,0,0,1-.68-2c8.27-18.44,8-22.44,7.13-23.18-1.51-.54-8.84,2.8-14.18,5.24-3.59,1.65-7.67,3.51-12.12,5.34a3,3,0,0,1-2.46-.1c-13.51-7.14-45.31-6.63-55.23-6.27a110.85,110.85,0,0,1,4.28,16.34,2,2,0,0,1-1.73,2.09c-39.26,8.64-72.81,32.79-97.3,50.43-3.29,2.37-6.43,4.63-9.41,6.73-24.81,17.47-25.16,42.43-19.85,49.24,4.66,5.95,12.68,13.45,16.13,16.6l7.2-5.55a2.87,2.87,0,0,1,3.51.12c.1.1,10.17,9.21,19,5.52,4.51-1.89,6.75-6.85,8.92-11.64,2.44-5.4,5-11,11.09-12.78,4.54-1.34,9.37,1.48,16.05,5.37,11.91,6.94,29.91,17.43,56.71,8.82a2.7,2.7,0,0,1,3.08.94,1.71,1.71,0,0,1-1,2.46c-39,16.45-97.72,76.44-108.27,110.67C94.06,307.82,103,319.28,111.69,327.41Z"/><path class="cls-4" d="M306.61,377.79h-217a3,3,0,0,1-1-.19c-9.41-3.51-15.5-11-15.5-19.18,0-7.58,5.23-14.64,13.64-18.43a3,3,0,0,1,1.2-.25H308.31a3,3,0,0,1,1.2.25c8.41,3.79,13.64,10.85,13.64,18.43,0,8.14-6.09,15.67-15.51,19.18A2.94,2.94,0,0,1,306.61,377.79ZM90.14,374H306.06c7.48-3,12.29-9,12.29-15.61,0-6.07-4.08-11.74-10.7-14.92H88.55c-6.62,3.18-10.7,8.85-10.7,14.92C77.85,365,82.66,371.06,90.14,374Z"/><path class="cls-4" d="M308.8,390H87.39c-5.55,0-10.07-3.54-10.07-7.89s4.52-7.9,10.07-7.9H308.8c5.56,0,10.08,3.54,10.08,7.9S314.36,390,308.8,390ZM87.39,378c-2.91,0-5.27,1.86-5.27,4.14s2.36,4.13,5.27,4.13H308.8c2.91,0,5.28-1.85,5.28-4.13S311.71,378,308.8,378Z"/><path class="cls-4" d="M308.8,343.89H87.39c-5.55,0-10.07-3.54-10.07-7.9s4.52-7.89,10.07-7.89H308.8c5.56,0,10.08,3.54,10.08,7.89S314.36,343.89,308.8,343.89Zm-221.41-12c-2.91,0-5.27,1.85-5.27,4.13s2.36,4.14,5.27,4.14H308.8c2.91,0,5.28-1.86,5.28-4.14s-2.37-4.13-5.28-4.13Z"/><path class="cls-4" d="M192.23,107.56a105,105,0,0,1-20.77-2.19c-1.28-.26-2.05-1.29-1.72-2.29a2.5,2.5,0,0,1,2.92-1.35c21.3,4.3,35.15.79,41-1.38l-19.31-9.87a1.65,1.65,0,0,1-.7-2.6,2.83,2.83,0,0,1,3.32-.55L219.6,98.89a1.85,1.85,0,0,1,1.09,1.52,1.77,1.77,0,0,1-1,1.56C219.22,102.27,210,107.56,192.23,107.56Z"/><path class="cls-4" d="M206.45,180.3a2.34,2.34,0,0,1-2.35-1.49c-.27-1,.56-2,1.85-2.23,34.82-5.77,56.24-36.63,56.45-36.94a2.78,2.78,0,0,1,3.25-.77,1.7,1.7,0,0,1,1,2.54c-.91,1.34-22.67,32.72-59.69,38.85A2.89,2.89,0,0,1,206.45,180.3Z"/><path class="cls-4" d="M309.22,234.86l-.45,0c-1.3-.19-2.16-1.18-1.91-2.2,19.27-79.22-27.68-135.18-28.16-135.74a1.64,1.64,0,0,1,.66-2.61,2.82,2.82,0,0,1,3.33.52c.48.57,48.51,57.82,28.89,138.54A2.33,2.33,0,0,1,309.22,234.86Z"/><path class="cls-4" d="M108.58,296.83c-7,0-11.35-.33-11.52-.34-1.32-.11-2.27-1-2.13-2.06a2.3,2.3,0,0,1,2.63-1.68c.66.05,66.35,5,109.59-25.53,25.38-17.92,38.25-44.48,38.25-78.92a2.47,2.47,0,0,1,4.8,0c0,35.57-13.41,63.06-39.86,81.73C176.61,293.83,130,296.83,108.58,296.83Z"/></g></svg>