<svg xmlns="http://www.w3.org/2000/svg" viewBox="0 0 400 400"><defs><style>.cls-1{fill:#e8e3da;}.cls-1,.cls-2,.cls-3{stroke:#26221f;stroke-miterlimit:10;stroke-width:5px;}.cls-2{fill:#99948d;}.cls-3{fill:#5a554d;}</style></defs><g id="Layer_7" data-name="Layer 7"><path class="cls-1" d="M290,386.05H110"/><path class="cls-2" d="M106.56,386c0-1.54,1.57-2.78,3.46-2.78H290c1.9,0,3.44,1.24,3.47,2.78m-6.85,2.86H113.41"/><path class="cls-1" d="M317,361.64H83c6.61,2.95,17.91,8.59,23,14.59H294C299.12,370.23,310.41,364.59,317,361.64Z"/><path class="cls-2" d="M294,379.05H106a3.73,3.73,0,0,1-2.85-1.21c-3.46-4.08-11.41-9.08-21.82-13.73a2.65,2.65,0,0,1-1.69-3.17A3.41,3.41,0,0,1,83,358.82H317a3.4,3.4,0,0,1,3.35,2.12,2.65,2.65,0,0,1-1.69,3.18c-10.4,4.64-18.35,9.64-21.81,13.72A3.75,3.75,0,0,1,294,379.05Zm-186.32-5.64H292.3c3.19-3.28,7.86-6.37,12.45-9H95.29A55.77,55.77,0,0,1,107.71,373.41Z"/><path class="cls-1" d="M291.66,331.81H108.34c-1.86,7.29-16.54,14.85-24.83,18.59h233C308.2,346.66,293.52,339.1,291.66,331.81Z"/><path class="cls-2" d="M316.49,353.22h-233a3.43,3.43,0,0,1-3.35-2.11,2.66,2.66,0,0,1,1.68-3.18c13.34-6,22-12.27,23.12-16.7a3.37,3.37,0,0,1,3.39-2.25H291.66a3.38,3.38,0,0,1,3.39,2.25c1.13,4.43,9.77,10.68,23.12,16.7a2.65,2.65,0,0,1,1.67,3.18A3.41,3.41,0,0,1,316.49,353.22ZM95.71,347.58H304.29c-6.68-3.8-12.71-8.27-15.14-12.95H110.86C108.43,339.31,102.39,343.78,95.71,347.58Z"/><path class="cls-1" d="M330.87,266.36l-62.47-56a24.91,24.91,0,0,1-3.87.3H135.47a24.77,24.77,0,0,1-3.86-.3l-62.47,56L119.44,322H280.57Z"/><path class="cls-2" d="M280.57,324.8H119.44a3.77,3.77,0,0,1-2.79-1.14L66.35,268a2.44,2.44,0,0,1,.23-3.58l62.47-56a3.94,3.94,0,0,1,3.2-.87,22.58,22.58,0,0,0,3.22.25H264.53a21.34,21.34,0,0,0,3.23-.25,4,4,0,0,1,3.2.87l62.47,56a2.44,2.44,0,0,1,.23,3.58l-50.3,55.62A3.77,3.77,0,0,1,280.57,324.8Zm-159.38-5.64H278.82l47.58-52.61L267.09,213.4c-.86.08-1.71.12-2.56.12H135.47c-.83,0-1.69,0-2.55-.12L73.61,266.55Z"/><path class="cls-1" d="M264.53,210.69a24.91,24.91,0,0,0,3.87-.3c4.44-.68,7.63-2.48,7.63-4.61,0-2.71-5.15-4.91-11.5-4.91H135.47c-6.35,0-11.49,2.2-11.49,4.91,0,2.13,3.18,3.93,7.63,4.61a24.77,24.77,0,0,0,3.86.3Z"/><path class="cls-2" d="M264.53,213.52H135.47a29.24,29.24,0,0,1-4.51-.36c-6.34-1-10.45-3.87-10.45-7.38,0-4.41,6.43-7.74,15-7.74H264.53c8.53,0,15,3.33,15,7.74,0,3.51-4.1,6.41-10.45,7.38A29.24,29.24,0,0,1,264.53,213.52Zm-129.06-9.83c-5,0-7.82,1.55-8,2.14.12.22,1.55,1.28,4.81,1.78a21.49,21.49,0,0,0,3.23.26H264.53a21.34,21.34,0,0,0,3.23-.25c3.26-.51,4.69-1.57,4.81-1.89-.22-.49-3-2-8-2Z"/><path class="cls-1" d="M172.78,190.77c-.62,0-1.23,0-1.83.08-5.48.37-9.66,2.38-9.66,4.83,0,2.71,5.14,4.91,11.49,4.91h54.44c6.36,0,11.5-2.2,11.5-4.91,0-2.45-4.19-4.46-9.66-4.83-.6,0-1.21-.08-1.84-.08Z"/><path class="cls-2" d="M227.22,203.42H172.78c-8.53,0-15-3.33-15-7.74,0-4,5.28-7.13,12.84-7.65.69-.05,1.39-.09,2.12-.09h54.44c.73,0,1.44,0,2.14.09,7.55.52,12.83,3.67,12.83,7.65C242.19,200.09,235.75,203.42,227.22,203.42Zm-54.44-9.83c-.52,0-1,0-1.53.07-4.18.29-6.32,1.58-6.51,2.06.22.5,3,2.05,8,2.05h54.44c5,0,7.83-1.55,8.05-2.13-.19-.4-2.33-1.69-6.5-2-.51,0-1-.07-1.55-.07Z"/><path class="cls-1" d="M301.83,386.05c6.35,0,11.5-2.19,11.5-4.91s-5.15-4.91-11.5-4.91H98.17c-6.35,0-11.5,2.2-11.5,4.91s5.15,4.91,11.5,4.91H301.83Z"/><path class="cls-2" d="M301.83,388.87H98.17c-8.53,0-15-3.32-15-7.73s6.43-7.73,15-7.73H301.83c8.53,0,15,3.32,15,7.73S310.36,388.87,301.83,388.87ZM98.17,379.05c-5,0-7.82,1.55-8,2.13.22.5,3,2.05,8,2.05H301.83c5,0,7.83-1.55,8.05-2.13-.22-.5-3-2.05-8.05-2.05Z"/><path class="cls-1" d="M329.8,361.64c7.26,0,13.15-2.51,13.15-5.62s-5.89-5.62-13.15-5.62H70.21c-7.27,0-13.15,2.51-13.15,5.62s5.88,5.62,13.15,5.62H329.8Z"/><path class="cls-2" d="M329.79,364.46H70.21c-9.47,0-16.61-3.63-16.61-8.44s7.14-8.44,16.61-8.44H329.79c9.48,0,16.63,3.63,16.63,8.44S339.27,364.46,329.79,364.46ZM70.21,353.22c-6.36,0-9.69,2.08-9.69,2.8s3.33,2.8,9.69,2.8H329.79c6.37,0,9.7-2.09,9.7-2.8s-3.33-2.8-9.7-2.8Z"/><path class="cls-1" d="M308.05,331.81c6.36,0,11.5-2.2,11.5-4.92s-5.14-4.91-11.5-4.91H92c-6.35,0-11.49,2.2-11.49,4.91s5.14,4.92,11.49,4.92h216.1Z"/><path class="cls-2" d="M308.05,334.63H92c-8.53,0-15-3.33-15-7.74s6.43-7.73,15-7.73h216.1c8.53,0,15,3.32,15,7.73S316.58,334.63,308.05,334.63ZM92,324.8c-5,0-7.82,1.55-8,2.14.22.5,3,2,8,2h216.1c5,0,7.83-1.54,8.05-2.13-.22-.5-3-2.05-8.05-2.05Z"/><line class="cls-1" x1="69.14" y1="266.36" x2="286.35" y2="266.36"/><path class="cls-2" d="M286.35,269.18H69.14c-1.91,0-3.46-1.26-3.46-2.82s1.55-2.82,3.46-2.82H286.35c1.91,0,3.46,1.26,3.46,2.82S288.26,269.18,286.35,269.18Z"/><path class="cls-3" d="M105.18,386c0-2.15,2.2-3.89,4.84-3.89H290c2.65,0,4.8,1.74,4.84,3.89m-9.56,4H114.75"/><path class="cls-3" d="M294,380.18H106a5.24,5.24,0,0,1-4-1.7c-3.34-3.94-11.12-8.81-21.35-13.38a3.7,3.7,0,0,1-2.36-4.44,4.76,4.76,0,0,1,4.69-3H317a4.77,4.77,0,0,1,4.69,3,3.71,3.71,0,0,1-2.37,4.44c-10.22,4.56-18,9.44-21.34,13.38A5.24,5.24,0,0,1,294,380.18Zm-185.66-7.9H291.64a51.07,51.07,0,0,1,8.82-6.69H99.54A51.17,51.17,0,0,1,108.37,372.28Z"/><path class="cls-3" d="M316.49,354.35h-233a4.77,4.77,0,0,1-4.68-3A3.7,3.7,0,0,1,81.17,347c12.8-5.78,21.4-11.89,22.44-15.95a4.71,4.71,0,0,1,4.74-3.14H291.66A4.72,4.72,0,0,1,296.4,331c1,4.06,9.63,10.17,22.43,15.95a3.7,3.7,0,0,1,2.35,4.44A4.78,4.78,0,0,1,316.49,354.35Zm-216.58-7.9H300.1c-5.13-3.24-9.56-6.87-11.84-10.7H111.74C109.47,339.57,105,343.21,99.91,346.45Z"/><path class="cls-3" d="M280.57,325.93H119.44a5.28,5.28,0,0,1-3.9-1.6L65.24,268.7a3.41,3.41,0,0,1,.32-5l62.47-56a5.56,5.56,0,0,1,4.48-1.22,19.13,19.13,0,0,0,3,.24H264.53a19.48,19.48,0,0,0,3-.24,5.53,5.53,0,0,1,4.47,1.22l62.47,56a3.41,3.41,0,0,1,.32,5l-50.3,55.63A5.28,5.28,0,0,1,280.57,325.93ZM121.88,318H278.13l46.49-51.41-58.09-52c-.67,0-1.33.06-2,.06H135.47c-.66,0-1.32,0-2-.06l-58.09,52Z"/><path class="cls-3" d="M264.53,214.64H135.47a31.33,31.33,0,0,1-4.77-.37c-7-1.08-11.56-4.41-11.56-8.49,0-5.05,7-8.86,16.33-8.86H264.53c9.31,0,16.34,3.81,16.34,8.86,0,4.08-4.54,7.41-11.57,8.49A31.33,31.33,0,0,1,264.53,214.64Zm-134.86-8.87a12.55,12.55,0,0,0,2.83.74,19.36,19.36,0,0,0,3,.24H264.53a19.48,19.48,0,0,0,3-.24,12.43,12.43,0,0,0,2.82-.74,15.83,15.83,0,0,0-5.8-1H135.47A15.88,15.88,0,0,0,129.67,205.77Z"/><path class="cls-3" d="M227.22,204.54H172.78c-9.31,0-16.33-3.81-16.33-8.86,0-4.66,5.66-8.19,14.09-8.77.73,0,1.47-.09,2.24-.09h54.44c.77,0,1.52,0,2.26.09,8.42.58,14.09,4.11,14.09,8.77C243.57,200.73,236.54,204.54,227.22,204.54ZM167,195.68a15.6,15.6,0,0,0,5.81,1h54.44a15.66,15.66,0,0,0,5.82-1,14.5,14.5,0,0,0-4.39-.9c-.47,0-.94-.07-1.43-.07H172.78c-.48,0-.95,0-1.41.07A14.58,14.58,0,0,0,167,195.68Zm67.1.58h0Z"/><path class="cls-3" d="M301.83,390H98.17c-9.47,0-16.34-3.72-16.34-8.86s7-8.86,16.34-8.86H301.83c9.32,0,16.34,3.81,16.34,8.86S311.3,390,301.83,390ZM92.35,381.14a15.66,15.66,0,0,0,5.82,1H301.83a15.72,15.72,0,0,0,5.83-1,15.94,15.94,0,0,0-5.83-1H98.17A15.87,15.87,0,0,0,92.35,381.14Z"/><path class="cls-3" d="M329.79,365.59H70.21c-10.25,0-18-4.12-18-9.57s7.74-9.57,18-9.57H329.79c10.27,0,18,4.12,18,9.57S340.06,365.59,329.79,365.59ZM62.22,356c1,.67,3.83,1.67,8,1.67H329.79c4.17,0,7-1,8-1.67-1-.67-3.83-1.67-8-1.67H70.21C66.05,354.35,63.26,355.35,62.22,356Z"/><path class="cls-3" d="M308.05,335.75H92c-9.31,0-16.33-3.81-16.33-8.86S82.49,318,92,318h216.1c9.47,0,16.34,3.73,16.34,8.86S317.37,335.75,308.05,335.75ZM86.13,326.89a15.62,15.62,0,0,0,5.82,1h216.1a15.68,15.68,0,0,0,5.83-1,15.94,15.94,0,0,0-5.83-1H92A15.87,15.87,0,0,0,86.13,326.89Z"/><path class="cls-3" d="M286.35,270.31H69.14c-2.67,0-4.84-1.77-4.84-3.95s2.17-3.95,4.84-3.95H286.35c2.67,0,4.84,1.77,4.84,3.95S289,270.31,286.35,270.31Z"/><path class="cls-1" d="M110.56,129.29l58.56-6-8.06,43.57a6.65,6.65,0,0,0,2.22,6.31,19.63,19.63,0,0,1,2.32-.17h69a19.63,19.63,0,0,1,2.32.17,6.58,6.58,0,0,0,2.22-6.31L231.1,123.3l58.57,6c6.28.64,11.46-2.18,11.46-6.32V77.51c0-4.13-5.18-7-11.46-6.31l-58.57,6,8.06-43.57c.87-4.67-2.94-8.53-8.5-8.53h-61.1c-5.57,0-9.36,3.86-8.5,8.53l8.06,43.57-58.56-6c-6.29-.65-11.47,2.18-11.47,6.31V123C99.09,127.11,104.27,129.93,110.56,129.29Z"/><path class="cls-2" d="M237,176a4.36,4.36,0,0,1-.51,0,13.68,13.68,0,0,0-1.82-.15h-69a13.39,13.39,0,0,0-1.81.15,4,4,0,0,1-3.06-.88,9.19,9.19,0,0,1-3.09-8.65L165,126.56l-54,5.53h0c-4.5.46-8.76-.49-11.71-2.61A8.05,8.05,0,0,1,95.63,123V77.51A8,8,0,0,1,99.28,71,17.12,17.12,0,0,1,111,68.4l54,5.52L157.64,34a9.18,9.18,0,0,1,2.8-8.44,13.12,13.12,0,0,1,9.12-3.33h61.1a13.13,13.13,0,0,1,9.13,3.34A9.14,9.14,0,0,1,242.58,34L235.2,73.92l54-5.52c4.49-.46,8.75.49,11.69,2.6a8,8,0,0,1,3.66,6.51V123a8,8,0,0,1-3.66,6.51c-2.94,2.12-7.22,3.07-11.69,2.61l-54-5.53,7.38,39.89a9.13,9.13,0,0,1-3.09,8.65A3.87,3.87,0,0,1,237,176Zm-71.35-5.83h69l.66,0a4.24,4.24,0,0,0,.46-2.91l-8.06-43.57a2.5,2.5,0,0,1,.94-2.4,3.86,3.86,0,0,1,2.91-.82l58.57,6a9.43,9.43,0,0,0,6.25-1.24,2.78,2.78,0,0,0,1.32-2.28V77.51a2.77,2.77,0,0,0-1.32-2.27A9.41,9.41,0,0,0,290.1,74l-58.57,6a4,4,0,0,1-2.91-.83,2.5,2.5,0,0,1-.94-2.4l8.06-43.56a4.16,4.16,0,0,0-1.2-3.9,5.46,5.46,0,0,0-3.88-1.38h-61.1a5.47,5.47,0,0,0-3.87,1.37,4.13,4.13,0,0,0-1.2,3.91l8,43.56a2.54,2.54,0,0,1-.94,2.4,4,4,0,0,1-2.91.83l-58.56-6a9.44,9.44,0,0,0-6.26,1.24,2.77,2.77,0,0,0-1.32,2.27V123a2.77,2.77,0,0,0,1.31,2.28,9.53,9.53,0,0,0,6.27,1.24l58.56-6a3.87,3.87,0,0,1,2.91.82,2.54,2.54,0,0,1,.94,2.4l-8.06,43.57a4.24,4.24,0,0,0,.46,2.91Zm-55-40.89h0Z"/><path class="cls-1" d="M281.91,217a19,19,0,0,0,4.92-.67c5.62-1.51,9.66-5.47,9.66-10.17,0-6-6.53-10.85-14.58-10.85H118.3c-8,0-14.58,4.86-14.58,10.85,0,4.7,4,8.67,9.68,10.17a18.89,18.89,0,0,0,4.9.67Z"/><path class="cls-2" d="M281.91,219.84H118.3a23.2,23.2,0,0,1-6-.82c-7.21-1.92-12.06-7.09-12.06-12.85,0-7.54,8.09-13.68,18-13.68H281.91c9.95,0,18,6.14,18,13.68,0,5.76-4.84,10.92-12,12.85A23,23,0,0,1,281.91,219.84ZM118.3,198.14c-6.13,0-11.11,3.6-11.11,8,0,3.32,2.92,6.32,7.29,7.49a14.57,14.57,0,0,0,3.82.53H281.91a14.71,14.71,0,0,0,3.84-.53c4.35-1.17,7.28-4.18,7.28-7.49,0-4.43-5-8-11.12-8Z"/><path class="cls-1" d="M165.6,173a19.63,19.63,0,0,0-2.32.17c-6.95.84-12.25,5.28-12.25,10.68,0,6,6.51,10.85,14.57,10.85h69c8,0,14.58-4.86,14.58-10.85,0-5.4-5.31-9.84-12.26-10.68a19.63,19.63,0,0,0-2.32-.17Z"/><path class="cls-2" d="M234.62,197.53h-69c-9.94,0-18-6.13-18-13.67,0-6.75,6.4-12.41,15.21-13.47a23.69,23.69,0,0,1,2.83-.21h69a23.85,23.85,0,0,1,2.83.21c8.81,1.06,15.21,6.72,15.21,13.47C252.66,191.4,244.57,197.53,234.62,197.53Zm-69-21.7a13.39,13.39,0,0,0-1.81.15c-5.39.64-9.3,4-9.3,7.88,0,4.42,5,8,11.11,8h69c6.13,0,11.12-3.6,11.12-8,0-3.92-3.91-7.24-9.3-7.88a13.68,13.68,0,0,0-1.82-.15Z"/><path class="cls-3" d="M163.28,177.13a5.38,5.38,0,0,1-3.56-1.27,10.16,10.16,0,0,1-3.45-9.57l7.11-38.43-52.22,5.35h0c-4.86.49-9.55-.55-12.79-2.89A9,9,0,0,1,94.25,123V77.51a9.1,9.1,0,0,1,4.12-7.35c3.24-2.33,7.9-3.39,12.79-2.88l52.22,5.34-7.1-38.41a10.14,10.14,0,0,1,3.12-9.34,14.62,14.62,0,0,1,10.16-3.72h61.1a14.63,14.63,0,0,1,10.18,3.73,10.14,10.14,0,0,1,3.1,9.33l-7.1,38.41,52.23-5.34c4.88-.51,9.54.55,12.77,2.88A9.07,9.07,0,0,1,306,77.51V123a9.07,9.07,0,0,1-4.12,7.35c-3.24,2.33-7.9,3.37-12.78,2.89l-52.23-5.35,7.1,38.42a10.09,10.09,0,0,1-3.44,9.58,5.46,5.46,0,0,1-4.27,1.23,12.06,12.06,0,0,0-1.61-.13h-69a12.2,12.2,0,0,0-1.61.13A5.53,5.53,0,0,1,163.28,177.13Zm2.63-8.07h68.41a3.43,3.43,0,0,0,.05-1.6l-8.06-43.57a3.54,3.54,0,0,1,1.32-3.35,5.53,5.53,0,0,1,4.07-1.16l58.57,6a7.77,7.77,0,0,0,5.17-1,1.73,1.73,0,0,0,.85-1.43V77.51a1.74,1.74,0,0,0-.85-1.43,7.88,7.88,0,0,0-5.17-1l-58.57,6a5.45,5.45,0,0,1-4.07-1.16,3.53,3.53,0,0,1-1.32-3.34L234.37,33a3.2,3.2,0,0,0-.87-3,4,4,0,0,0-2.84-1h-61.1a4,4,0,0,0-2.83,1,3.2,3.2,0,0,0-.88,3l8.06,43.57a3.52,3.52,0,0,1-1.33,3.34,5.49,5.49,0,0,1-4.06,1.16l-58.56-6a7.85,7.85,0,0,0-5.18,1,1.74,1.74,0,0,0-.85,1.43V123a1.73,1.73,0,0,0,.85,1.43,7.91,7.91,0,0,0,5.18,1l58.56-6a5.51,5.51,0,0,1,4.06,1.16,3.53,3.53,0,0,1,1.33,3.35l-8.06,43.57A3.42,3.42,0,0,0,165.91,169.06Zm-55.35-39.77h0Z"/><path class="cls-3" d="M281.91,221H118.3a24.72,24.72,0,0,1-6.41-.87c-7.78-2.07-13-7.67-13-13.92,0-8.16,8.71-14.8,19.42-14.8H281.91c10.71,0,19.42,6.64,19.42,14.8,0,6.24-5.22,11.84-13,13.92A24.92,24.92,0,0,1,281.91,221ZM118.3,199.27c-5.37,0-9.74,3.09-9.74,6.9,0,2.83,2.55,5.4,6.34,6.42a13.2,13.2,0,0,0,3.4.48H281.91a13.21,13.21,0,0,0,3.41-.48c3.78-1,6.33-3.6,6.33-6.42,0-3.81-4.37-6.9-9.74-6.9Z"/><path class="cls-3" d="M234.62,198.66h-69c-10.7,0-19.41-6.64-19.41-14.8,0-7.31,6.89-13.44,16.38-14.58a24.82,24.82,0,0,1,3-.22h69a25.29,25.29,0,0,1,3,.22c9.49,1.14,16.38,7.27,16.38,14.58C254,192,245.33,198.66,234.62,198.66Zm-69-21.7a12.2,12.2,0,0,0-1.61.13c-4.71.56-8.12,3.41-8.12,6.77,0,3.8,4.36,6.9,9.73,6.9h69c5.37,0,9.74-3.1,9.74-6.9,0-3.36-3.42-6.2-8.12-6.77a12.49,12.49,0,0,0-1.62-.13Z"/></g></svg>