<svg xmlns="http://www.w3.org/2000/svg" viewBox="0 0 400 400"><defs><style>.cls-1{fill:#e8e3da;}.cls-1,.cls-2,.cls-3,.cls-4{stroke:#26221f;stroke-miterlimit:10;stroke-width:5px;}.cls-2{fill:#99948d;}.cls-3{fill:#f7f4f0;}.cls-4{fill:#5a554d;}</style></defs><g id="Layer_7" data-name="Layer 7"><path class="cls-1" d="M270.65,386.43H129.36"/><path class="cls-2" d="M126.64,386.39a2.64,2.64,0,0,1,2.72-2.52H270.65a2.64,2.64,0,0,1,2.72,2.52M268,389H132"/><path class="cls-1" d="M291.88,364.34H108.12c5.2,2.67,14.07,7.77,18.06,13.2H273.83C277.82,372.11,286.69,367,291.88,364.34Z"/><path class="cls-2" d="M273.83,380.09H126.18A2.75,2.75,0,0,1,124,379c-3.72-5-12.33-9.94-17.13-12.41a2.49,2.49,0,0,1-1.33-2.87,2.69,2.69,0,0,1,2.63-1.92H291.88a2.7,2.7,0,0,1,2.64,1.92,2.5,2.5,0,0,1-1.33,2.87c-8.17,4.2-14.41,8.73-17.13,12.41A2.77,2.77,0,0,1,273.83,380.09ZM127.54,375H272.46a44.82,44.82,0,0,1,9.76-8.1H117.79A44.8,44.8,0,0,1,127.54,375Z"/><path class="cls-1" d="M272,337.35H128c-1.46,6.6-13,13.44-19.49,16.82H291.46C285,350.79,273.43,344,272,337.35Z"/><path class="cls-2" d="M291.46,356.73H108.55a2.69,2.69,0,0,1-2.63-1.92,2.49,2.49,0,0,1,1.31-2.87c10.48-5.45,17.26-11.1,18.15-15.11a2.68,2.68,0,0,1,2.66-2H272a2.69,2.69,0,0,1,2.66,2c.89,4,7.67,9.66,18.15,15.11a2.49,2.49,0,0,1,1.31,2.87A2.69,2.69,0,0,1,291.46,356.73Zm-173.34-5.11H281.88c-5.24-3.43-10-7.48-11.89-11.72H130C128.11,344.14,123.37,348.19,118.12,351.62Z"/><path class="cls-1" d="M280,386.43c5,0,9-2,9-4.44s-4-4.45-9-4.45H120.05c-5,0-9,2-9,4.45s4,4.44,9,4.44H280Z"/><path class="cls-2" d="M280,389H120.05c-6.69,0-11.74-3-11.74-7s5-7,11.74-7H280c6.69,0,11.74,3,11.74,7S286.65,389,280,389Zm-159.91-8.89c-3.93,0-6.14,1.4-6.31,1.93.17.46,2.37,1.85,6.31,1.85H280c3.94,0,6.14-1.39,6.31-1.92-.17-.46-2.38-1.86-6.31-1.86Z"/><path class="cls-1" d="M301.91,364.34c5.7,0,10.33-2.27,10.33-5.08s-4.63-5.09-10.33-5.09H98.1c-5.7,0-10.33,2.28-10.33,5.09s4.63,5.08,10.33,5.08H301.91Z"/><path class="cls-2" d="M301.91,366.89H98.1c-7.43,0-13-3.28-13-7.64s5.61-7.63,13-7.63H301.91c7.44,0,13,3.28,13,7.63S309.35,366.89,301.91,366.89ZM98.1,356.73c-5,0-7.61,1.88-7.61,2.52s2.62,2.54,7.61,2.54H301.91c5,0,7.61-1.89,7.61-2.54s-2.62-2.52-7.61-2.52Z"/><path class="cls-1" d="M289.31,329.07H110.7c-2.71.76-4.55,2.18-4.55,3.83,0,2.46,4,4.45,9,4.45H284.84c5,0,9-2,9-4.45C293.87,331.25,292,329.83,289.31,329.07Z"/><path class="cls-2" d="M284.84,339.9H115.17c-6.69,0-11.74-3-11.74-7,0-2.78,2.42-5.13,6.48-6.28a3,3,0,0,1,.79-.11H289.31a2.88,2.88,0,0,1,.78.11c4.07,1.15,6.5,3.5,6.5,6.28C296.59,336.89,291.53,339.9,284.84,339.9Zm-173.72-8.28c-1.65.53-2.21,1.19-2.26,1.33.17.45,2.38,1.84,6.31,1.84H284.84c3.93,0,6.14-1.39,6.31-1.92a4.76,4.76,0,0,0-2.26-1.25Z"/><path class="cls-3" d="M200,329.07H110.7c-2.71.76-4.55,2.19-4.55,3.83,0,2.46,4,4.45,9,4.45H128c-1.46,6.6-13,13.44-19.49,16.82H98.1c-5.7,0-10.33,2.28-10.33,5.09s4.63,5.08,10.33,5.08h10c5.2,2.67,14.07,7.77,18.06,13.2h-6.13c-5,0-9,2-9,4.45s4,4.44,9,4.44h9.31"/><path class="cls-4" d="M125.56,386.38a3.69,3.69,0,0,1,3.8-3.52H270.65a3.69,3.69,0,0,1,3.8,3.52M266.94,390H133.06"/><path class="cls-4" d="M273.83,381.11H126.18a3.85,3.85,0,0,1-3.12-1.54c-2.62-3.55-8.73-8-16.76-12.1a3.5,3.5,0,0,1-1.86-4,3.76,3.76,0,0,1,3.68-2.68H291.88a3.78,3.78,0,0,1,3.69,2.68,3.49,3.49,0,0,1-1.86,4c-8,4.13-14.14,8.54-16.76,12.1A3.86,3.86,0,0,1,273.83,381.11ZM128.06,374H272a41.46,41.46,0,0,1,6.93-6.06H121.13A41.86,41.86,0,0,1,128.06,374Z"/><path class="cls-4" d="M291.46,357.74H108.55a3.76,3.76,0,0,1-3.68-2.68,3.48,3.48,0,0,1,1.84-4c10.05-5.23,16.8-10.76,17.61-14.43a3.75,3.75,0,0,1,3.72-2.84H272a3.75,3.75,0,0,1,3.72,2.84c.81,3.67,7.56,9.2,17.61,14.43a3.48,3.48,0,0,1,1.84,4A3.76,3.76,0,0,1,291.46,357.74Zm-170-7.14H278.59c-4-2.93-7.5-6.22-9.29-9.68H130.71C128.92,344.38,125.44,347.67,121.42,350.6Z"/><path class="cls-4" d="M280,390H120.05c-7.31,0-12.82-3.45-12.82-8s5.51-8,12.82-8H280c7.31,0,12.82,3.44,12.82,8S287.27,390,280,390Zm-164.47-8a10.71,10.71,0,0,0,4.56.88H280a10.71,10.71,0,0,0,4.56-.88,10.9,10.9,0,0,0-4.56-.87H120.05A10.9,10.9,0,0,0,115.49,382Z"/><path class="cls-4" d="M301.91,367.91H98.1c-8,0-14.13-3.72-14.13-8.66s6.08-8.65,14.13-8.65H301.91c8,0,14.13,3.72,14.13,8.65S310,367.91,301.91,367.91ZM91.83,359.25a11.28,11.28,0,0,0,6.27,1.52H301.91a11.38,11.38,0,0,0,6.28-1.52,11.49,11.49,0,0,0-6.28-1.51H98.1A11.42,11.42,0,0,0,91.83,359.25Z"/><path class="cls-4" d="M284.84,340.92H115.17c-7.31,0-12.82-3.45-12.82-8,0-3.25,2.71-6,7.25-7.25a4.12,4.12,0,0,1,1.1-.16H289.31a4.56,4.56,0,0,1,1.1.15c4.54,1.29,7.26,4,7.26,7.26C297.67,337.47,292.15,340.92,284.84,340.92Zm-174.21-8a10.87,10.87,0,0,0,4.54.87H284.84a10.87,10.87,0,0,0,4.54-.87,6,6,0,0,0-.68-.27H111.31A6,6,0,0,0,110.63,332.91Z"/><path class="cls-1" d="M255.61,327.48l45.45-112.74-23.74-30-61.88,58.17L188,217.14l65.92-62-25.5-32.24a11.38,11.38,0,0,1-2.68.35H174.2a11.3,11.3,0,0,1-2.67-.35l-72.62,91.8,45.45,112.74Z"/><path class="cls-2" d="M255.61,330H144.36a2.71,2.71,0,0,1-2.54-1.64L96.37,215.65a2.41,2.41,0,0,1,.36-2.43l72.62-91.81a2.82,2.82,0,0,1,2.86-1,8.12,8.12,0,0,0,2,.27h51.56a8.13,8.13,0,0,0,2-.27,2.82,2.82,0,0,1,2.86,1l25.5,32.24a2.43,2.43,0,0,1-.26,3.33l-64,60.16,23.58,22.16,60-56.37a2.81,2.81,0,0,1,2.12-.74,2.76,2.76,0,0,1,2,1l23.74,30a2.43,2.43,0,0,1,.36,2.43L258.16,328.39A2.74,2.74,0,0,1,255.61,330Zm-109.38-5.1H253.74L298,215.15l-21-26.51-59.66,56.08a2.85,2.85,0,0,1-3.85,0L186.1,219a2.44,2.44,0,0,1,0-3.61l64.26-60.41-23.09-29.18a13,13,0,0,1-1.51.09H174.2a12.83,12.83,0,0,1-1.5-.09L102,215.15Z"/><path class="cls-1" d="M232.05,81.22c0-16.65-14.35-30.15-32.06-30.15s-32.07,13.5-32.07,30.15a29.22,29.22,0,0,0,9.73,21.6h44.67A29.18,29.18,0,0,0,232.05,81.22Z"/><path class="cls-2" d="M222.32,105.37H177.65a2.83,2.83,0,0,1-1.89-.72,31.46,31.46,0,0,1-10.55-23.43c0-18,15.6-32.7,34.78-32.7s34.78,14.67,34.78,32.7a31.51,31.51,0,0,1-10.55,23.43A2.84,2.84,0,0,1,222.32,105.37Zm-43.54-5.11h42.41a26.47,26.47,0,0,0,8.14-19c0-15.22-13.16-27.59-29.34-27.59S170.64,66,170.64,81.22A26.46,26.46,0,0,0,178.78,100.26Z"/><path class="cls-1" d="M225.76,123.29a11.38,11.38,0,0,0,2.68-.35,10.36,10.36,0,0,0,8.21-9.89c0-5.65-4.88-10.23-10.89-10.23H174.2c-6,0-10.88,4.58-10.88,10.23a10.35,10.35,0,0,0,8.21,9.89,11.23,11.23,0,0,0,2.67.35Z"/><path class="cls-2" d="M225.76,125.84H174.2a13.67,13.67,0,0,1-3.34-.43,12.91,12.91,0,0,1-10.26-12.36c0-7,6.1-12.79,13.6-12.79h51.56c7.5,0,13.61,5.74,13.61,12.79a13,13,0,0,1-10.26,12.37A14.69,14.69,0,0,1,225.76,125.84ZM174.2,105.37a8,8,0,0,0-8.17,7.68,7.75,7.75,0,0,0,6.17,7.41,8.25,8.25,0,0,0,2,.27h51.56a8.13,8.13,0,0,0,2-.27,7.75,7.75,0,0,0,6.17-7.41,8,8,0,0,0-8.17-7.68Z"/><path class="cls-4" d="M255.61,331.05H144.36a3.82,3.82,0,0,1-3.56-2.3L95.35,216a3.41,3.41,0,0,1,.51-3.4l72.63-91.8a3.91,3.91,0,0,1,4-1.33,7.42,7.42,0,0,0,1.72.24h51.56a7.43,7.43,0,0,0,1.73-.24,3.91,3.91,0,0,1,4,1.33L257,153.05a3.4,3.4,0,0,1-.36,4.65l-63.24,59.44,22.05,20.72,59.2-55.65a4,4,0,0,1,3-1,3.87,3.87,0,0,1,2.77,1.44l23.74,30a3.41,3.41,0,0,1,.5,3.4L259.17,328.75A3.82,3.82,0,0,1,255.61,331.05ZM147,323.91H253l43.78-108.6L276.9,190.19l-58.78,55.25a4,4,0,0,1-5.37,0l-27.42-25.77a3.43,3.43,0,0,1,0-5l63.6-59.79-22.16-28c-.34,0-.68,0-1,0H174.2c-.33,0-.66,0-1,0l-70,88.49Z"/><path class="cls-4" d="M222.32,106.39H177.65a3.92,3.92,0,0,1-2.65-1,32.51,32.51,0,0,1-10.88-24.16c0-18.6,16.09-33.72,35.87-33.72s35.86,15.12,35.86,33.72A32.47,32.47,0,0,1,225,105.38,3.92,3.92,0,0,1,222.32,106.39Zm-43.07-7.15h41.48a25.46,25.46,0,0,0,7.52-18c0-14.66-12.68-26.58-28.26-26.58s-28.27,11.92-28.27,26.58A25.43,25.43,0,0,0,179.25,99.24Z"/><path class="cls-4" d="M225.76,126.86H174.2a15.33,15.33,0,0,1-3.61-.46,14,14,0,0,1-11.07-13.35c0-7.61,6.59-13.81,14.68-13.81h51.56c8.1,0,14.69,6.2,14.69,13.81a14,14,0,0,1-11.08,13.35A15.27,15.27,0,0,1,225.76,126.86ZM174.2,106.39a6.89,6.89,0,0,0-7.08,6.66,6.71,6.71,0,0,0,5.34,6.42,7.26,7.26,0,0,0,1.74.25h51.56a7.43,7.43,0,0,0,1.73-.24,6.74,6.74,0,0,0,5.36-6.43,6.89,6.89,0,0,0-7.09-6.66Z"/></g></svg>